# Blender v2.76 (sub 0) OBJ File: ''
# www.blender.org
mtllib animation2.mtl
o Cube
v 0.000000 0.000000 -0.000000
v -0.000000 2.000000 0.000000
v 1.000000 1.000000 0.000000
v -0.000000 1.000000 1.000000
v -1.000000 1.000000 -0.000000
v 0.000000 1.000000 -1.000000
v 0.750000 0.250000 0.000000
v 0.000000 0.250000 -0.750000
v 0.750000 1.000000 -0.750000
v -0.000000 0.250000 0.750000
v 0.750000 1.000000 0.750000
v -0.750000 0.250000 -0.000000
v -0.750000 1.000000 0.750000
v -0.750000 1.000000 -0.750000
v 0.750000 1.750000 0.000000
v 0.000000 1.750000 -0.750000
v -0.000000 1.750000 0.750000
v -0.750000 1.750000 -0.000000
v 0.555556 0.444444 -0.555556
v 0.555555 0.444444 0.555556
v -0.555556 0.444444 0.555555
v -0.555555 0.444444 -0.555556
v 0.555556 1.555556 -0.555555
v 0.555555 1.555556 0.555556
v -0.555556 1.555556 0.555556
v -0.555556 1.555556 -0.555556
vn 0.348200 -0.870400 -0.348200
vn 0.348200 -0.870400 0.348200
vn -0.348200 -0.870400 0.348200
vn -0.348200 -0.870400 -0.348200
vn 0.348200 0.870400 -0.348200
vn -0.348200 0.870400 -0.348200
vn -0.348200 0.870400 0.348200
vn 0.348200 0.870400 0.348200
vn 0.870400 -0.348200 -0.348200
vn 0.870400 0.348200 -0.348200
vn 0.870400 0.348200 0.348200
vn 0.870400 -0.348200 0.348200
vn 0.348200 -0.348200 0.870400
vn 0.348200 0.348200 0.870400
vn -0.348200 0.348200 0.870400
vn -0.348200 -0.348200 0.870400
vn -0.870400 -0.348200 0.348200
vn -0.870400 0.348200 0.348200
vn -0.870400 0.348200 -0.348200
vn -0.870400 -0.348200 -0.348200
vn 0.348200 0.348200 -0.870400
vn 0.348200 -0.348200 -0.870400
vn -0.348200 -0.348200 -0.870400
vn -0.348200 0.348200 -0.870400
usemtl Material
s off
f 1//1 8//1 19//1 7//1
f 1//2 7//2 20//2 10//2
f 1//3 10//3 21//3 12//3
f 1//4 12//4 22//4 8//4
f 2//5 15//5 23//5 16//5
f 2//6 16//6 26//6 18//6
f 2//7 18//7 25//7 17//7
f 2//8 17//8 24//8 15//8
f 3//9 7//9 19//9 9//9
f 3//10 9//10 23//10 15//10
f 3//11 15//11 24//11 11//11
f 3//12 11//12 20//12 7//12
f 4//13 10//13 20//13 11//13
f 4//14 11//14 24//14 17//14
f 4//15 17//15 25//15 13//15
f 4//16 13//16 21//16 10//16
f 5//17 12//17 21//17 13//17
f 5//18 13//18 25//18 18//18
f 5//19 18//19 26//19 14//19
f 5//20 14//20 22//20 12//20
f 6//21 16//21 23//21 9//21
f 6//22 9//22 19//22 8//22
f 6//23 8//23 22//23 14//23
f 6//24 14//24 26//24 16//24
