# Blender v2.76 (sub 0) OBJ File: 'border.blend'
# www.blender.org
mtllib border.mtl
o Cube.001
v 200.000000 0.000033 -200.000000
v 200.000000 -0.000033 200.000000
v -200.000000 -0.000033 200.000000
v -220.000000 -0.000033 200.000000
v -200.000000 0.000033 -200.000000
v 220.000000 -0.000033 200.000000
v 220.000000 0.000033 -200.000000
v 200.000000 -0.000033 220.000000
v -200.000000 -0.000033 220.000000
v 200.000000 99.999969 200.000000
v 200.000000 99.999962 220.000000
v -200.000000 99.999969 200.000000
v -200.000000 99.999962 220.000000
v 200.000000 99.999969 200.000015
v 220.000000 99.999969 200.000015
v 200.000000 100.000031 -199.999985
v 220.000000 100.000031 -199.999985
v 200.000000 0.000033 -200.000000
v -200.000000 0.000033 -200.000000
v -220.000000 0.000033 -200.000000
v -200.000000 100.000031 -199.999985
v -220.000000 100.000031 -199.999985
v -200.000000 99.999969 200.000015
v -220.000000 99.999969 200.000015
v 200.000000 100.000038 -219.999985
v -200.000000 100.000038 -219.999985
v 200.000000 0.000033 -200.000000
v 200.000000 0.000036 -220.000000
v -200.000000 0.000033 -200.000000
v -200.000000 0.000036 -220.000000
v 59.636627 100.000031 -199.999985
v -73.696701 100.000031 -199.999985
v 59.636627 100.000038 -219.999985
v -73.696701 100.000038 -219.999985
v 59.636627 0.000033 -200.000000
v -73.696701 0.000033 -200.000000
v 59.636627 0.000036 -220.000000
v -73.696701 0.000036 -220.000000
v 200.000000 -0.000011 66.506378
v 200.000000 0.000011 -66.826950
v 220.000000 -0.000011 66.506378
v 220.000000 0.000011 -66.826950
v 200.000000 99.999992 66.506393
v 200.000000 100.000008 -66.826935
v 220.000000 99.999992 66.506393
v 220.000000 100.000008 -66.826935
v 71.366447 -0.000033 200.000000
v -61.966877 -0.000033 200.000000
v 71.366447 -0.000033 220.000000
v -61.966877 -0.000033 220.000000
v 71.366447 99.999969 200.000000
v -61.966877 99.999969 200.000000
v 71.366447 99.999962 220.000000
v -61.966877 99.999962 220.000000
v -200.000000 0.000011 -67.175110
v -200.000000 -0.000011 66.158218
v -220.000000 0.000011 -67.175110
v -220.000000 -0.000011 66.158218
v -200.000000 100.000008 -67.175095
v -200.000000 99.999992 66.158234
v -220.000000 100.000008 -67.175095
v -220.000000 99.999992 66.158234
vn 0.000000 -1.000000 0.000000
vn 0.000000 1.000000 0.000000
vn -1.000000 0.000000 0.000000
vn 0.000000 0.000000 -1.000000
vn 1.000000 0.000000 0.000000
vn 0.000000 0.000000 1.000000
usemtl Material.002
s off
f 9//1 3//1 48//1
f 52//2 12//2 13//2
f 3//3 9//3 13//3
f 3//4 12//4 52//4
f 2//5 10//5 11//5
f 8//6 11//6 53//6
f 40//1 1//1 7//1
f 17//2 16//2 44//2
f 1//4 16//4 17//4
f 6//6 15//6 14//6
f 7//5 17//5 46//5
f 2//3 14//3 43//3
f 56//1 3//1 4//1
f 24//2 23//2 60//2
f 19//5 21//5 59//5
f 3//6 23//6 24//6
f 20//4 22//4 21//4
f 4//3 24//3 62//3
f 26//2 21//2 32//2
f 36//1 29//1 30//1
f 21//6 29//6 36//6
f 16//5 27//5 28//5
f 25//4 28//4 37//4
f 26//3 30//3 29//3
f 34//4 38//4 30//4
f 33//4 37//4 38//4
f 31//6 35//6 27//6
f 32//6 36//6 35//6
f 27//1 35//1 37//1
f 35//1 36//1 38//1
f 33//2 31//2 16//2
f 34//2 32//2 31//2
f 40//3 44//3 16//3
f 40//3 39//3 43//3
f 41//5 45//5 15//5
f 42//5 46//5 45//5
f 45//2 43//2 14//2
f 46//2 44//2 43//2
f 2//1 39//1 41//1
f 39//1 40//1 42//1
f 50//6 54//6 13//6
f 49//6 53//6 54//6
f 47//4 51//4 10//4
f 48//4 52//4 51//4
f 10//2 51//2 53//2
f 51//2 52//2 54//2
f 49//1 47//1 2//1
f 50//1 48//1 47//1
f 57//3 61//3 22//3
f 57//3 58//3 62//3
f 56//5 60//5 23//5
f 55//5 59//5 60//5
f 61//2 59//2 21//2
f 62//2 60//2 59//2
f 19//1 55//1 57//1
f 55//1 56//1 58//1
f 50//1 9//1 48//1
f 54//2 52//2 13//2
f 12//3 3//3 13//3
f 48//4 3//4 52//4
f 8//5 2//5 11//5
f 49//6 8//6 53//6
f 42//1 40//1 7//1
f 46//2 17//2 44//2
f 7//4 1//4 17//4
f 2//6 6//6 14//6
f 42//5 7//5 46//5
f 39//3 2//3 43//3
f 58//1 56//1 4//1
f 62//2 24//2 60//2
f 55//5 19//5 59//5
f 4//6 3//6 24//6
f 19//4 20//4 21//4
f 58//3 4//3 62//3
f 34//2 26//2 32//2
f 38//1 36//1 30//1
f 32//6 21//6 36//6
f 25//5 16//5 28//5
f 33//4 25//4 37//4
f 21//3 26//3 29//3
f 26//4 34//4 30//4
f 34//4 33//4 38//4
f 16//6 31//6 27//6
f 31//6 32//6 35//6
f 28//1 27//1 37//1
f 37//1 35//1 38//1
f 25//2 33//2 16//2
f 33//2 34//2 31//2
f 1//3 40//3 16//3
f 44//3 40//3 43//3
f 6//5 41//5 15//5
f 41//5 42//5 45//5
f 15//2 45//2 14//2
f 45//2 46//2 43//2
f 6//1 2//1 41//1
f 41//1 39//1 42//1
f 9//6 50//6 13//6
f 50//6 49//6 54//6
f 2//4 47//4 10//4
f 47//4 48//4 51//4
f 11//2 10//2 53//2
f 53//2 51//2 54//2
f 8//1 49//1 2//1
f 49//1 50//1 47//1
f 20//3 57//3 22//3
f 61//3 57//3 62//3
f 3//5 56//5 23//5
f 56//5 55//5 60//5
f 22//2 61//2 21//2
f 61//2 62//2 59//2
f 20//1 19//1 57//1
f 57//1 55//1 58//1
