# Blender v2.76 (sub 0) OBJ File: 'flatTrack.blend'
# www.blender.org
mtllib flatTrack.mtl
o Cube
v -200.000000 0.000000 200.000000
v 200.000000 0.000000 200.000000
v -200.000000 0.000000 -200.000000
v 200.000000 0.000000 -200.000000
v -200.000000 20.000000 200.000000
v 200.000000 20.000000 200.000000
v -200.000000 20.000000 -200.000000
v 200.000000 20.000000 -200.000000
v -200.000000 0.000000 91.889824
v 200.000000 0.000000 91.889824
v -200.000000 20.000000 91.889824
v 200.000000 20.000000 91.889824
v 200.000000 0.000000 -69.856659
v 200.000000 20.000000 -69.856659
v -200.000000 0.000000 -69.856659
v -200.000000 20.000000 -69.856659
v 114.133156 0.000000 200.000000
v 114.133156 0.000000 -200.000000
v 114.133156 20.000000 200.000000
v 114.133156 20.000000 -200.000000
v 114.133156 20.000000 91.889824
v 114.133156 0.000000 91.889824
v 114.133156 20.000000 -69.856659
v 114.133156 0.000000 -69.856659
v -79.229637 0.000000 -200.000000
v -79.229637 20.000000 -200.000000
v -79.229637 20.000000 91.889824
v -79.229637 20.000000 -69.856659
v -79.229645 0.000000 200.000000
v -79.229645 20.000000 200.000000
v -79.229645 0.000000 91.889824
v -79.229645 0.000000 -69.856659
v 14.017359 0.000000 200.000000
v 14.017359 35.921520 200.000000
v 14.017359 0.000000 91.889824
v 14.017361 0.000000 -69.856659
v 14.017366 0.000000 -200.000000
v 14.017366 35.921520 -200.000000
v 14.017366 35.921520 91.889824
v 14.017366 35.921520 -69.856659
v 114.133156 120.000000 -69.856659
v 114.133156 120.000000 91.889824
v -200.000000 20.000000 7.522020
v -200.000000 0.000000 7.522020
v -79.229637 120.000000 -69.856659
v -79.229637 120.000000 91.889824
v 200.000000 0.000000 7.522013
v 200.000000 20.000000 7.522013
v 114.133156 0.000000 7.522020
v 114.133156 20.000000 7.522013
v -79.229637 20.000000 7.522013
v -79.229645 0.000000 7.522020
v 14.017360 0.000000 7.522020
v -79.229637 120.000000 7.522013
v 114.133156 120.000000 7.522013
v -200.000000 20.000000 -31.167320
v -79.229637 20.000000 -31.167322
vn 0.000000 -1.000000 0.000000
vn 0.000000 1.000000 0.000000
vn 0.000000 0.000000 1.000000
vn 1.000000 0.000000 0.000000
vn -1.000000 0.000000 0.000000
vn 0.000000 0.000000 -1.000000
vn 0.157100 0.987600 0.000000
vn -0.168300 0.985700 0.000000
usemtl Material
s off
f 18//1 4//1 13//1
f 14//2 8//2 20//2
f 2//3 6//3 19//3
f 4//4 8//4 14//4
f 1//5 5//5 11//5
f 3//6 7//6 26//6
f 9//5 11//5 43//5
f 10//4 12//4 6//4
f 6//2 12//2 21//2
f 22//1 10//1 2//1
f 15//5 16//5 7//5
f 13//4 14//4 48//4
f 48//2 14//2 23//2
f 24//1 13//1 47//1
f 36//1 24//1 49//1
f 35//1 22//1 17//1
f 18//6 20//6 8//6
f 33//3 17//3 19//3
f 37//1 18//1 24//1
f 3//1 25//1 32//1
f 28//2 26//2 7//2
f 29//3 30//3 5//3
f 30//2 27//2 11//2
f 9//1 31//1 29//1
f 16//2 56//2 57//2
f 15//1 32//1 52//1
f 37//6 25//6 26//6
f 37//6 38//6 20//6
f 25//1 37//1 36//1
f 33//3 34//3 30//3
f 31//1 35//1 33//1
f 32//1 36//1 53//1
f 39//6 21//6 27//6
f 40//3 28//3 23//3
f 52//1 53//1 35//1
f 44//1 52//1 31//1
f 27//2 51//2 43//2
f 53//1 49//1 22//1
f 49//1 47//1 10//1
f 12//2 48//2 50//2
f 47//4 48//4 12//4
f 44//5 56//5 15//5
f 24//1 18//1 13//1
f 23//2 14//2 20//2
f 17//3 2//3 19//3
f 13//4 4//4 14//4
f 9//5 1//5 11//5
f 25//6 3//6 26//6
f 44//5 9//5 43//5
f 2//4 10//4 6//4
f 19//2 6//2 21//2
f 17//1 22//1 2//1
f 3//5 15//5 7//5
f 47//4 13//4 48//4
f 50//2 48//2 23//2
f 49//1 24//1 47//1
f 53//1 36//1 49//1
f 33//1 35//1 17//1
f 4//6 18//6 8//6
f 34//3 33//3 19//3
f 36//1 37//1 24//1
f 15//1 3//1 32//1
f 16//2 28//2 7//2
f 1//3 29//3 5//3
f 5//2 30//2 11//2
f 1//1 9//1 29//1
f 28//2 16//2 57//2
f 44//1 15//1 52//1
f 38//6 37//6 26//6
f 18//6 37//6 20//6
f 32//1 25//1 36//1
f 29//3 33//3 30//3
f 29//1 31//1 33//1
f 52//1 32//1 53//1
f 31//1 52//1 35//1
f 9//1 44//1 31//1
f 11//2 27//2 43//2
f 35//1 53//1 22//1
f 22//1 49//1 10//1
f 21//2 12//2 50//2
f 10//4 47//4 12//4
f 16//5 15//5 56//5
f 44//5 43//5 56//5
usemtl Material.001
f 23//7 20//7 38//7
f 40//8 38//8 26//8
f 40//7 23//7 38//7
f 28//8 40//8 26//8
usemtl Material.002
f 19//7 21//7 39//7
f 34//8 39//8 27//8
f 34//7 19//7 39//7
f 30//8 34//8 27//8
usemtl Material.003
f 43//2 51//2 57//2
f 56//2 43//2 57//2
usemtl Material.004
f 45//2 54//2 55//2
f 28//6 45//6 41//6
f 27//5 46//5 54//5
f 23//4 41//4 55//4
f 54//2 46//2 42//2
f 21//3 42//3 46//3
f 50//4 55//4 42//4
f 57//5 54//5 45//5
f 41//2 45//2 55//2
f 23//6 28//6 41//6
f 51//5 27//5 54//5
f 50//4 23//4 55//4
f 55//2 54//2 42//2
f 27//3 21//3 46//3
f 21//4 50//4 42//4
f 45//5 28//5 57//5
f 57//5 51//5 54//5
