# Blender v2.76 (sub 0) OBJ File: 'healthCross.blend'
# www.blender.org
mtllib healthCross.mtl
o Cube
v 0.711656 -1.000000 -1.000000
v 0.711656 -1.000000 1.000000
v -0.711656 -1.000000 1.000000
v -0.711656 -1.000000 -1.000000
v 0.711656 1.000000 -0.999999
v 0.711655 1.000000 1.000001
v -0.711656 1.000000 1.000000
v -0.711656 1.000000 -1.000000
v 0.711656 3.000000 -0.999999
v 0.711655 3.000000 1.000001
v -0.711656 3.000000 -1.000000
v -0.711656 3.000000 1.000000
v 0.711656 -1.000000 -3.000000
v -0.711655 -1.000000 -3.000000
v 0.711657 1.000000 -3.000000
v -0.711655 1.000000 -3.000000
v 0.711656 -3.000000 -1.000000
v 0.711656 -3.000000 1.000000
v -0.711656 -3.000000 -1.000000
v -0.711656 -3.000000 1.000000
v 0.711655 -1.000000 3.000000
v -0.711657 -1.000000 3.000000
v 0.711655 1.000000 3.000000
v -0.711657 1.000000 3.000000
v 0.514934 -1.234393 -1.162519
v -0.514934 -1.234393 -1.162519
v 0.514934 -1.234393 1.162519
v -0.514934 -1.234393 1.162519
v 0.514934 1.193524 -1.162518
v -0.514934 1.193524 -1.162519
v 0.514934 1.193524 1.162519
v -0.514934 1.193524 1.162518
v 0.514934 3.307588 -1.162518
v 0.514934 3.307588 1.162519
v -0.514934 3.307588 -1.162519
v -0.514934 3.307588 1.162518
v 0.514934 -1.234392 -3.256020
v -0.514934 -1.234392 -3.256021
v 0.514934 1.193524 -3.256020
v -0.514934 1.193524 -3.256020
v 0.514934 -3.307588 -1.162519
v 0.514934 -3.307588 1.162519
v -0.514934 -3.307588 -1.162519
v -0.514934 -3.307588 1.162519
v 0.514934 -1.234393 3.256020
v -0.514934 -1.234393 3.256020
v 0.514933 1.193524 3.256021
v -0.514935 1.193524 3.256020
vn -0.766000 -0.642900 -0.000000
vn 0.701300 0.712900 0.000000
vn 0.636900 0.000000 0.770900
vn -0.636900 0.000000 -0.770900
vn 0.766000 -0.642900 -0.000000
vn -0.842400 -0.538800 -0.000000
vn -0.636900 0.000000 0.770900
vn -0.792900 -0.000000 0.609300
vn -0.842400 0.538800 -0.000000
vn 0.792900 -0.000000 0.609300
vn -0.792900 0.000000 -0.609300
vn 0.792900 0.000000 -0.609300
vn 0.000000 1.000000 0.000000
vn 0.000000 0.000000 -1.000000
vn -0.000000 0.000000 1.000000
vn 0.000000 -1.000000 -0.000000
vn 0.636900 0.000000 -0.770900
vn -0.701300 0.712900 0.000000
vn 0.842400 0.538800 0.000000
vn 0.842400 -0.538800 0.000000
vn 1.000000 0.000000 0.000000
vn -1.000000 0.000000 -0.000000
usemtl Material
s off
f 22//1 3//1 28//1 46//1
f 5//2 15//2 39//2 29//2
f 18//3 2//3 27//3 42//3
f 8//4 11//4 35//4 30//4
f 13//5 1//5 25//5 37//5
f 20//6 19//6 43//6 44//6
f 12//7 7//7 32//7 36//7
f 24//8 22//8 46//8 48//8
f 11//9 12//9 36//9 35//9
f 21//10 23//10 47//10 45//10
f 14//11 16//11 40//11 38//11
f 15//12 13//12 37//12 39//12
f 33//13 35//13 36//13 34//13
f 29//14 30//14 35//14 33//14
f 32//15 31//15 34//15 36//15
f 39//14 37//14 38//14 40//14
f 30//13 29//13 39//13 40//13
f 25//16 26//16 38//16 37//16
f 41//16 42//16 44//16 43//16
f 27//15 28//15 44//15 42//15
f 26//14 25//14 41//14 43//14
f 45//15 47//15 48//15 46//15
f 28//16 27//16 45//16 46//16
f 31//13 32//13 48//13 47//13
f 9//17 5//17 29//17 33//17
f 1//17 17//17 41//17 25//17
f 16//18 8//18 30//18 40//18
f 7//18 24//18 48//18 32//18
f 6//3 10//3 34//3 31//3
f 19//4 4//4 26//4 43//4
f 10//19 9//19 33//19 34//19
f 4//1 14//1 38//1 26//1
f 23//2 6//2 31//2 47//2
f 3//7 20//7 44//7 28//7
f 17//20 18//20 42//20 41//20
f 2//5 21//5 45//5 27//5
usemtl Material.001
f 1//21 2//21 18//21 17//21
f 8//22 7//22 12//22 11//22
f 1//21 5//21 6//21 2//21
f 7//22 3//22 22//22 24//22
f 3//22 7//22 8//22 4//22
f 5//21 1//21 13//21 15//21
f 6//21 5//21 9//21 10//21
f 4//22 8//22 16//22 14//22
f 3//22 4//22 19//22 20//22
f 2//21 6//21 23//21 21//21
