#
#
#

mtllib loadingBox.mtl


#
#  Mesh
#
g  Mesh


#
#  Mesh_Material.001
#
usemtl  Mesh_Material.001

v 3.999883 1.000000 -1.000468
v 4.000117 1.000000 0.999532
v 4.000117 -1.000000 0.999531
v 3.999883 -1.000000 -1.000469
v -3.999883 1.000000 1.000469
v -3.999883 -1.000000 1.000468
v -3.839857 -0.799994 1.000450
v -3.839858 0.799995 1.000450
v 3.840092 0.799995 0.999550
v -4.000117 1.000000 -0.999531
v -4.000117 -1.000000 -0.999532
v 3.840092 -0.799994 0.999550
v -3.840092 0.799995 -0.999550
v -3.840092 -0.799994 -0.999550
v 3.839857 -0.799994 -1.000450
v 3.839857 0.799995 -1.000450
vn 1.000000 0.000000 -0.000117
vn 0.000117 -0.000000 1.000000
vn -1.000000 0.000000 0.000117
vn 0.000000 -1.000000 -0.000000
vn 0.000000 1.000000 0.000000
vn -0.000117 0.000000 -1.000000
f 1//1 2//1 3//1 4//1
f 2//2 5//2 6//2 7//2 8//2 9//2
f 5//3 10//3 11//3 6//3
f 11//4 4//4 3//4 6//4
f 5//5 2//5 1//5 10//5
f 3//2 2//2 9//2 12//2 7//2 6//2
f 11//6 10//6 13//6 14//6 15//6 4//6
f 10//6 1//6 4//6 15//6 16//6 13//6
f 7//5 12//5 15//5 14//5
f 9//4 8//4 13//4 16//4
f 8//1 7//1 14//1 13//1
f 9//3 16//3 15//3 12//3
