# Blender v2.76 (sub 0) OBJ File: 'P1.blend'
# www.blender.org
mtllib P1.mtl
o Text_Mesh.003
v 0.370000 3.430427 0.154417
v 0.272000 3.430427 0.154417
v 0.272000 2.748426 0.154417
v 0.370000 2.748426 0.154417
v -0.370000 3.430427 0.154417
v -0.370000 2.748426 0.154417
v -0.272000 2.748426 0.154417
v -0.272000 3.043427 0.154417
v 0.021487 3.117068 0.154417
v -0.011997 3.389512 0.154417
v -0.272000 3.342427 0.154417
v -0.051296 3.287612 0.154417
v -0.044819 3.206889 0.154417
v -0.161000 3.131427 0.154417
v -0.272000 3.131427 0.154417
v 0.060000 3.234426 0.014262
v -0.370000 3.430427 0.014262
v 0.021487 3.117068 0.014262
v -0.272000 3.043427 0.014262
v -0.370000 2.748426 0.014262
v -0.272000 2.748426 0.014262
v 0.058492 3.208191 0.014262
v -0.041967 3.222036 0.014262
v -0.272000 3.131427 0.014262
v -0.041583 3.250976 0.014262
v -0.272000 3.342427 0.014262
v 0.272000 2.748426 0.014262
v 0.370000 2.748426 0.014262
v 0.370000 3.430427 0.014262
v -0.044819 3.206889 0.014262
v -0.011997 3.389512 0.014262
v 0.272000 3.430427 0.014262
vn 0.000000 -0.000000 -1.000000
vn -0.000000 0.000000 1.000000
vn -0.973600 -0.119700 -0.194500
vn 0.312800 -0.941700 -0.123900
vn 1.000000 0.000000 0.000000
vn -0.113500 -0.993500 0.000000
vn -1.000000 0.000000 0.000000
vn 0.510100 0.855100 -0.093000
vn 0.000000 -1.000000 0.000000
vn 0.000000 1.000000 0.000000
vn -0.243400 0.969900 0.000000
usemtl Material.005
s off
f 10//1 9//1 8//1 14//1 13//1 12//1 11//1 15//1 6//1 5//1
f 1//1 4//1 3//1 2//1
f 8//1 7//1 6//1 15//1 14//1
f 16//2 25//2 23//2 22//2
f 16//2 31//2 17//2 20//2 21//2 19//2 18//2 22//2 23//2 30//2 24//2 26//2 25//2
f 27//2 28//2 29//2 32//2
f 10//3 31//3 16//3 22//3 18//3 9//3
f 14//4 15//4 24//4 30//4 13//4
f 2//5 3//5 27//5 32//5
f 5//6 17//6 31//6 10//6
f 7//7 8//7 19//7 21//7
f 11//8 12//8 13//8 30//8 23//8 25//8 26//8
f 1//9 2//9 32//9 29//9
f 15//7 11//7 26//7 24//7
f 3//10 4//10 28//10 27//10
f 9//11 18//11 19//11 8//11
f 6//10 7//10 21//10 20//10
f 4//7 1//7 29//7 28//7
f 5//5 6//5 20//5 17//5
o Circle
v -1.000000 3.054186 -0.000000
v -0.923880 3.436869 -0.000000
v -0.831470 3.609756 -0.000000
v -0.555570 3.885655 -0.000000
v -0.382683 3.978065 -0.000000
v -0.000000 4.054186 -0.000000
v 0.195090 4.034971 0.000000
v 0.555570 3.885656 0.000000
v 0.831470 3.609756 0.000000
v 0.923880 3.436869 0.000000
v 1.000000 3.054186 0.000000
v 0.980785 2.859095 0.000000
v 0.831469 2.498615 0.000000
v 0.707106 2.347079 0.000000
v 0.382683 2.130306 0.000000
v -0.000001 2.054186 -0.000000
v -0.195091 2.073401 -0.000000
v -0.555571 2.222717 -0.000000
v -0.831470 2.498617 -0.000000
v -0.923880 2.671504 -0.000000
v -0.923880 3.436869 -0.378611
v -1.000000 3.054186 -0.378611
v -0.831470 3.609756 -0.378611
v -0.555570 3.885655 -0.378611
v -0.382683 3.978065 -0.378611
v -0.000000 4.054186 -0.378611
v 0.195090 4.034971 -0.378611
v 0.555570 3.885656 -0.378611
v 0.831470 3.609756 -0.378611
v 0.923880 3.436869 -0.378611
v 1.000000 3.054186 -0.378611
v 0.980785 2.859095 -0.378611
v 0.831469 2.498615 -0.378611
v 0.707106 2.347079 -0.378611
v 0.382683 2.130306 -0.378611
v -0.000001 2.054186 -0.378611
v -0.195091 2.073401 -0.378611
v -0.555571 2.222717 -0.378611
v -0.831470 2.498617 -0.378611
v -0.923880 2.671504 -0.378611
vn -0.000000 -0.000000 1.000000
vn 0.000000 -0.000000 -1.000000
vn 0.995200 -0.098000 0.000000
vn -0.471400 0.881900 0.000000
vn -0.881900 -0.471400 0.000000
vn 0.923900 -0.382700 0.000000
vn -0.195100 0.980800 0.000000
vn -0.980800 -0.195100 0.000000
vn 0.773000 -0.634400 0.000000
vn 0.098000 0.995200 0.000000
vn 0.555600 -0.831500 0.000000
vn 0.382700 0.923900 0.000000
vn 0.195100 -0.980800 0.000000
vn 0.707100 0.707100 0.000000
vn -0.980800 0.195100 0.000000
vn -0.098000 -0.995200 0.000000
vn 0.881900 0.471400 0.000000
vn -0.881900 0.471400 0.000000
vn -0.382700 -0.923900 0.000000
vn 0.980800 0.195100 0.000000
vn -0.707100 0.707100 0.000000
vn -0.707100 -0.707100 0.000000
usemtl Material.006
s off
f 34//12 33//12 52//12 51//12 50//12 49//12 48//12 47//12 46//12 45//12 44//12 43//12 42//12 41//12 40//12 39//12 38//12 37//12 36//12 35//12
f 53//13 55//13 56//13 57//13 58//13 59//13 60//13 61//13 62//13 63//13 64//13 65//13 66//13 67//13 68//13 69//13 70//13 71//13 72//13 54//13
f 43//14 44//14 64//14 63//14
f 36//15 37//15 57//15 56//15
f 51//16 52//16 72//16 71//16
f 44//17 45//17 65//17 64//17
f 37//18 38//18 58//18 57//18
f 52//19 33//19 54//19 72//19
f 45//20 46//20 66//20 65//20
f 38//21 39//21 59//21 58//21
f 46//22 47//22 67//22 66//22
f 39//23 40//23 60//23 59//23
f 47//24 48//24 68//24 67//24
f 40//25 41//25 61//25 60//25
f 33//26 34//26 53//26 54//26
f 48//27 49//27 69//27 68//27
f 41//28 42//28 62//28 61//28
f 34//29 35//29 55//29 53//29
f 49//30 50//30 70//30 69//30
f 42//31 43//31 63//31 62//31
f 35//32 36//32 56//32 55//32
f 50//33 51//33 71//33 70//33
