# Blender v2.76 (sub 0) OBJ File: 'Player4.blend'
# www.blender.org
mtllib Player4.mtl
o Cube.001
v 0.723380 0.691000 -0.000000
v 0.681380 0.691000 -0.000000
v 0.336380 0.269000 -0.000000
v 0.336380 0.224000 -0.000000
v 0.625380 0.224000 -0.000000
v 0.625380 0.000000 0.000000
v 0.723380 0.000000 0.000000
v 0.723380 0.224000 -0.000000
v 0.796380 0.224000 -0.000000
v 0.796380 0.312000 -0.000000
v 0.723380 0.312000 -0.000000
v 0.623380 0.506000 -0.000000
v 0.625380 0.506000 -0.000000
v 0.625380 0.312000 -0.000000
v 0.467380 0.312000 -0.000000
v -0.114620 0.682000 -0.000000
v -0.114620 0.000000 0.000000
v -0.016620 0.000000 0.000000
v -0.016620 0.295000 -0.000000
v 0.085380 0.295000 -0.000000
v 0.123096 0.296715 -0.000000
v 0.157278 0.301718 -0.000000
v 0.187974 0.309797 -0.000000
v 0.215232 0.320741 -0.000000
v 0.239101 0.334337 -0.000000
v 0.259630 0.350375 -0.000000
v 0.276867 0.368642 -0.000000
v 0.290861 0.388926 -0.000000
v 0.301661 0.411016 -0.000000
v 0.309315 0.434699 -0.000000
v 0.313872 0.459765 -0.000000
v 0.315380 0.486000 -0.000000
v 0.313956 0.512544 -0.000000
v 0.309653 0.538019 -0.000000
v 0.302427 0.562188 -0.000000
v 0.292232 0.584815 -0.000000
v 0.279023 0.605664 -0.000000
v 0.262755 0.624500 -0.000000
v 0.243383 0.641086 -0.000000
v 0.220862 0.655185 -0.000000
v 0.195146 0.666563 -0.000000
v 0.166190 0.674982 -0.000000
v 0.133950 0.680206 -0.000000
v 0.098380 0.682000 -0.000000
v -0.016620 0.594000 -0.000000
v 0.098380 0.594000 -0.000000
v 0.119359 0.592909 -0.000000
v 0.137875 0.589769 -0.000000
v 0.154052 0.584781 -0.000000
v 0.168010 0.578148 -0.000000
v 0.179870 0.570071 -0.000000
v 0.189755 0.560750 -0.000000
v 0.197786 0.550388 -0.000000
v 0.204084 0.539185 -0.000000
v 0.208771 0.527344 -0.000000
v 0.211968 0.515065 -0.000000
v 0.213797 0.502550 -0.000000
v 0.214380 0.490000 -0.000000
v 0.213413 0.473610 -0.000000
v 0.210561 0.458463 -0.000000
v 0.205896 0.444594 -0.000000
v 0.199491 0.432037 -0.000000
v 0.191420 0.420828 -0.000000
v 0.181755 0.411000 -0.000000
v 0.170569 0.402589 -0.000000
v 0.157936 0.395630 -0.000000
v 0.143927 0.390156 -0.000000
v 0.128616 0.386204 -0.000000
v 0.112076 0.383807 -0.000000
v 0.094380 0.383000 -0.000000
v -0.016620 0.383000 -0.000000
v 0.259630 0.350375 0.100000
v 0.276867 0.368642 0.100000
v 0.309653 0.538019 0.100000
v 0.208771 0.527344 0.100000
v 0.625380 0.506000 0.100000
v 0.625380 0.312000 0.100000
v 0.143927 0.390156 0.100000
v 0.128616 0.386204 0.100000
v 0.191420 0.420828 0.100000
v 0.181755 0.411000 0.100000
v 0.313956 0.512544 0.100000
v 0.336380 0.269000 0.100000
v 0.623380 0.506000 0.100000
v 0.796380 0.312000 0.100000
v 0.189755 0.560750 0.100000
v 0.197786 0.550388 0.100000
v 0.302427 0.562188 0.100000
v 0.179870 0.570071 0.100000
v 0.309315 0.434699 0.100000
v 0.313872 0.459765 0.100000
v 0.279023 0.605664 0.100000
v 0.262755 0.624500 0.100000
v 0.723380 0.691000 0.100000
v 0.168010 0.578148 0.100000
v 0.133950 0.680206 0.100000
v -0.016620 0.594000 0.100000
v 0.123096 0.296715 0.100000
v 0.157278 0.301718 0.100000
v 0.625380 0.224000 0.100000
v 0.723380 0.224000 0.100000
v 0.243383 0.641086 0.100000
v 0.220862 0.655185 0.100000
v 0.098380 0.594000 0.100000
v 0.625380 0.000000 0.100000
v 0.187974 0.309797 0.100000
v 0.215232 0.320741 0.100000
v 0.315380 0.486000 0.100000
v 0.213797 0.502550 0.100000
v 0.195146 0.666563 0.100000
v 0.098380 0.682000 0.100000
v 0.166190 0.674982 0.100000
v 0.290861 0.388926 0.100000
v 0.170569 0.402589 0.100000
v 0.292232 0.584815 0.100000
v 0.210561 0.458463 0.100000
v 0.205896 0.444594 0.100000
v 0.213413 0.473610 0.100000
v -0.114620 0.682000 0.100000
v 0.723380 0.000000 0.100000
v -0.016620 0.295000 0.100000
v 0.085380 0.295000 0.100000
v 0.157936 0.395630 0.100000
v 0.723380 0.312000 0.100000
v 0.467380 0.312000 0.100000
v 0.214380 0.490000 0.100000
v 0.119359 0.592909 0.100000
v -0.016620 0.383000 0.100000
v 0.094380 0.383000 0.100000
v 0.336380 0.224000 0.100000
v 0.301661 0.411016 0.100000
v 0.199491 0.432037 0.100000
v 0.154052 0.584781 0.100000
v -0.114620 0.000000 0.100000
v -0.016620 0.000000 0.100000
v 0.137875 0.589769 0.100000
v 0.204084 0.539185 0.100000
v 0.112076 0.383807 0.100000
v 0.681380 0.691000 0.100000
v 0.211968 0.515065 0.100000
v 0.239101 0.334337 0.100000
v 0.796380 0.224000 0.100000
vn 0.000000 -0.000000 -1.000000
vn 0.000000 0.000000 1.000000
vn -0.429200 -0.903200 0.000000
vn 0.986000 0.166500 0.000000
vn -0.774200 0.632900 0.000000
vn 0.958100 0.286500 0.000000
vn 0.000000 -1.000000 0.000000
vn 1.000000 0.000000 0.000000
vn 0.000000 1.000000 0.000000
vn -1.000000 0.000000 0.000000
vn 0.727300 -0.686300 0.000000
vn 0.254500 -0.967100 0.000000
vn 0.160000 0.987100 0.000000
vn -0.982700 0.185100 0.000000
vn 0.615600 -0.788000 0.000000
vn -0.811500 0.584300 0.000000
vn 0.998600 0.053600 0.000000
vn 0.898400 -0.439200 0.000000
vn -0.250000 0.968300 0.000000
vn 0.045400 -0.999000 0.000000
vn -0.686000 -0.727600 0.000000
vn 0.911700 0.410800 0.000000
vn -0.713000 0.701200 0.000000
vn -0.363900 0.931400 0.000000
vn -0.167200 -0.985900 0.000000
vn -0.947800 0.318800 0.000000
vn 0.404600 0.914500 0.000000
vn 0.823100 -0.567900 0.000000
vn -0.989500 -0.144600 0.000000
vn -0.790400 -0.612600 0.000000
vn -0.045500 0.999000 0.000000
vn -0.294600 -0.955600 0.000000
vn -0.890800 0.454400 0.000000
vn -0.482500 0.875900 0.000000
vn 0.983900 -0.178900 0.000000
vn 0.279200 0.960200 0.000000
vn 0.756800 0.653600 0.000000
vn -0.871700 -0.490100 0.000000
vn -0.929800 -0.368000 0.000000
vn 0.779300 -0.626700 0.000000
vn -0.562900 -0.826500 0.000000
vn 0.951500 -0.307500 0.000000
vn -0.143400 0.989700 0.000000
vn -0.998300 0.058900 0.000000
vn 0.144800 -0.989500 0.000000
vn 0.495000 -0.868900 0.000000
vn 0.650400 0.759600 0.000000
vn -0.052000 -0.998600 0.000000
vn 0.530600 0.847600 0.000000
vn 0.050400 0.998700 0.000000
vn -0.967700 -0.252000 0.000000
vn 0.998400 -0.057400 0.000000
vn 0.844700 0.535200 0.000000
vn -0.601000 0.799300 0.000000
vn 0.372600 -0.928000 0.000000
vn -0.998900 -0.046400 0.000000
usemtl Material.001
s off
f 3//1 2//1 1//1
f 3//1 1//1 12//1
f 12//1 1//1 13//1
f 13//1 1//1 11//1
f 3//1 12//1 15//1
f 14//1 13//1 11//1
f 3//1 15//1 14//1
f 3//1 14//1 11//1
f 3//1 11//1 10//1
f 3//1 10//1 9//1
f 4//1 3//1 9//1
f 5//2 4//2 9//2
f 6//1 5//1 8//1
f 8//2 5//2 9//2
f 6//1 8//1 7//1
f 17//1 16//1 45//1
f 45//1 16//1 44//1
f 45//1 44//1 43//1
f 45//1 43//1 42//1
f 45//1 42//1 41//1
f 45//1 41//1 40//1
f 45//1 40//1 39//1
f 45//1 39//1 38//1
f 45//1 38//1 37//1
f 45//1 37//1 46//1
f 46//1 37//1 36//1
f 17//1 45//1 71//1
f 47//1 46//1 36//1
f 48//1 47//1 36//1
f 49//1 48//1 36//1
f 49//1 36//1 35//1
f 50//1 49//1 35//1
f 51//1 50//1 35//1
f 52//1 51//1 35//1
f 52//1 35//1 34//1
f 53//1 52//1 34//1
f 54//1 53//1 34//1
f 55//1 54//1 34//1
f 55//1 34//1 33//1
f 56//1 55//1 33//1
f 57//1 56//1 33//1
f 57//1 33//1 32//1
f 58//1 57//1 32//1
f 59//1 58//1 32//1
f 59//1 32//1 31//1
f 60//1 59//1 31//1
f 60//1 31//1 30//1
f 61//1 60//1 30//1
f 62//1 61//1 30//1
f 62//1 30//1 29//1
f 63//1 62//1 29//1
f 64//1 63//1 29//1
f 64//1 29//1 28//1
f 65//1 64//1 28//1
f 66//1 65//1 28//1
f 67//1 66//1 28//1
f 68//1 67//1 28//1
f 68//1 28//1 27//1
f 69//1 68//1 27//1
f 70//1 69//1 27//1
f 17//1 71//1 19//1
f 19//1 71//1 70//1
f 19//1 70//1 27//1
f 19//1 27//1 26//1
f 19//1 26//1 25//1
f 19//1 25//1 24//1
f 19//1 24//1 23//1
f 19//1 23//1 22//1
f 19//1 22//1 21//1
f 19//1 21//1 20//1
f 17//1 19//1 18//1
f 83//2 94//2 139//2
f 83//2 84//2 94//2
f 84//2 76//2 94//2
f 76//2 124//2 94//2
f 83//2 125//2 84//2
f 77//2 124//2 76//2
f 83//2 77//2 125//2
f 83//2 124//2 77//2
f 83//2 85//2 124//2
f 83//2 142//2 85//2
f 130//2 142//2 83//2
f 100//1 142//1 130//1
f 105//2 101//2 100//2
f 101//2 142//2 100//2
f 105//2 120//2 101//2
f 134//2 97//2 119//2
f 97//2 111//2 119//2
f 97//2 96//2 111//2
f 97//2 112//2 96//2
f 97//2 110//2 112//2
f 97//2 103//2 110//2
f 97//2 102//2 103//2
f 97//2 93//2 102//2
f 97//2 92//2 93//2
f 97//2 104//2 92//2
f 104//2 115//2 92//2
f 134//2 128//2 97//2
f 127//2 115//2 104//2
f 136//2 115//2 127//2
f 133//2 115//2 136//2
f 133//2 88//2 115//2
f 95//2 88//2 133//2
f 89//2 88//2 95//2
f 86//2 88//2 89//2
f 86//2 74//2 88//2
f 87//2 74//2 86//2
f 137//2 74//2 87//2
f 75//2 74//2 137//2
f 75//2 82//2 74//2
f 140//2 82//2 75//2
f 109//2 82//2 140//2
f 109//2 108//2 82//2
f 126//2 108//2 109//2
f 118//2 108//2 126//2
f 118//2 91//2 108//2
f 116//2 91//2 118//2
f 116//2 90//2 91//2
f 117//2 90//2 116//2
f 132//2 90//2 117//2
f 132//2 131//2 90//2
f 80//2 131//2 132//2
f 81//2 131//2 80//2
f 81//2 113//2 131//2
f 114//2 113//2 81//2
f 123//2 113//2 114//2
f 78//2 113//2 123//2
f 79//2 113//2 78//2
f 79//2 73//2 113//2
f 138//2 73//2 79//2
f 129//2 73//2 138//2
f 134//2 121//2 128//2
f 121//2 129//2 128//2
f 121//2 73//2 129//2
f 121//2 72//2 73//2
f 121//2 141//2 72//2
f 121//2 107//2 141//2
f 121//2 106//2 107//2
f 121//2 99//2 106//2
f 121//2 98//2 99//2
f 121//2 122//2 98//2
f 134//2 135//2 121//2
f 49//3 50//3 95//3 133//3
f 33//4 34//4 74//4 82//4
f 2//5 3//5 83//5 139//5
f 34//6 35//6 88//6 74//6
f 45//7 46//7 104//7 97//7
f 71//8 45//8 97//8 128//8
f 10//9 11//9 124//9 85//9
f 5//10 6//10 105//10 100//10
f 26//11 27//11 73//11 72//11
f 22//12 23//12 106//12 99//12
f 42//13 43//13 96//13 112//13
f 9//8 10//8 85//8 142//8
f 59//14 60//14 116//14 118//14
f 13//10 14//10 77//10 76//10
f 8//7 9//7 142//7 101//7
f 25//15 26//15 72//15 141//15
f 62//16 63//16 80//16 132//16
f 32//17 33//17 82//17 108//17
f 28//18 29//18 131//18 113//18
f 67//19 68//19 79//19 78//19
f 20//20 21//20 98//20 122//20
f 51//21 52//21 86//21 89//21
f 35//22 36//22 115//22 88//22
f 63//23 64//23 81//23 80//23
f 66//24 67//24 78//24 123//24
f 47//25 48//25 136//25 127//25
f 16//10 17//10 134//10 119//10
f 17//7 18//7 135//7 134//7
f 60//26 61//26 117//26 116//26
f 18//8 19//8 121//8 135//8
f 40//27 41//27 110//27 103//27
f 27//28 28//28 113//28 73//28
f 56//29 57//29 109//29 140//29
f 52//30 53//30 87//30 86//30
f 7//8 8//8 101//8 120//8
f 69//31 70//31 129//31 138//31
f 48//32 49//32 133//32 136//32
f 19//7 20//7 122//7 121//7
f 61//33 62//33 132//33 117//33
f 6//7 7//7 120//7 105//7
f 65//34 66//34 123//34 114//34
f 30//35 31//35 91//35 90//35
f 41//36 42//36 112//36 110//36
f 11//8 1//8 94//8 124//8
f 37//37 38//37 93//37 92//37
f 53//38 54//38 137//38 87//38
f 54//39 55//39 75//39 137//39
f 14//9 15//9 125//9 77//9
f 15//40 12//40 84//40 125//40
f 50//41 51//41 89//41 95//41
f 29//42 30//42 90//42 131//42
f 68//43 69//43 138//43 79//43
f 58//44 59//44 118//44 126//44
f 21//45 22//45 99//45 98//45
f 44//9 16//9 119//9 111//9
f 1//9 2//9 139//9 94//9
f 24//46 25//46 141//46 107//46
f 38//47 39//47 102//47 93//47
f 46//48 47//48 127//48 104//48
f 39//49 40//49 103//49 102//49
f 4//7 5//7 100//7 130//7
f 43//50 44//50 111//50 96//50
f 55//51 56//51 140//51 75//51
f 31//52 32//52 108//52 91//52
f 12//7 13//7 76//7 84//7
f 36//53 37//53 92//53 115//53
f 64//54 65//54 114//54 81//54
f 70//9 71//9 128//9 129//9
f 23//55 24//55 107//55 106//55
f 3//10 4//10 130//10 83//10
f 57//56 58//56 126//56 109//56
o Cube
v 0.604650 1.064455 -0.000000
v -0.395350 0.064455 0.000000
v 1.604650 0.064455 -0.000000
v 0.604650 -0.935545 0.000000
v 0.604650 0.064455 0.000000
v 1.023249 1.483054 -0.000000
v -0.813950 -0.354145 0.000000
v -0.813950 1.483055 0.000000
v -0.395350 0.064455 -0.100000
v 0.604650 -0.935545 -0.100000
v 0.604650 1.064455 -0.100000
v 1.604650 0.064455 -0.100000
v 0.604650 0.064455 -0.100000
v 1.023249 1.483054 -0.100000
v -0.813950 -0.354145 -0.100000
v -0.813950 1.483055 -0.100000
vn 0.000000 0.000000 1.000000
vn -0.000000 -0.000000 -1.000000
vn 0.000000 1.000000 0.000000
vn 0.707100 -0.707100 0.000000
vn -0.707100 -0.707100 0.000000
vn -1.000000 0.000000 0.000000
vn -0.707100 0.707100 0.000000
vn 0.707100 0.707100 0.000000
usemtl Material
s off
f 146//57 147//57 144//57
f 146//57 145//57 147//57
f 143//57 147//57 145//57
f 144//57 147//57 143//57
f 149//57 148//57 150//57
f 152//58 151//58 155//58
f 152//58 155//58 154//58
f 153//58 154//58 155//58
f 151//58 153//58 155//58
f 157//58 158//58 156//58
f 148//59 156//59 158//59 150//59
f 149//60 157//60 156//60 148//60
f 146//60 152//60 154//60 145//60
f 144//61 151//61 152//61 146//61
f 150//62 158//62 157//62 149//62
f 143//63 153//63 151//63 144//63
f 145//64 154//64 153//64 143//64
