#
#
#

mtllib Quit.mtl


#
#  Mesh
#
g  Mesh


#
#  Mesh_Material.001
#
usemtl  Mesh_Material.001

v -2.770000 2.046676 -0.325754
v 2.768265 2.046678 -0.340184
v 2.768265 0.046678 -0.340184
v -2.770000 0.046676 -0.325754
v 2.768786 2.046678 -0.140185
v 2.768786 0.046678 -0.140185
v -2.769480 2.046676 -0.125755
v -2.769479 0.046676 -0.125755
v 0.369448 1.267082 -0.000963
v 0.324073 1.312459 -0.000844
v 0.383717 1.372105 -0.001000
v 0.429094 1.326728 -0.001118
v -0.115426 0.758290 0.000301
v -0.173415 1.183594 0.000452
v -0.084415 1.183594 0.000220
v -0.052968 0.817692 0.000138
v 0.114584 0.862594 -0.000299
v 0.114584 1.183594 -0.000299
v 0.203584 1.183594 -0.000530
v 0.203584 0.734594 -0.000530
v 0.114584 0.734594 -0.000299
v 0.114584 0.791593 -0.000299
v 0.663049 0.832408 -0.135290
v 0.652235 1.103594 -0.135262
v 0.794234 1.103594 -0.135632
v 0.794234 1.183594 -0.135632
v 0.652235 1.183594 -0.135262
v 0.652234 1.276594 -0.135262
v 0.485235 1.103594 -0.134827
v 0.563235 1.103594 -0.135030
v 0.613057 0.754022 -0.135160
v 0.817234 0.755594 -0.135692
v 0.817234 0.838593 -0.135692
v 0.114236 0.791593 -0.133860
v 0.114236 0.734594 -0.133860
v 0.203236 0.734594 -0.134092
v 0.203236 1.183594 -0.134092
v 0.114236 1.183594 -0.133860
v 0.114236 0.862594 -0.133860
v -0.053316 0.817692 -0.133424
v -0.084763 1.183594 -0.133342
v -0.173763 1.183594 -0.133110
v -0.115774 0.758290 -0.133261
v 0.420583 1.183594 -0.001096
v 0.420583 0.734594 -0.001096
v 0.331584 0.734594 -0.000864
v 0.331584 1.183594 -0.000864
v -0.565376 0.824978 0.001473
v -0.429035 0.916798 0.001118
v -0.313377 0.919482 0.000817
v -0.560413 0.734594 0.001460
v -0.560413 0.735593 0.001460
v -0.555457 0.733594 0.001447
v -0.302414 0.682594 0.000788
v -0.463985 0.595594 0.001209
v -1.011412 1.075593 0.002635
v -0.537988 1.413408 0.001402
v -0.297586 0.955515 0.000775
v -0.411044 0.944186 0.001071
v -0.454716 1.176547 0.001185
v -0.820485 1.115740 0.002138
v -0.698772 0.893344 0.001821
v 0.331236 0.734594 -0.134426
v 0.420235 0.734594 -0.134657
v 0.420235 1.183594 -0.134657
v 0.331236 1.183594 -0.134426
v -0.279930 1.122533 -0.132833
v -0.538336 1.413408 -0.132160
v -1.011760 1.075593 -0.130926
v -0.464333 0.595594 -0.132353
v -0.302762 0.682594 -0.132774
v -0.555805 0.733594 -0.132114
v -0.560761 0.735593 -0.132101
v -0.560761 0.734594 -0.132101
v -0.313725 0.919482 -0.132745
v -0.297934 0.955515 -0.132786
v -0.397012 0.973797 -0.132528
v -0.565724 0.824978 -0.132088
v -0.699120 0.893344 -0.131741
v -0.820833 1.115740 -0.131424
v -0.455064 1.176547 -0.132377
v -0.380034 1.109069 -0.132572
v 0.817582 0.838593 -0.002130
v 0.817582 0.755594 -0.002130
v 0.613405 0.754022 -0.001598
v 0.563583 1.103594 -0.001468
v 0.485583 1.103594 -0.001265
v 0.652583 1.276594 -0.001700
v 0.652583 1.183594 -0.001700
v 0.794582 1.183594 -0.002070
v 0.794582 1.103594 -0.002070
v 0.652583 1.103594 -0.001700
v 0.663397 0.832408 -0.001728
v 0.428746 1.326728 -0.134680
v 0.383369 1.372105 -0.134561
v 0.323725 1.312459 -0.134406
v 0.369100 1.267082 -0.134524
vn -0.002606 -0.000000 -0.999997
vn 0.999997 0.000000 -0.002606
vn 0.002606 0.000000 0.999997
vn -0.999997 -0.000000 0.002606
vn 0.000000 -1.000000 0.000000
vn -0.000000 1.000000 -0.000000
f 1//1 2//1 3//1 4//1
f 2//2 5//2 6//2 3//2
f 5//3 7//3 8//3 6//3
f 7//4 1//4 4//4 8//4
f 4//5 3//5 6//5 8//5
f 7//6 5//6 2//6 1//6

#
#  Mesh_Material.002
#
usemtl  Mesh_Material.002

v -2.770000 2.046676 -0.325754
v 2.768265 2.046678 -0.340184
v 2.768265 0.046678 -0.340184
v -2.770000 0.046676 -0.325754
v 2.768786 2.046678 -0.140185
v 2.768786 0.046678 -0.140185
v -2.769480 2.046676 -0.125755
v -2.769479 0.046676 -0.125755
v 0.369448 1.267082 -0.000963
v 0.324073 1.312459 -0.000844
v 0.383717 1.372105 -0.001000
v 0.429094 1.326728 -0.001118
v -0.115426 0.758290 0.000301
v -0.173415 1.183594 0.000452
v -0.084415 1.183594 0.000220
v -0.052968 0.817692 0.000138
v 0.114584 0.862594 -0.000299
v 0.114584 1.183594 -0.000299
v 0.203584 1.183594 -0.000530
v 0.203584 0.734594 -0.000530
v 0.114584 0.734594 -0.000299
v 0.114584 0.791593 -0.000299
v 0.663049 0.832408 -0.135290
v 0.652235 1.103594 -0.135262
v 0.794234 1.103594 -0.135632
v 0.794234 1.183594 -0.135632
v 0.652235 1.183594 -0.135262
v 0.652234 1.276594 -0.135262
v 0.485235 1.103594 -0.134827
v 0.563235 1.103594 -0.135030
v 0.613057 0.754022 -0.135160
v 0.817234 0.755594 -0.135692
v 0.817234 0.838593 -0.135692
v 0.114236 0.791593 -0.133860
v 0.114236 0.734594 -0.133860
v 0.203236 0.734594 -0.134092
v 0.203236 1.183594 -0.134092
v 0.114236 1.183594 -0.133860
v 0.114236 0.862594 -0.133860
v -0.053316 0.817692 -0.133424
v -0.084763 1.183594 -0.133342
v -0.173763 1.183594 -0.133110
v -0.115774 0.758290 -0.133261
v 0.420583 1.183594 -0.001096
v 0.420583 0.734594 -0.001096
v 0.331584 0.734594 -0.000864
v 0.331584 1.183594 -0.000864
v -0.565376 0.824978 0.001473
v -0.429035 0.916798 0.001118
v -0.313377 0.919482 0.000817
v -0.560413 0.734594 0.001460
v -0.560413 0.735593 0.001460
v -0.555457 0.733594 0.001447
v -0.302414 0.682594 0.000788
v -0.463985 0.595594 0.001209
v -1.011412 1.075593 0.002635
v -0.537988 1.413408 0.001402
v -0.297586 0.955515 0.000775
v -0.411044 0.944186 0.001071
v -0.454716 1.176547 0.001185
v -0.820485 1.115740 0.002138
v -0.698772 0.893344 0.001821
v 0.331236 0.734594 -0.134426
v 0.420235 0.734594 -0.134657
v 0.420235 1.183594 -0.134657
v 0.331236 1.183594 -0.134426
v -0.279930 1.122533 -0.132833
v -0.538336 1.413408 -0.132160
v -1.011760 1.075593 -0.130926
v -0.464333 0.595594 -0.132353
v -0.302762 0.682594 -0.132774
v -0.555805 0.733594 -0.132114
v -0.560761 0.735593 -0.132101
v -0.560761 0.734594 -0.132101
v -0.313725 0.919482 -0.132745
v -0.297934 0.955515 -0.132786
v -0.397012 0.973797 -0.132528
v -0.565724 0.824978 -0.132088
v -0.699120 0.893344 -0.131741
v -0.820833 1.115740 -0.131424
v -0.455064 1.176547 -0.132377
v -0.380034 1.109069 -0.132572
v 0.817582 0.838593 -0.002130
v 0.817582 0.755594 -0.002130
v 0.613405 0.754022 -0.001598
v 0.563583 1.103594 -0.001468
v 0.485583 1.103594 -0.001265
v 0.652583 1.276594 -0.001700
v 0.652583 1.183594 -0.001700
v 0.794582 1.183594 -0.002070
v 0.794582 1.103594 -0.002070
v 0.652583 1.103594 -0.001700
v 0.663397 0.832408 -0.001728
v 0.428746 1.326728 -0.134680
v 0.383369 1.372105 -0.134561
v 0.323725 1.312459 -0.134406
v 0.369100 1.267082 -0.134524
vn -0.002606 -0.000000 -0.999997
vn 0.002606 0.000000 0.999997
vn 0.707105 -0.707107 -0.001842
vn -0.877207 -0.480106 0.002286
vn 0.989992 0.141100 -0.002579
vn 0.000000 -1.000000 0.000000
vn -0.163993 0.986461 0.000427
vn 0.040100 -0.999196 -0.000104
vn -0.456110 -0.889923 0.001188
vn -0.000000 1.000000 -0.000000
vn 0.719494 -0.694496 -0.001875
vn -0.007700 0.999970 0.000020
vn -0.996326 -0.085603 0.002596
vn -0.999997 -0.000000 0.002606
vn 0.258807 -0.965929 -0.000674
vn -0.999204 -0.039801 0.002603
vn -0.474086 0.880477 0.001235
vn 0.999997 0.000000 -0.002606
vn -0.197596 -0.980283 0.000515
vn 0.707104 0.707107 -0.001842
vn 0.580820 -0.814031 -0.001513
vn 0.659288 0.751889 -0.001718
vn 0.990828 0.135105 -0.002582
vn -0.707105 0.707107 0.001842
vn 0.948254 -0.298390 0.108526
vn -0.143297 0.989680 0.000373
vn -0.599198 0.800600 0.001561
vn -0.374180 -0.927355 0.000975
vn -0.707104 -0.707107 0.001842
vn -0.864268 -0.392621 -0.314466
f 106//7 107//7 108//7 109//7
f 110//7 111//7 112//7 113//7 114//7 115//7 116//7 117//7 118//7 119//7
f 120//8 121//8 122//8 123//8 124//8 125//8 126//8 127//8 128//8 129//8 130//8
f 131//8 132//8 133//8 134//8 135//8 136//8 137//8 138//8 139//8 140//8
f 141//7 142//7 143//7 144//7
f 145//7 146//7 147//7 148//7 149//7 150//7 151//7 152//7 153//7 154//7 155//7 156//7 157//7 158//7 159//7
f 146//7 156//7 155//7 147//7
f 160//8 161//8 162//8 163//8
f 164//8 165//8 166//8 167//8 168//8 169//8 170//8 171//8 172//8 173//8 174//8 175//8 176//8 177//8 178//8 179//8
f 180//7 181//7 182//7 183//7 184//7 185//7 186//7 187//7 188//7 189//7 190//7
f 173//8 164//8 179//8 174//8
f 191//8 192//8 193//8 194//8
f 108//9 107//9 193//9 192//9
f 158//10 177//10 176//10 159//10
f 183//11 182//11 128//11 127//11
f 141//12 144//12 163//12 162//12
f 158//13 157//13 178//13 177//13
f 180//14 190//14 120//14 130//14
f 159//15 176//15 175//15 145//15
f 118//16 117//16 133//16 132//16
f 185//17 184//17 126//17 125//17
f 181//18 129//18 128//18 182//18
f 112//19 138//19 137//19 113//19
f 181//20 180//20 130//20 129//20
f 114//21 113//21 137//21 136//21
f 190//22 189//22 121//22 120//22
f 152//23 151//23 168//23 167//23
f 115//24 114//24 136//24 135//24
f 151//25 150//25 169//25 168//25
f 142//20 141//20 162//20 161//20
f 106//26 194//26 193//26 107//26
f 189//16 188//16 122//16 121//16
f 149//24 148//24 171//24 170//24
f 153//27 166//27 165//27 154//27
f 187//12 186//12 124//12 123//12
f 152//28 167//28 166//28 153//28
f 111//29 110//29 140//29 139//29
f 106//30 109//30 191//30 194//30
f 157//31 156//31 146//31 145//31 175//31 174//31 179//31 178//31
f 112//12 111//12 139//12 138//12
f 116//12 115//12 135//12 134//12
f 110//32 119//32 131//32 140//32
f 184//16 183//16 127//16 126//16
f 119//24 118//24 132//24 131//24
f 186//20 185//20 125//20 124//20
f 143//16 142//16 161//16 160//16
f 144//24 143//24 160//24 163//24
f 117//20 116//20 134//20 133//20
f 147//33 172//33 171//33 148//33
f 150//34 149//34 170//34 169//34
f 108//35 192//35 191//35 109//35
f 188//20 187//20 123//20 122//20
f 155//36 154//36 165//36 164//36 173//36 172//36 147//36
