# Blender v2.76 (sub 0) OBJ File: ''
# www.blender.org
mtllib smoke_10.mtl
o Plane
v 1.002882 -0.009939 1.007989
v -0.997118 -0.009939 1.007989
v 1.002882 -0.009939 -0.992011
v -0.997118 -0.009939 -0.992011
v -1.000000 -1.000000 0.000000
v 1.000000 -1.000000 0.000000
v -1.000000 1.000000 -0.000000
v 1.000000 1.000000 -0.000000
v -0.031573 -1.043685 -0.953795
v -0.028733 -0.953362 1.044162
v 0.028733 0.953362 -1.044162
v 0.031573 1.043685 0.953795
vt 0.000100 0.000100
vt 0.999900 0.000100
vt 0.999900 0.999900
vt 0.000100 0.999900
vn 0.000000 -1.000000 0.000000
vn 0.000000 0.000000 1.000000
vn -0.999500 0.030200 0.000100
usemtl None
s off
f 4/1/1 3/2/1 1/3/1 2/4/1
f 5/1/2 6/2/2 8/3/2 7/4/2
f 9/1/3 10/2/3 12/3/3 11/4/3
