# Blender v2.76 (sub 0) OBJ File: 'trackv3walls.blend'
# www.blender.org
mtllib someShit8.mtl
o Plane.008_Plane.009
v -945.000000 -30.000000 1050.000000
v -945.000000 -30.000000 850.000000
v -780.000000 -30.000000 750.000000
v -720.000000 -30.000000 750.000000
v -750.000000 -30.000000 750.000000
v -945.000000 -30.000000 1350.000000
v -945.000000 59.096924 1350.000000
v -945.000000 59.096924 1050.000000
v -945.000000 59.096924 850.000000
v -780.000000 59.096924 750.000000
v -750.000000 59.096924 750.000000
v -720.000000 59.096924 750.000000
vt 1.048891 1.296436
vt 1.048892 0.189945
vt 1.048896 2.402930
vt 1.065533 -1.312975
vt -0.065541 -1.312975
vt 1.012040 -0.139482
vt -0.012040 -0.139482
vt -0.611274 0.041110
vt 1.318610 0.214700
vt 0.000000 0.000000
vn -1.000000 0.000000 0.000000
vn 0.000000 0.000000 -1.000000
vn -0.518300 0.000000 -0.855200
vn 0.000000 1.000000 0.000000
vn 0.936300 0.000000 0.351100
vn 0.000000 -1.000000 0.000000
usemtl Material.003
s off
f 1/1/1 6/2/1 7/2/1 8/1/1
f 2/3/1 1/1/1 8/1/1 9/3/1
f 4/4/2 5/5/2 11/5/2 12/4/2
f 5/6/2 3/7/2 10/7/2 11/6/2
usemtl Material.003_road3.jpg
f 3/8/3 2/9/3 9/9/3 10/8/3
usemtl Material.003_NONE
f 7/10/4 12/5/4 11/7/4 10/9/4 9/1/4 8/2/4
f 6/10/5 4/4/5 12/10/5 7/2/5
f 4/10/6 6/1/6 1/3/6 2/8/6 3/6/6 5/4/6
