# Blender v2.76 (sub 0) OBJ File: 'trackv3walls.blend'
# www.blender.org
mtllib someShit14.mtl
o Plane.014_Plane.015
v 50.000000 0.000000 1100.000000
v 25.000000 0.000000 1200.000000
v 31.250000 0.000000 1500.000000
v -50.000000 0.000000 1600.000000
v -250.000000 0.000000 1580.980713
v -352.956177 0.000000 1643.838989
v 37.500000 0.000000 1150.000000
v 28.125000 0.000000 1350.000000
v -24.000000 0.000000 1590.000000
v 16.625000 0.000000 1540.000000
v -150.000000 0.000000 1590.490356
v -300.000000 0.000000 1615.490356
v 26.562500 0.000000 1275.000000
v 23.937500 0.000000 1520.000000
v -100.000000 0.000000 1595.245117
v -275.000000 0.000000 1598.235596
v 29.687500 0.000000 1425.000000
v -37.000000 0.000000 1595.000000
v -200.000000 0.000000 1585.735596
v -325.000000 0.000000 1632.745117
v -3.687500 0.000000 1565.000000
v 25.781250 0.000000 1237.500000
v 28.906250 0.000000 1387.500000
v 27.343750 0.000000 1312.500000
v 30.468750 0.000000 1462.500000
v 25.390625 0.000000 1218.750000
v 28.515625 0.000000 1368.750000
v 26.953125 0.000000 1293.750000
v 30.078125 0.000000 1443.750000
v 26.171875 0.000000 1256.250000
v 29.296875 0.000000 1406.250000
v 27.734375 0.000000 1331.250000
v 30.859375 0.000000 1481.250000
v 173.646606 0.000000 1203.851807
v 148.646606 0.000000 1303.851807
v 154.896606 0.000000 1603.851807
v 73.646606 0.000000 1703.851807
v -126.353394 0.000000 1684.832520
v -229.309570 0.000000 1747.690796
v 161.146606 0.000000 1253.851807
v 151.771606 0.000000 1453.851807
v 99.646606 0.000000 1693.851807
v 140.271606 0.000000 1643.851807
v -26.353394 0.000000 1694.342163
v -176.353394 0.000000 1719.342163
v 150.209106 0.000000 1378.851807
v 147.584106 0.000000 1623.851807
v 23.646606 0.000000 1699.096924
v -151.353394 0.000000 1702.087402
v 153.334106 0.000000 1528.851807
v 86.646606 0.000000 1698.851807
v -76.353394 0.000000 1689.587402
v -201.353394 0.000000 1736.596924
v 119.959106 0.000000 1668.851807
v 149.427856 0.000000 1341.351807
v 152.552856 0.000000 1491.351807
v 150.990356 0.000000 1416.351807
v 154.115356 0.000000 1566.351807
v 149.037231 0.000000 1322.601807
v 152.162231 0.000000 1472.601807
v 150.599731 0.000000 1397.601807
v 153.724731 0.000000 1547.601807
v 149.818481 0.000000 1360.101807
v 152.943481 0.000000 1510.101807
v 151.380981 0.000000 1435.101807
v 154.505981 0.000000 1585.101807
v 37.500000 255.714355 1150.000000
v 50.000000 255.714355 1100.000000
v 25.390625 255.714355 1218.750000
v 25.000000 255.714355 1200.000000
v 23.937500 255.714355 1520.000000
v 31.250000 255.714355 1500.000000
v -100.000000 255.714355 1595.245117
v -50.000000 255.714355 1600.000000
v -275.000000 255.714355 1598.235596
v -250.000000 255.714355 1580.980713
v 28.515625 255.714355 1368.750000
v 28.125000 255.714355 1350.000000
v -37.000000 255.714355 1595.000000
v -24.000000 255.714355 1590.000000
v -200.000000 255.714355 1585.735596
v -150.000000 255.714355 1590.490356
v -325.000000 255.714355 1632.745117
v -300.000000 255.714355 1615.490356
v -3.687500 255.714355 1565.000000
v 16.625000 255.714355 1540.000000
v 26.953125 255.714355 1293.750000
v 26.562500 255.714355 1275.000000
v 30.078125 255.714355 1443.750000
v 29.687500 255.714355 1425.000000
v -352.956177 255.714355 1643.838989
v 26.171875 255.714355 1256.250000
v 25.781250 255.714355 1237.500000
v 29.296875 255.714355 1406.250000
v 28.906250 255.714355 1387.500000
v 27.734375 255.714355 1331.250000
v 27.343750 255.714355 1312.500000
v 30.859375 255.714355 1481.250000
v 30.468750 255.714355 1462.500000
v 161.146606 255.714355 1253.851807
v 173.646606 255.714355 1203.851807
v 149.037231 255.714355 1322.601807
v 148.646606 255.714355 1303.851807
v 147.584106 255.714355 1623.851807
v 154.896606 255.714355 1603.851807
v 23.646606 255.714355 1699.096924
v 73.646606 255.714355 1703.851807
v -151.353394 255.714355 1702.087402
v -126.353394 255.714355 1684.832520
v 152.162231 255.714355 1472.601807
v 151.771606 255.714355 1453.851807
v 86.646606 255.714355 1698.851807
v 99.646606 255.714355 1693.851807
v -76.353394 255.714355 1689.587402
v -26.353394 255.714355 1694.342163
v -201.353394 255.714355 1736.596924
v -176.353394 255.714355 1719.342163
v 119.959106 255.714355 1668.851807
v 140.271606 255.714355 1643.851807
v 150.599731 255.714355 1397.601807
v 150.209106 255.714355 1378.851807
v 153.724731 255.714355 1547.601807
v 153.334106 255.714355 1528.851807
v -229.309570 255.714355 1747.690796
v 149.818481 255.714355 1360.101807
v 149.427856 255.714355 1341.351807
v 152.943481 255.714355 1510.101807
v 152.552856 255.714355 1491.351807
v 151.380981 255.714355 1435.101807
v 150.990356 255.714355 1416.351807
v 154.505981 255.714355 1585.101807
v 154.115356 255.714355 1566.351807
vt 0.000110 0.335874
vt 0.000110 0.361703
vt 0.000110 0.482234
vt 0.034547 0.516671
vt 0.000110 0.129250
vt 0.000110 0.155078
vt 0.000110 0.232562
vt 0.000110 0.258390
vt 0.459586 0.384997
vt 0.503142 0.425132
vt 0.068984 0.551108
vt 0.000110 0.025938
vt 0.000110 0.051766
vt 0.372474 0.304728
vt 0.416030 0.344863
vt 0.198249 0.326847
vt 0.285361 0.315788
vt 0.103422 0.551109
vt 0.000110 0.387531
vt 0.000110 0.206734
vt 0.024024 0.348967
vt 0.111136 0.337907
vt 0.546699 0.465267
vt 0.000110 0.180906
vt 0.000110 0.284218
vt 0.000110 0.413359
vt 0.000110 0.447796
vt 0.000110 0.310046
vt 0.000110 0.077594
vt 0.137859 0.551109
vt 0.000110 0.103422
vt 0.000110 0.000110
vt 0.687164 0.748517
vt 0.820849 0.642255
vt 0.954534 0.535992
vt 0.000000 0.000000
vn -0.999800 0.000000 0.020800
vn -0.776100 0.000000 -0.630600
vn -0.568000 0.000000 -0.823000
vn 0.094700 0.000000 -0.995500
vn -0.359000 0.000000 -0.933300
vn -0.368800 0.000000 -0.929500
vn -0.939200 0.000000 -0.343400
vn 0.000000 1.000000 -0.000000
vn -0.970100 0.000000 -0.242500
vn 0.999800 0.000000 -0.020800
vn 0.643200 0.000000 -0.765700
vn 0.776100 0.000000 0.630600
vn 0.368900 0.000000 0.929500
vn -0.094700 0.000000 0.995500
vn 0.359000 0.000000 0.933300
vn 0.568000 0.000000 0.823000
vn 0.939200 0.000000 0.343400
vn 0.970100 0.000000 0.242500
vn -0.643200 0.000000 0.765700
vn 0.000000 -1.000000 0.000000
usemtl Material.003
s off
f 29/1/1 25/2/1 99/2/1 89/1/1
f 10/3/2 21/4/2 85/4/2 86/3/2
f 28/5/1 24/6/1 97/6/1 87/5/1
f 27/7/1 23/8/1 95/8/1 77/7/1
f 12/9/3 20/10/3 83/10/3 84/9/3
f 21/4/2 9/11/2 80/11/2 85/4/2
f 26/12/1 22/13/1 93/13/1 69/12/1
f 5/14/3 16/15/3 75/15/3 76/14/3
f 11/16/4 19/17/4 81/17/4 82/16/4
f 9/11/5 18/18/5 79/18/5 80/11/5
f 25/2/1 33/19/1 98/19/1 99/2/1
f 8/20/1 27/7/1 77/7/1 78/20/1
f 4/21/4 15/22/4 73/22/4 74/21/4
f 20/10/6 6/23/6 91/23/6 83/10/6
f 24/6/1 32/24/1 96/24/1 97/6/1
f 19/17/4 5/14/4 76/14/4 81/17/4
f 23/8/1 31/25/1 94/25/1 95/8/1
f 3/26/7 14/27/7 71/27/7 72/26/7
f 90/28/8 89/1/8 122/1/8 123/28/8
f 93/13/8 92/29/8 125/29/8 126/13/8
f 89/1/8 99/2/8 132/2/8 122/1/8
f 86/3/8 85/4/8 118/4/8 119/3/8
f 76/14/8 75/15/8 108/15/8 109/14/8
f 79/18/8 74/30/8 107/30/8 112/18/8
f 95/8/8 94/25/8 127/25/8 128/8/8
f 92/29/8 88/31/8 121/31/8 125/29/8
f 81/17/8 76/14/8 109/14/8 114/17/8
f 97/6/8 96/24/8 129/24/8 130/6/8
f 88/31/8 87/5/8 120/5/8 121/31/8
f 94/25/8 90/28/8 123/28/8 127/25/8
f 83/10/8 91/23/8 124/23/8 116/10/8
f 78/20/8 77/7/8 110/7/8 111/20/8
f 99/2/8 98/19/8 131/19/8 132/2/8
f 71/27/8 86/3/8 119/3/8 104/27/8
f 96/24/8 78/20/8 111/20/8 129/24/8
f 70/32/8 69/12/8 102/12/8 103/32/8
f 80/11/8 79/18/8 112/18/8 113/11/8
f 69/12/8 93/13/8 126/13/8 102/12/8
f 98/19/8 72/26/8 105/26/8 131/19/8
f 82/16/8 81/17/8 114/17/8 115/16/8
f 72/26/8 71/27/8 104/27/8 105/26/8
f 85/4/8 80/11/8 113/11/8 118/4/8
f 73/22/8 82/16/8 115/16/8 106/22/8
f 77/7/8 95/8/8 128/8/8 110/7/8
f 84/9/8 83/10/8 116/10/8 117/9/8
f 75/15/8 84/9/8 117/9/8 108/15/8
f 74/21/8 73/22/8 106/22/8 107/21/8
f 87/5/8 97/6/8 130/6/8 120/5/8
f 30/29/1 13/31/1 88/31/1 92/29/1
f 13/31/1 28/5/1 87/5/1 88/31/1
f 31/25/1 17/28/1 90/28/1 94/25/1
f 14/27/7 10/3/7 86/3/7 71/27/7
f 32/24/1 8/20/1 78/20/1 96/24/1
f 15/22/4 11/16/4 82/16/4 73/22/4
f 33/19/1 3/26/1 72/26/1 98/19/1
f 16/15/3 12/9/3 84/9/3 75/15/3
f 17/28/1 29/1/1 89/1/1 90/28/1
f 2/32/1 26/12/1 69/12/1 70/32/1
f 22/13/1 30/29/1 92/29/1 93/13/1
f 18/18/5 4/30/5 74/30/5 79/18/5
usemtl Material.003_dirt_road_1.jpg
f 68/33/8 67/34/8 100/34/8 101/33/8
f 67/34/8 70/35/8 103/35/8 100/34/8
f 7/34/9 2/35/9 70/35/9 67/34/9
f 1/33/9 7/34/9 67/34/9 68/33/9
usemtl Material.003_NONE
f 55/36/10 59/36/10 102/13/10 126/36/10
f 66/36/10 58/36/10 132/19/10 131/36/10
f 65/36/10 57/36/10 130/24/10 129/36/10
f 64/36/10 56/36/10 128/25/10 127/36/10
f 34/36/11 1/36/11 68/33/11 101/36/11
f 63/36/10 55/36/10 126/29/10 125/36/10
f 42/36/12 54/36/12 118/11/12 113/36/12
f 39/36/13 53/36/13 116/23/13 124/36/13
f 38/36/14 52/36/14 114/14/14 109/36/14
f 37/36/15 51/36/15 112/30/15 107/36/15
f 62/36/10 50/36/10 123/1/10 122/36/10
f 45/36/16 49/36/16 108/9/16 117/36/16
f 44/36/14 48/36/14 106/16/14 115/36/14
f 43/36/17 47/36/17 104/3/17 119/36/17
f 56/36/10 60/36/10 110/8/10 128/36/10
f 57/36/10 61/36/10 120/6/10 130/36/10
f 40/36/18 34/36/18 101/34/18 100/36/18
f 6/36/19 39/36/19 124/23/19 91/23/19
f 58/36/10 62/36/10 122/2/10 132/36/10
f 59/36/10 35/36/10 103/12/10 102/36/10
f 46/36/10 63/36/10 125/31/10 121/36/10
f 47/36/17 36/36/17 105/27/17 104/36/17
f 50/36/10 64/36/10 127/28/10 123/36/10
f 48/36/14 37/36/14 107/22/14 106/36/14
f 41/36/10 65/36/10 129/20/10 111/36/10
f 49/36/16 38/36/16 109/15/16 108/36/16
f 36/36/10 66/36/10 131/26/10 105/36/10
f 35/36/18 40/36/18 100/35/18 103/36/18
f 60/36/10 41/36/10 111/7/10 110/36/10
f 51/36/15 42/36/15 113/18/15 112/36/15
f 52/36/14 44/36/14 115/17/14 114/36/14
f 53/36/16 45/36/16 117/10/16 116/36/16
f 54/36/12 43/36/12 119/4/12 118/36/12
f 61/36/10 46/36/10 121/5/10 120/36/10
f 2/34/20 7/33/20 1/36/20 34/36/20 40/36/20 35/36/20 59/36/20 55/36/20 63/36/20 46/36/20 61/36/20 57/36/20 65/36/20 41/36/20 60/36/20 56/36/20 64/36/20 50/36/20 62/36/20 58/36/20 66/36/20 36/36/20 47/36/20 43/36/20 54/36/20 42/36/20 51/36/20 37/36/20 48/36/20 44/36/20 52/36/20 38/36/20 49/36/20 45/36/20 53/36/20 39/36/20 6/10/20 20/9/20 12/15/20 16/14/20 5/17/20 19/16/20 11/22/20 15/21/20 4/18/20 18/11/20 9/4/20 21/3/20 10/27/20 14/26/20 3/19/20 33/2/20 25/1/20 29/28/20 17/25/20 31/8/20 23/7/20 27/20/20 8/24/20 32/6/20 24/5/20 28/31/20 13/29/20 30/13/20 22/12/20 26/32/20
