# Blender v2.76 (sub 0) OBJ File: 'trackv3walls.blend'
# www.blender.org
mtllib someShit3.mtl
o Plane.003_Plane.002
v -700.000000 0.000000 -70.000000
v -543.507446 0.000000 -70.000000
v -212.492508 0.000000 -70.000000
v -46.903412 0.000000 -70.000000
v -700.000000 -5.000000 160.000000
v -378.000031 0.000000 63.749954
v -345.078522 0.000000 60.507462
v -313.422211 0.000000 50.904602
v -284.247498 0.000000 35.310471
v -258.675720 0.000000 14.324249
v -237.689484 0.000000 -11.247604
v -222.095367 0.000000 -40.422226
v -533.904663 0.000000 -40.422073
v -518.310425 0.000000 -11.247391
v -497.324066 0.000000 14.324356
v -471.752289 0.000000 35.310562
v -442.577667 0.000000 50.904709
v -410.921234 0.000000 60.507507
v -700.000000 -2.500000 44.052734
v -700.000000 -3.750000 101.079102
v -46.903412 0.000000 132.500000
v -700.000000 -1.250000 -12.973633
v -700.000000 108.174011 -12.973633
v -46.903412 109.424011 132.500000
v -700.000000 105.674011 101.079102
v -700.000000 106.924011 44.052734
v -410.921234 109.424011 60.507507
v -442.577667 109.424011 50.904709
v -471.752289 109.424011 35.310562
v -497.324066 109.424011 14.324356
v -518.310425 109.424011 -11.247391
v -533.904663 109.424011 -40.422073
v -222.095367 109.424011 -40.422226
v -237.689484 109.424011 -11.247604
v -258.675720 109.424011 14.324249
v -284.247498 109.424011 35.310471
v -313.422211 109.424011 50.904602
v -345.078522 109.424011 60.507462
v -378.000031 109.424011 63.749954
v -700.000000 104.424011 160.000000
v -46.903412 109.424011 -70.000000
v -212.492508 109.424011 -70.000000
v -543.507446 109.424011 -70.000000
v -700.000000 109.424011 -70.000000
vt 1.005595 4.138395
vt 1.005595 2.167091
vt 1.005595 0.195772
vt 1.005596 -1.775539
vt 0.997806 -1.345996
vt 0.997806 1.400663
vt 1.005596 -3.812309
vt 0.989062 -1.694990
vt 0.989062 1.337805
vt 0.998160 2.541793
vt 0.998158 -0.837705
vt 1.078392 1.204772
vt 1.204772 1.078391
vt 1.407333 0.410636
vt 1.372465 0.235341
vt 1.304069 0.929783
vt 1.304069 0.070216
vt 1.204772 -0.078392
vt 1.088295 -0.199479
vt 0.410636 1.407335
vt 0.589365 1.407334
vt 0.764660 1.372466
vt 1.372465 0.764660
vt 0.245245 1.377760
vt 0.929784 1.304069
vt 1.407333 0.589365
vt 0.000000 0.000000
vn -1.000000 0.000000 0.000000
vn 0.000000 0.000000 -1.000000
vn 1.000000 0.000000 0.000000
vn -0.290300 0.000000 -0.956900
vn 0.634400 0.000000 -0.773000
vn -0.098000 0.000000 -0.995200
vn 0.773000 0.000000 -0.634400
vn 0.881900 0.000000 -0.471400
vn 0.951100 0.000000 -0.308800
vn -0.881900 0.000000 -0.471400
vn -0.773000 0.000000 -0.634400
vn 0.098000 0.000000 -0.995200
vn -0.951100 0.000000 -0.308800
vn -0.634400 0.000000 -0.773000
vn 0.290300 0.000000 -0.956900
vn -0.471400 0.000000 -0.881900
vn 0.471400 0.000000 -0.881900
vn 0.004700 -0.999900 -0.015100
vn 0.042100 0.000000 0.999100
vn -0.004700 0.999900 0.015100
usemtl Material.003
s off
f 1/1/1 22/2/1 23/2/1 44/1/1
f 19/3/1 20/4/1 25/4/1 26/3/1
f 4/5/2 3/6/2 42/6/2 41/5/2
f 20/4/1 5/7/1 40/7/1 25/4/1
f 21/8/3 4/9/3 41/9/3 24/8/3
f 2/10/2 1/11/2 44/11/2 43/10/2
f 22/2/1 19/3/1 26/3/1 23/2/1
usemtl Material.003_road_7.jpg
f 8/12/4 7/13/4 38/13/4 37/12/4
f 16/14/5 15/15/5 30/15/5 29/14/5
f 7/13/6 6/16/6 39/16/6 38/13/6
f 15/15/7 14/17/7 31/17/7 30/15/7
f 14/17/8 13/18/8 32/18/8 31/17/8
f 13/18/9 2/19/9 43/19/9 32/18/9
f 12/20/10 11/21/10 34/21/10 33/20/10
f 11/21/11 10/22/11 35/22/11 34/21/11
f 6/16/12 18/23/12 27/23/12 39/16/12
f 3/24/13 12/20/13 33/20/13 42/24/13
f 10/22/14 9/25/14 36/25/14 35/22/14
f 18/23/15 17/26/15 28/26/15 27/23/15
f 9/25/16 8/12/16 37/12/16 36/25/16
f 17/26/17 16/14/17 29/14/17 28/26/17
usemtl Material.003_NONE
f 12/24/18 3/5/18 4/8/18 21/7/18 5/4/18 20/3/18 19/2/18 22/1/18 1/10/18 2/18/18 13/17/18 14/15/18 15/14/18 16/26/18 17/23/18 18/16/18 6/13/18 7/12/18 8/25/18 9/22/18 10/21/18 11/20/18
f 5/7/19 21/27/19 24/8/19 40/7/19
f 40/7/20 24/27/20 41/9/20 42/6/20 33/20/20 34/21/20 35/22/20 36/25/20 37/12/20 38/13/20 39/16/20 27/23/20 28/26/20 29/14/20 30/15/20 31/17/20 32/18/20 43/19/20 44/11/20 23/2/20 26/3/20 25/4/20
