# Blender v2.76 (sub 0) OBJ File: 'trackv3walls.blend'
# www.blender.org
mtllib someShit1.mtl
o Plane.000
v -378.000000 0.000000 -20.625023
v -361.539246 0.000000 -22.246269
v -345.711121 0.000000 -27.047707
v -331.123749 0.000000 -34.844765
v -318.337860 0.000000 -45.337879
v -307.844727 0.000000 -58.123806
v -300.047668 0.000000 -72.711121
v -295.246246 0.000000 -88.539291
v -293.625000 0.000000 -105.000046
v -295.246246 0.000000 -121.460770
v -300.047668 0.000000 -137.288910
v -307.844727 0.000000 -151.876236
v -318.337860 0.000000 -164.662170
v -331.123779 0.000000 -175.155273
v -345.711121 0.000000 -182.952362
v -361.539307 0.000000 -187.753815
v -378.000031 0.000000 -189.375061
v -394.460754 0.000000 -187.753815
v -410.288940 0.000000 -182.952362
v -424.876282 0.000000 -175.155243
v -437.662170 0.000000 -164.662109
v -448.155334 0.000000 -151.876221
v -455.952393 0.000000 -137.288879
v -460.753784 0.000000 -121.460693
v -462.375000 0.000000 -104.999954
v -460.753723 0.000000 -88.539215
v -455.952332 0.000000 -72.711044
v -448.155212 0.000000 -58.123699
v -437.662048 0.000000 -45.337826
v -424.876160 0.000000 -34.844719
v -410.288818 0.000000 -27.047646
v -394.460632 0.000000 -22.246254
v -361.539246 94.649216 -22.246269
v -378.000000 94.649216 -20.625023
v -345.711121 94.649216 -27.047707
v -331.123749 94.649216 -34.844765
v -318.337860 94.649216 -45.337879
v -307.844727 94.649216 -58.123806
v -300.047668 94.649216 -72.711121
v -295.246246 94.649216 -88.539291
v -293.625000 94.649216 -105.000046
v -295.246246 94.649216 -121.460770
v -300.047668 94.649216 -137.288910
v -307.844727 94.649216 -151.876236
v -318.337860 94.649216 -164.662170
v -331.123779 94.649216 -175.155273
v -345.711121 94.649216 -182.952362
v -361.539307 94.649216 -187.753815
v -378.000031 94.649216 -189.375061
v -394.460754 94.649216 -187.753815
v -410.288940 94.649216 -182.952362
v -424.876282 94.649216 -175.155243
v -437.662170 94.649216 -164.662109
v -448.155334 94.649216 -151.876221
v -455.952393 94.649216 -137.288879
v -460.753784 94.649216 -121.460693
v -462.375000 94.649216 -104.999954
v -460.753723 94.649216 -88.539215
v -455.952332 94.649216 -72.711044
v -448.155212 94.649216 -58.123699
v -437.662048 94.649216 -45.337826
v -424.876160 94.649216 -34.844719
v -410.288818 94.649216 -27.047646
v -394.460632 94.649216 -22.246254
vt 0.936232 0.632330
vt 0.902034 0.714892
vt 0.210804 0.147614
vt 0.285108 0.097965
vt 0.544682 0.953667
vt 0.455318 0.953667
vt 0.367670 0.063767
vt 0.367670 0.936233
vt 0.455318 0.046332
vt 0.285108 0.902035
vt 0.544682 0.046333
vt 0.210804 0.852387
vt 0.632330 0.063767
vt 0.147614 0.789197
vt 0.714892 0.097965
vt 0.097965 0.714893
vt 0.789196 0.147614
vt 0.063767 0.632331
vt 0.852386 0.210804
vt 0.046333 0.544683
vt 0.902034 0.285108
vt 0.046333 0.455318
vt 0.852386 0.789196
vt 0.936233 0.367671
vt 0.063767 0.367670
vt 0.789196 0.852386
vt 0.953667 0.455318
vt 0.097965 0.285108
vt 0.714892 0.902035
vt 0.953667 0.544683
vt 0.147614 0.210804
vt 0.632330 0.936233
vn -0.098000 0.000000 0.995200
vn -0.471400 0.000000 -0.881900
vn 0.881900 0.000000 0.471400
vn -0.634400 0.000000 -0.773000
vn 0.956900 0.000000 0.290300
vn -0.773000 0.000000 -0.634400
vn 0.995200 0.000000 0.098000
vn -0.881900 0.000000 -0.471400
vn 0.995200 0.000000 -0.098000
vn -0.956900 0.000000 -0.290300
vn 0.956900 0.000000 -0.290300
vn -0.995200 0.000000 -0.098000
vn 0.881900 0.000000 -0.471400
vn -0.995200 0.000000 0.098000
vn 0.773000 0.000000 -0.634400
vn -0.956900 0.000000 0.290300
vn 0.634400 0.000000 -0.773000
vn -0.881900 0.000000 0.471400
vn 0.471400 0.000000 -0.881900
vn 0.098000 0.000000 0.995200
vn -0.773000 0.000000 0.634400
vn 0.290300 0.000000 -0.956900
vn 0.290300 0.000000 0.956900
vn -0.634400 0.000000 0.773000
vn 0.098000 0.000000 -0.995200
vn 0.471400 0.000000 0.881900
vn -0.471400 0.000000 0.881900
vn -0.098000 0.000000 -0.995200
vn 0.634400 0.000000 0.773000
vn -0.290300 0.000000 0.956900
vn -0.290300 0.000000 -0.956900
vn 0.773000 0.000000 0.634400
vn 0.000000 1.000000 -0.000000
vn 0.000000 -1.000000 0.000000
usemtl Material.003
s off
f 32/1/1 1/2/1 34/2/1 64/1/1
f 19/3/2 20/4/2 52/4/2 51/3/2
f 6/5/3 7/6/3 39/6/3 38/5/3
f 20/4/4 21/7/4 53/7/4 52/4/4
f 7/6/5 8/8/5 40/8/5 39/6/5
f 21/7/6 22/9/6 54/9/6 53/7/6
f 8/8/7 9/10/7 41/10/7 40/8/7
f 22/9/8 23/11/8 55/11/8 54/9/8
f 9/10/9 10/12/9 42/12/9 41/10/9
f 23/11/10 24/13/10 56/13/10 55/11/10
f 10/12/11 11/14/11 43/14/11 42/12/11
f 24/13/12 25/15/12 57/15/12 56/13/12
f 11/14/13 12/16/13 44/16/13 43/14/13
f 25/15/14 26/17/14 58/17/14 57/15/14
f 12/16/15 13/18/15 45/18/15 44/16/15
f 26/17/16 27/19/16 59/19/16 58/17/16
f 13/18/17 14/20/17 46/20/17 45/18/17
f 27/19/18 28/21/18 60/21/18 59/19/18
f 14/20/19 15/22/19 47/22/19 46/20/19
f 1/2/20 2/23/20 33/23/20 34/2/20
f 28/21/21 29/24/21 61/24/21 60/21/21
f 15/22/22 16/25/22 48/25/22 47/22/22
f 2/23/23 3/26/23 35/26/23 33/23/23
f 29/24/24 30/27/24 62/27/24 61/24/24
f 16/25/25 17/28/25 49/28/25 48/25/25
f 3/26/26 4/29/26 36/29/26 35/26/26
f 30/27/27 31/30/27 63/30/27 62/27/27
f 17/28/28 18/31/28 50/31/28 49/28/28
f 4/29/29 5/32/29 37/32/29 36/29/29
f 31/30/30 32/1/30 64/1/30 63/30/30
f 18/31/31 19/3/31 51/3/31 50/31/31
f 5/32/32 6/5/32 38/5/32 37/32/32
usemtl Material.003_NONE
f 33/26/33 35/29/33 36/32/33 37/5/33 38/6/33 39/8/33 40/10/33 41/12/33 42/14/33 43/16/33 44/18/33 45/20/33 46/22/33 47/25/33 48/28/33 49/31/33 50/3/33 51/4/33 52/7/33 53/9/33 54/11/33 55/13/33 56/15/33 57/17/33 58/19/33 59/21/33 60/24/33 61/27/33 62/30/33 63/1/33 64/2/33 34/23/33
f 3/23/34 2/2/34 1/1/34 32/30/34 31/27/34 30/24/34 29/21/34 28/19/34 27/17/34 26/15/34 25/13/34 24/11/34 23/9/34 22/7/34 21/4/34 20/3/34 19/31/34 18/28/34 17/25/34 16/22/34 15/20/34 14/18/34 13/16/34 12/14/34 11/12/34 10/10/34 9/8/34 8/6/34 7/5/34 6/32/34 5/29/34 4/26/34
