# Blender v2.76 (sub 0) OBJ File: 'trackv3walls.blend'
# www.blender.org
mtllib someShit16.mtl
o Plane.016_Plane.017
v -20.000000 22.274612 400.000000
v -20.000000 22.274612 490.000000
v -40.000000 22.274612 300.000000
v -20.000000 22.274612 530.000000
v -60.000000 29.132450 650.000000
v -20.000000 22.274612 350.000000
v -35.000000 22.274612 580.000000
v -56.838001 22.274614 580.000000
v -48.418999 22.274614 440.000000
v -58.418999 25.703531 615.000000
v -35.000000 -4.475784 580.000000
v -60.000000 2.382053 650.000000
v -20.000000 -4.475784 350.000000
v -20.000000 -4.475784 400.000000
v -20.000000 -4.475784 490.000000
v -20.000000 -4.475784 530.000000
v -40.000000 -4.475784 300.000000
v -48.418999 -4.475782 440.000000
v -58.418999 -1.046865 615.000000
v -56.838001 -4.475782 580.000000
v -80.743546 22.274614 440.000000
v -72.324547 22.274612 300.000000
v -90.743546 25.703531 615.000000
v -89.162552 22.274614 580.000000
v -72.324547 -4.475784 300.000000
v -80.743546 -4.475782 440.000000
v -92.324547 29.132450 650.000000
v -90.743546 -1.046865 615.000000
v -89.162552 -4.475782 580.000000
v -92.324547 2.382053 650.000000
v -48.418999 71.116982 440.000000
v -40.000000 71.116982 300.000000
v -58.418999 74.545898 615.000000
v -56.838001 71.116982 580.000000
v -80.743546 71.116982 440.000000
v -60.000000 77.974823 650.000000
v -72.324547 71.116982 300.000000
v -90.743546 74.545898 615.000000
v -89.162552 71.116982 580.000000
v -92.324547 77.974823 650.000000
v -40.000000 -4.475784 201.224503
v -40.000000 22.274612 201.224503
v -72.324547 -4.475784 201.224503
v -72.324547 22.274612 201.224503
v -40.000000 71.116982 201.224503
v -72.324547 71.116982 201.224503
v -47.189873 -4.475784 131.888809
v -47.189873 22.274612 131.888809
v -79.514420 -4.475784 131.888809
v -79.514420 22.274612 131.888809
v -47.189873 71.116982 131.888809
v -79.514420 71.116982 131.888809
vt 1.454887 0.075993
vt 1.215258 0.071152
vt 1.205582 0.219519
vt 1.694515 0.080834
vt 0.260372 0.066318
vt -0.694515 0.061485
vt -0.363677 0.219519
vt 0.535248 0.219702
vt -0.694515 0.219702
vt -0.083871 0.270589
vt 0.187524 0.293205
vt 0.313835 0.388563
vt 0.834172 0.376548
vt 0.170015 0.379915
vt 0.940989 -0.406295
vt -0.037799 -1.388381
vt 0.000000 0.000000
vn 0.000000 -0.995200 0.097500
vn -0.000000 -1.000000 -0.000000
vn 0.957800 0.000000 0.287300
vn 1.000000 0.000000 0.000000
vn 0.928500 0.000000 -0.371400
vn -0.998200 0.000000 -0.060000
vn -1.000000 0.000000 0.000000
vn 0.941700 0.000000 0.336300
vn 0.000000 1.000000 -0.009500
vn -0.999000 0.000000 -0.045100
vn 0.998200 0.000000 0.060000
vn 0.000000 0.000000 1.000000
vn 0.999000 0.000000 0.045100
vn 0.994700 0.000000 -0.103100
vn 0.000000 0.000000 -1.000000
vn -0.994700 0.000000 0.103100
usemtl Material.003
s off
f 19/1/1 28/1/1 29/2/1 20/2/1
f 11/3/1 12/4/1 19/1/1 20/2/1
f 20/2/2 18/5/2 17/6/2 13/7/2 11/3/2
f 11/8/2 14/9/2 15/10/2 16/11/2
f 14/12/2 11/13/2 13/14/2
f 20/2/2 29/2/2 26/5/2 18/5/2
f 18/5/2 26/5/2 25/6/2 17/6/2
f 12/4/1 30/4/1 28/1/1 19/1/1
f 25/6/2 43/6/2 41/6/2 17/6/2
f 43/6/2 49/6/2 47/6/2 41/6/2
usemtl Material.003_wooden_board.jpg
f 7/15/3 11/15/3 16/16/3 4/16/3
usemtl Material.003_NONE
f 4/17/4 16/17/4 15/11/4 2/17/4
f 6/17/5 13/17/5 17/7/5 3/17/5
f 32/17/2 37/17/2 46/17/2 45/17/2
f 21/17/6 35/17/6 37/17/6 22/17/6
f 2/17/4 15/17/4 14/10/4 1/17/4
f 37/17/7 46/17/7 44/17/7 22/17/7
f 1/17/4 14/17/4 13/12/4 6/17/4
f 5/17/8 12/17/8 11/4/8 7/15/8
f 4/15/9 2/17/9 1/17/9 6/17/9 3/17/9 9/17/9 8/17/9 10/17/9 5/17/9 7/17/9
f 21/17/6 26/17/6 29/5/6 24/17/6
f 22/17/6 25/17/6 26/6/6 21/17/6
f 24/17/10 29/17/10 28/2/10 23/17/10
f 23/17/10 28/17/10 30/1/10 27/17/10
f 9/17/11 31/17/11 34/17/11 8/17/11
f 3/17/11 32/17/11 31/17/11 9/17/11
f 5/17/12 27/17/12 30/17/12 12/17/12
f 31/17/2 34/17/2 39/17/2 35/17/2
f 32/17/2 31/17/2 35/17/2 37/17/2
f 34/17/1 33/17/1 38/17/1 39/17/1
f 33/17/1 36/17/1 40/17/1 38/17/1
f 24/17/6 39/17/6 35/17/6 21/17/6
f 8/17/13 34/17/13 33/17/13 10/17/13
f 5/17/12 36/17/12 40/17/12 27/17/12
f 23/17/10 38/17/10 39/17/10 24/17/10
f 27/17/10 40/17/10 38/17/10 23/17/10
f 10/17/13 33/17/13 36/17/13 5/17/13
f 41/7/14 47/7/14 48/17/14 42/17/14
f 42/17/14 48/17/14 51/17/14 45/17/14
f 17/7/4 41/7/4 42/17/4 3/17/4
f 22/17/7 44/17/7 43/17/7 25/17/7
f 3/17/4 42/17/4 45/17/4 32/17/4
f 50/17/15 52/17/15 51/17/15 48/17/15
f 47/7/15 49/7/15 50/17/15 48/17/15
f 45/17/2 46/17/2 52/17/2 51/17/2
f 44/17/16 50/17/16 49/17/16 43/17/16
f 46/17/16 52/17/16 50/17/16 44/17/16
