# Blender v2.76 (sub 0) OBJ File: 'trackv3walls.blend'
# www.blender.org
mtllib someShit18.mtl
o Plane.018_Plane.008
v -355.289276 172.500015 1453.346069
v -535.139099 142.500015 1350.000000
v -961.984680 142.500015 1350.000000
v -355.289276 172.500015 1648.341553
v -535.139099 142.500015 1753.871338
v -961.984680 142.500015 1753.871338
v -355.289276 236.551743 1453.346069
v -535.139099 206.551743 1350.000000
v -961.984680 206.551743 1350.000000
v -355.289276 236.551743 1648.341553
v -535.139099 206.551743 1753.871338
v -961.984680 206.551743 1753.871338
vt 0.000000 0.000000
vn 0.000000 -1.000000 0.000000
vn 0.164500 -0.986400 0.000000
vn -0.164500 0.986400 0.000000
vn 0.000000 0.000000 1.000000
vn 1.000000 0.000000 0.000000
vn 0.506100 0.000000 0.862500
vn 0.498200 0.000000 -0.867000
vn 0.000000 0.000000 -1.000000
usemtl Material.003
s off
f 3/1/1 2/1/1 5/1/1 6/1/1
f 1/1/2 4/1/2 5/1/2 2/1/2
f 9/1/1 8/1/1 11/1/1 12/1/1
f 7/1/3 8/1/3 11/1/3 10/1/3
f 3/1/4 2/1/4 8/1/4 9/1/4
f 4/1/5 1/1/5 7/1/5 10/1/5
f 6/1/5 3/1/5 9/1/5 12/1/5
f 5/1/6 4/1/6 10/1/6 11/1/6
f 1/1/7 2/1/7 8/1/7 7/1/7
f 5/1/8 6/1/8 12/1/8 11/1/8
