# Blender v2.76 (sub 0) OBJ File: 'trackv3walls.blend'
# www.blender.org
mtllib someShit4.mtl
o Plane.004
v -775.000000 0.000000 -70.000000
v -775.000000 0.000000 -140.000000
v -775.000000 -5.000000 160.000000
v -848.746155 70.978096 160.000000
v -848.746155 75.978096 -70.000000
v -848.746155 75.978096 -140.000000
v -775.000000 70.978096 160.000000
v -775.000000 75.978096 -70.000000
v -775.000000 75.978096 -140.000000
v -848.746155 -5.000000 160.000000
v -848.746155 0.000000 -140.000000
v -848.746155 0.000000 -70.000000
vt 0.064287 -4.909946
vt 0.064287 -2.468874
vt -0.005595 -3.812309
vt -0.005596 4.138395
vt 0.000000 0.000000
vn 1.000000 0.000000 0.000000
vn 0.000000 0.999800 0.021700
vn 0.000000 1.000000 0.000000
vn 0.000000 -0.999900 -0.016700
vn 0.000000 0.000000 -1.000000
vn 0.000000 0.000000 1.000000
vn -1.000000 0.000000 0.000000
usemtl Material.003
s off
f 1/1/1 2/2/1 9/2/1 8/1/1
f 7/3/2 8/4/2 5/4/2 4/3/2
f 8/1/3 9/2/3 6/2/3 5/1/3
f 3/3/1 1/4/1 8/4/1 7/3/1
usemtl Material.003_NONE
f 11/5/4 2/1/4 1/3/4 3/5/4 10/5/4 12/5/4
f 2/5/5 11/5/5 6/2/5 9/2/5
f 10/5/6 3/3/6 7/3/6 4/5/6
f 11/5/7 12/5/7 5/2/7 6/5/7
f 12/5/7 10/5/7 4/4/7 5/5/7
