# Blender v2.76 (sub 0) OBJ File: 'trackv3walls.blend'
# www.blender.org
mtllib someShit5.mtl
o Plane.005
v -780.000000 -30.000000 270.327820
v -750.000000 -30.000000 270.327820
v -780.000000 3.805990 200.000000
v -750.000000 5.423965 200.000000
v -750.000000 10.000000 270.327820
v -780.000000 10.000000 270.327820
v -780.000000 10.000000 200.000000
v -750.000000 10.000000 200.000000
v -780.000000 -10.000000 200.000000
v -780.000000 -10.000000 160.000000
v -775.359680 -5.067047 160.000000
v -750.000000 -8.382025 200.000000
v -780.000000 -10.000000 270.327820
v -750.000000 -10.000000 270.327820
v -750.673767 -30.000000 200.000000
v -773.261230 -30.000000 160.000000
v -780.000000 -30.000000 160.000000
v -750.000000 -30.000000 200.000000
v -780.000000 -30.000000 200.000000
v -775.359680 8.738943 160.000000
v -780.000000 3.805990 160.000000
vt -0.017102 2.079548
vt 1.017100 2.079548
vt 0.000000 0.000000
vn 0.000000 0.000000 1.000000
vn 0.844600 0.000000 -0.535400
vn 0.000000 1.000000 0.000000
vn -1.000000 0.000000 0.000000
vn 0.000000 0.000000 -1.000000
vn -0.184900 0.977700 0.099100
vn 1.000000 0.000000 0.000000
vn 0.857900 0.026300 -0.513100
vn 0.000000 -1.000000 0.000000
usemtl Material.003
s off
f 13/1/1 14/2/1 5/2/1 6/1/1
f 12/2/2 11/2/2 20/2/2 4/2/2
f 6/1/3 5/2/3 8/2/3 7/1/3
f 1/1/1 2/2/1 14/2/1 13/1/1
usemtl Material.003_NONE
f 9/3/4 13/1/4 6/1/4 7/3/4
f 11/3/5 10/2/5 21/2/5 20/3/5
f 3/1/6 4/2/6 20/2/6 21/2/6
f 17/3/4 19/3/4 9/1/4 10/3/4
f 2/3/7 18/3/7 12/2/7 14/2/7
f 15/3/8 16/3/8 11/2/8 12/3/8
f 14/2/7 12/2/7 8/2/7 5/2/7
f 8/2/5 12/2/5 9/3/5 7/3/5
f 17/3/5 10/3/5 11/3/5 16/3/5
f 19/3/4 1/3/4 13/1/4 9/3/4
f 10/3/4 9/1/4 3/1/4 21/3/4
f 18/3/9 2/1/9 1/3/9 19/3/9
f 15/3/9 19/3/9 17/3/9 16/3/9
