# Blender v2.76 (sub 0) OBJ File: 'speedPowerupModel.blend'
# www.blender.org
mtllib speedPowerupModel.mtl
o Cylinder
v -2.229858 -0.980785 1.228631
v -2.182746 -1.000000 1.039315
v -2.135634 -0.980785 0.849998
v -2.090332 -0.923879 0.667957
v -2.048582 -0.831470 0.500187
v -2.011988 -0.707107 0.353136
v -1.981956 -0.555570 0.232453
v -1.959640 -0.382683 0.142778
v -1.945898 -0.195090 0.087557
v -1.941258 0.000000 0.068911
v -1.945898 0.195091 0.087557
v -1.959640 0.382684 0.142779
v -1.981956 0.555571 0.232454
v -2.189118 -0.980785 1.064920
v -2.142006 -1.000000 0.875603
v -2.094894 -0.980785 0.686287
v -2.049592 -0.923879 0.504246
v -2.007842 -0.831470 0.336476
v -1.971248 -0.707107 0.189424
v -1.941216 -0.555570 0.068742
v -1.918900 -0.382683 -0.020933
v -1.905158 -0.195090 -0.076154
v -1.900518 0.000000 -0.094800
v -1.905158 0.195091 -0.076154
v -1.918900 0.382684 -0.020933
v -1.941216 0.555571 0.068742
v 0.000000 -0.980785 1.823491
v 2.229858 -0.980785 1.228631
v 0.000000 -1.000000 1.634174
v 2.182746 -1.000000 1.039315
v 0.000000 -0.980785 1.444858
v 2.135634 -0.980785 0.849998
v 0.000000 -0.923880 1.262817
v 2.090332 -0.923879 0.667957
v 0.000000 -0.831470 1.095047
v 2.048582 -0.831470 0.500187
v 0.000000 -0.707107 0.947995
v 2.011988 -0.707107 0.353136
v 0.000000 -0.554613 0.827313
v 1.981956 -0.555570 0.232453
v 0.000000 -0.382683 0.737638
v 1.959640 -0.382683 0.142778
v 0.000000 -0.195090 0.682416
v 1.945898 -0.195090 0.087557
v 0.000000 0.000000 0.663770
v 1.941258 0.000000 0.068911
v 0.000000 0.195091 0.682416
v 1.945898 0.195091 0.087557
v 0.000000 0.382684 0.737638
v 1.959640 0.382684 0.142779
v 0.000000 0.555571 0.443243
v 1.981956 0.555571 0.232454
v 2.189118 -0.980785 1.064920
v 0.000000 -0.980785 1.659779
v 0.000000 -1.000000 1.470463
v 2.142006 -1.000000 0.875603
v 0.000000 -0.980785 1.281146
v 2.094894 -0.980785 0.686287
v 0.000000 -0.923880 1.099105
v 2.049592 -0.923879 0.504246
v 0.000000 -0.831470 0.931335
v 2.007842 -0.831470 0.336476
v 0.000000 -0.707107 0.784284
v 1.971248 -0.707107 0.189424
v 0.000000 -0.555570 0.663601
v 1.941216 -0.555570 0.068742
v 0.000000 -0.382683 0.573926
v 1.918900 -0.382683 -0.020933
v 0.000000 -0.195090 0.511495
v 1.905158 -0.195090 -0.076154
v 0.000000 0.000000 0.461605
v 1.900518 0.000000 -0.094800
v 0.000000 0.195091 0.398538
v 1.905158 0.195091 -0.076154
v 0.000000 0.382684 0.267985
v 1.918900 0.382684 -0.020933
v 0.000000 0.555571 0.279531
v 1.941216 0.555571 0.068742
vn -0.026300 -0.994900 0.097700
vn 0.026900 -0.994900 -0.097600
vn 0.081100 -0.954100 -0.288200
vn 0.133800 -0.875000 -0.465300
vn 0.182100 -0.761800 -0.621600
vn 0.224300 -0.619400 -0.752300
vn 0.256800 -0.459000 -0.850500
vn 0.279700 -0.280500 -0.918200
vn 0.291400 -0.094400 -0.951900
vn 0.291400 0.094400 -0.951900
vn 0.279700 0.280500 -0.918200
vn 0.174200 -0.493300 -0.852200
vn -0.026800 -0.994900 0.097600
vn 0.027400 -0.994900 -0.097600
vn 0.082700 -0.954100 -0.288000
vn 0.136300 -0.874800 -0.464900
vn 0.185700 -0.761500 -0.620900
vn 0.228200 -0.620300 -0.750500
vn 0.261900 -0.457600 -0.849700
vn 0.282100 -0.296500 -0.912400
vn 0.283700 -0.169200 -0.943900
vn 0.260000 -0.106200 -0.959700
vn 0.192400 -0.186400 -0.963500
vn 0.123000 0.286100 -0.950300
vn 0.970400 0.000000 0.241500
vn -0.000000 -1.000000 0.000000
vn 0.000000 1.000000 0.000000
vn -0.970400 0.000000 -0.241500
vn 0.026300 -0.994900 0.097700
vn -0.026900 -0.994900 -0.097600
vn -0.081100 -0.954100 -0.288200
vn -0.133800 -0.875000 -0.465300
vn -0.182100 -0.761800 -0.621600
vn -0.224300 -0.619400 -0.752300
vn -0.256800 -0.459000 -0.850500
vn -0.279700 -0.280500 -0.918200
vn -0.291400 -0.094400 -0.951900
vn -0.291400 0.094400 -0.951900
vn -0.279700 0.280500 -0.918200
vn -0.174200 -0.493300 -0.852200
vn 0.026800 -0.994900 0.097600
vn -0.027400 -0.994900 -0.097600
vn -0.082700 -0.954100 -0.288000
vn -0.136300 -0.874800 -0.464900
vn -0.185700 -0.761500 -0.620900
vn -0.228200 -0.620300 -0.750500
vn -0.261900 -0.457600 -0.849700
vn -0.282100 -0.296500 -0.912400
vn -0.283700 -0.169200 -0.943900
vn -0.260000 -0.106200 -0.959700
vn -0.192400 -0.186400 -0.963500
vn -0.123000 0.286100 -0.950300
vn -0.970400 0.000000 0.241500
vn 1.000000 0.000000 0.000000
vn 0.970400 0.000000 -0.241500
usemtl None
s off
f 27//1 1//1 2//1 29//1
f 29//2 2//2 3//2 31//2
f 31//3 3//3 4//3 33//3
f 33//4 4//4 5//4 35//4
f 35//5 5//5 6//5 37//5
f 37//6 6//6 7//6 39//6
f 39//7 7//7 8//7 41//7
f 41//8 8//8 9//8 43//8
f 43//9 9//9 10//9 45//9
f 45//10 10//10 11//10 47//10
f 47//11 11//11 12//11 49//11
f 49//12 12//12 13//12 51//12
f 54//13 14//13 15//13 55//13
f 55//14 15//14 16//14 57//14
f 57//15 16//15 17//15 59//15
f 59//16 17//16 18//16 61//16
f 61//17 18//17 19//17 63//17
f 63//18 19//18 20//18 65//18
f 65//19 20//19 21//19 67//19
f 67//20 21//20 22//20 69//20
f 69//21 22//21 23//21 71//21
f 71//22 23//22 24//22 73//22
f 73//23 24//23 25//23 75//23
f 75//24 25//24 26//24 77//24
f 7//25 6//25 19//25 20//25
f 12//25 11//25 24//25 25//25
f 5//25 4//25 17//25 18//25
f 10//25 9//25 22//25 23//25
f 3//25 2//25 15//25 16//25
f 8//25 7//25 20//25 21//25
f 13//25 12//25 25//25 26//25
f 51//26 13//26 26//26 77//26
f 6//25 5//25 18//25 19//25
f 11//25 10//25 23//25 24//25
f 1//27 27//27 54//27 14//27
f 4//25 3//25 16//25 17//25
f 9//25 8//25 21//25 22//25
f 2//28 1//28 14//28 15//28
f 27//29 29//29 30//29 28//29
f 29//30 31//30 32//30 30//30
f 31//31 33//31 34//31 32//31
f 33//32 35//32 36//32 34//32
f 35//33 37//33 38//33 36//33
f 37//34 39//34 40//34 38//34
f 39//35 41//35 42//35 40//35
f 41//36 43//36 44//36 42//36
f 43//37 45//37 46//37 44//37
f 45//38 47//38 48//38 46//38
f 47//39 49//39 50//39 48//39
f 49//40 51//40 52//40 50//40
f 54//41 55//41 56//41 53//41
f 55//42 57//42 58//42 56//42
f 57//43 59//43 60//43 58//43
f 59//44 61//44 62//44 60//44
f 61//45 63//45 64//45 62//45
f 63//46 65//46 66//46 64//46
f 65//47 67//47 68//47 66//47
f 67//48 69//48 70//48 68//48
f 69//49 71//49 72//49 70//49
f 71//50 73//50 74//50 72//50
f 73//51 75//51 76//51 74//51
f 75//52 77//52 78//52 76//52
f 40//53 66//53 64//53 38//53
f 50//53 76//53 74//53 48//53
f 36//53 62//53 60//53 34//53
f 46//53 72//53 70//53 44//53
f 29//54 55//54 57//54 31//54
f 32//53 58//53 56//53 30//53
f 42//53 68//53 66//53 40//53
f 52//53 78//53 76//53 50//53
f 51//26 77//26 78//26 52//26
f 38//53 64//53 62//53 36//53
f 48//53 74//53 72//53 46//53
f 28//27 53//27 54//27 27//27
f 34//53 60//53 58//53 32//53
f 44//53 70//53 68//53 42//53
f 30//55 56//55 53//55 28//55
