# Blender v2.76 (sub 0) OBJ File: 'sword.blend'
# www.blender.org
mtllib sword.mtl
o Cube
v -0.243292 10.921947 -0.117176
v -0.350078 5.778395 -0.141787
v -0.419467 5.778395 -0.170308
v -0.312867 11.027362 -0.170308
v -0.549979 5.899143 -0.003733
v -0.436631 11.186183 0.002736
v 0.243292 10.921947 -0.117176
v 0.350078 5.778395 -0.141787
v 0.000000 11.785040 -0.117176
v 0.419467 5.778395 -0.170308
v 0.312867 11.027362 -0.170308
v 0.000000 5.778395 -0.141787
v 0.000000 11.925145 -0.170308
v 0.549979 5.899143 -0.003733
v 0.436631 11.186183 0.002736
v 0.000000 12.167072 0.002735
v -0.243292 10.921947 0.117176
v -0.350078 5.778395 0.141787
v -0.419467 5.778395 0.170308
v -0.312867 11.027362 0.170308
v -0.549979 5.899143 0.003733
v -0.436631 11.186183 -0.002736
v 0.243292 10.921947 0.117176
v 0.350078 5.778395 0.141787
v 0.000000 11.785040 0.117176
v 0.419467 5.778395 0.170308
v 0.312867 11.027362 0.170308
v 0.000000 5.778395 0.141787
v 0.000000 11.925145 0.170308
v 0.549979 5.899143 0.003733
v 0.436631 11.186183 -0.002736
v 0.000000 12.167072 -0.002735
v 0.000000 5.806908 0.253938
v 0.383921 3.046523 0.239834
v 0.000000 3.083273 -0.187500
v 0.000000 5.083273 -0.187500
v 0.110210 3.083273 -0.151691
v 0.110210 5.083273 -0.151691
v 0.178323 3.083273 -0.057941
v 0.178323 5.083273 -0.057941
v 0.178323 3.083273 0.057941
v 0.178323 5.083273 0.057941
v 0.110210 3.083273 0.151691
v 0.110210 5.083273 0.151691
v 0.000000 3.083273 0.187500
v 0.000000 5.083273 0.187500
v -0.110210 3.083273 0.151691
v -0.110210 5.083273 0.151691
v -0.178323 3.083273 0.057941
v -0.178323 5.083273 0.057941
v -0.178323 3.083273 -0.057941
v -0.178323 5.083273 -0.057941
v -0.110210 3.083273 -0.151691
v -0.110210 5.083273 -0.151691
v 0.383921 3.046522 -0.239834
v 0.237276 3.248362 0.239834
v -0.000000 4.833070 0.253938
v 0.707107 5.319989 0.000000
v -0.000000 4.833070 -0.253938
v -0.334690 5.918709 0.253938
v 0.237276 3.248362 -0.239834
v -0.000000 3.325458 0.239834
v -0.334690 5.918709 -0.253938
v -0.000000 3.325457 -0.239834
v -0.707107 5.319989 0.000000
v 0.000000 5.806908 -0.253938
v -1.041796 6.293132 0.000000
v 0.292893 5.918709 -0.253938
v 1.000000 6.293132 0.000000
v 0.292893 5.918709 0.253938
v 0.383921 2.797035 -0.239834
v 0.383921 2.797035 0.239834
v 0.237276 2.595195 -0.239834
v 0.237276 2.595195 0.239834
v -0.000000 2.518099 -0.239834
v -0.000000 2.518100 0.239834
v -0.237276 2.595195 -0.239834
v -0.237276 2.595196 0.239834
v -0.383921 2.797035 -0.239834
v -0.383921 2.797035 0.239834
v -0.383921 3.046522 -0.239834
v -0.383921 3.046523 0.239834
v -0.237276 3.248362 -0.239834
v -0.237276 3.248362 0.239834
vn 0.595200 -0.012100 -0.803500
vn -0.000000 0.004800 -1.000000
vn 0.713200 -0.248500 -0.655400
vn -0.805400 0.018000 -0.592500
vn -0.794200 0.353500 -0.494300
vn -0.380200 -0.003500 -0.924900
vn -0.467700 -0.131800 -0.874000
vn 0.805400 0.018000 -0.592500
vn 0.794200 0.353500 -0.494300
vn 0.380200 -0.003500 0.924900
vn -0.000000 0.004800 1.000000
vn 0.467700 -0.131800 0.874000
vn -0.805400 0.018000 0.592500
vn -0.794200 0.353500 0.494300
vn -0.595200 -0.012100 0.803500
vn -0.713200 -0.248500 0.655400
vn 0.805400 0.018000 0.592500
vn 0.794200 0.353500 0.494300
vn 0.309000 0.000000 -0.951100
vn 0.809000 0.000000 -0.587800
vn 0.809000 -0.587800 0.000000
vn 1.000000 0.000000 0.000000
vn 0.809000 0.000000 0.587800
vn 0.309000 0.000000 0.951100
vn -0.309000 0.000000 0.951100
vn -0.809000 0.000000 0.587800
vn -1.000000 0.000000 0.000000
vn 0.000000 1.000000 0.000000
vn -0.309000 0.000000 -0.951100
vn -0.809000 0.000000 -0.587800
vn 0.809000 0.587800 -0.000000
vn 0.000000 -1.000000 0.000000
vn 0.309000 0.951100 -0.000000
vn 0.468000 0.883800 0.000000
vn -0.110000 -0.329300 0.937800
vn 0.567100 0.823600 0.000000
vn -0.338000 0.000000 0.941200
vn -0.567100 -0.823600 0.000000
vn 0.567100 -0.823600 0.000000
vn 0.316800 0.948500 0.000000
vn -0.356600 0.934300 0.000000
vn 0.390100 -0.117400 -0.913200
vn 0.309000 -0.951100 0.000000
vn -0.309000 -0.951100 0.000000
vn -0.809000 -0.587800 0.000000
vn -0.309000 0.951100 -0.000000
vn 0.000000 0.000000 -1.000000
vn -0.809000 0.587800 -0.000000
vn 0.000000 0.000000 1.000000
vn -0.468000 0.883800 0.000000
vn 0.390100 -0.117400 0.913200
vn -0.338000 0.000000 -0.941200
vn -0.110000 -0.329300 -0.937800
vn -0.398200 -0.137000 -0.907000
vn 0.338000 -0.000000 -0.941200
vn 0.120500 -0.315800 -0.941100
vn 0.380200 -0.003500 -0.924900
vn -0.014500 0.004100 -0.999900
vn 0.467700 -0.131800 -0.874000
vn -0.781400 0.015900 -0.623800
vn -0.675300 0.235300 -0.699000
vn -0.595200 -0.012100 -0.803500
vn 0.014500 0.004100 -0.999900
vn -0.713200 -0.248500 -0.655400
vn 0.781400 0.015900 -0.623800
vn 0.675300 0.235300 -0.699000
vn 0.595200 -0.012100 0.803500
vn -0.014500 0.004100 0.999900
vn 0.713200 -0.248500 0.655400
vn -0.781400 0.015900 0.623800
vn -0.675300 0.235300 0.699000
vn -0.380200 -0.003500 0.924900
vn 0.014500 0.004100 0.999900
vn -0.467700 -0.131800 0.874000
vn 0.781400 0.015900 0.623800
vn 0.675300 0.235300 0.699000
vn -0.398200 -0.137000 0.907000
vn 0.120500 -0.315800 0.941100
usemtl Material
s off
f 3//1 4//1 1//1
f 12//2 2//2 1//2
f 4//3 13//3 9//3
f 5//4 6//4 4//4
f 6//5 16//5 13//5
f 10//6 8//6 7//6
f 7//2 8//2 12//2
f 11//7 7//7 9//7
f 11//8 15//8 14//8
f 13//9 16//9 15//9
f 19//10 18//10 17//10
f 17//11 18//11 28//11
f 20//12 17//12 25//12
f 20//13 22//13 21//13
f 29//14 32//14 22//14
f 26//15 27//15 23//15
f 28//11 24//11 23//11
f 27//16 29//16 25//16
f 30//17 31//17 27//17
f 31//18 32//18 29//18
f 36//19 38//19 37//19
f 38//20 40//20 39//20
f 71//21 72//21 74//21
f 40//22 42//22 41//22
f 42//23 44//23 43//23
f 44//24 46//24 45//24
f 46//25 48//25 47//25
f 55//22 34//22 72//22
f 48//26 50//26 49//26
f 50//27 52//27 51//27
f 52//28 42//28 40//28
f 54//29 36//29 35//29
f 52//30 54//30 53//30
f 61//31 56//31 34//31
f 45//32 49//32 53//32
f 64//33 62//33 56//33
f 60//34 63//34 67//34
f 65//35 33//35 60//35
f 58//36 66//36 33//36
f 57//37 33//37 65//37
f 65//38 59//38 57//38
f 58//39 57//39 59//39
f 66//40 63//40 60//40
f 66//41 33//41 70//41
f 69//42 58//42 68//42
f 73//43 74//43 76//43
f 76//44 78//44 77//44
f 78//45 80//45 79//45
f 80//27 82//27 81//27
f 84//46 62//46 64//46
f 83//47 61//47 71//47
f 82//48 84//48 83//48
f 62//49 82//49 78//49
f 68//50 70//50 69//50
f 58//51 69//51 70//51
f 33//52 58//52 57//52
f 63//53 66//53 65//53
f 67//54 63//54 65//54
f 65//52 66//52 59//52
f 66//55 58//55 59//55
f 66//56 68//56 58//56
f 2//57 3//57 1//57
f 9//58 12//58 1//58
f 1//59 4//59 9//59
f 3//60 5//60 4//60
f 4//61 6//61 13//61
f 11//62 10//62 7//62
f 9//63 7//63 12//63
f 13//64 11//64 9//64
f 10//65 11//65 14//65
f 11//66 13//66 15//66
f 20//67 19//67 17//67
f 25//68 17//68 28//68
f 29//69 20//69 25//69
f 19//70 20//70 21//70
f 20//71 29//71 22//71
f 24//72 26//72 23//72
f 25//73 28//73 23//73
f 23//74 27//74 25//74
f 26//75 30//75 27//75
f 27//76 31//76 29//76
f 35//19 36//19 37//19
f 37//20 38//20 39//20
f 73//21 71//21 74//21
f 39//22 40//22 41//22
f 41//23 42//23 43//23
f 43//24 44//24 45//24
f 45//25 46//25 47//25
f 71//22 55//22 72//22
f 47//26 48//26 49//26
f 49//27 50//27 51//27
f 40//28 38//28 36//28
f 36//28 54//28 52//28
f 52//28 50//28 48//28
f 48//28 46//28 52//28
f 44//28 42//28 52//28
f 40//28 36//28 52//28
f 52//28 46//28 44//28
f 53//29 54//29 35//29
f 51//30 52//30 53//30
f 55//31 61//31 34//31
f 53//32 35//32 37//32
f 37//32 39//32 41//32
f 41//32 43//32 45//32
f 45//32 47//32 49//32
f 49//32 51//32 53//32
f 53//32 37//32 41//32
f 41//32 45//32 53//32
f 61//33 64//33 56//33
f 67//77 65//77 60//77
f 33//40 66//40 60//40
f 68//41 66//41 70//41
f 75//43 73//43 76//43
f 75//44 76//44 77//44
f 77//45 78//45 79//45
f 79//27 80//27 81//27
f 83//46 84//46 64//46
f 71//47 73//47 75//47
f 75//47 77//47 71//47
f 79//47 81//47 83//47
f 83//47 64//47 61//47
f 61//47 55//47 71//47
f 71//47 77//47 79//47
f 79//47 83//47 71//47
f 81//48 82//48 83//48
f 78//49 76//49 74//49
f 74//49 72//49 78//49
f 34//49 56//49 62//49
f 62//49 84//49 82//49
f 82//49 80//49 78//49
f 78//49 72//49 34//49
f 34//49 62//49 78//49
f 33//78 58//78 70//78
