# Blender v2.76 (sub 0) OBJ File: 'Track.blend'
# www.blender.org
mtllib texturedTrack.mtl
o Cube.002
v 114.133156 0.000011 -69.856659
v 114.133156 0.000033 -200.000000
v 200.000000 0.000033 -200.000000
v 200.000000 0.000011 -69.856659
v 114.133156 20.000011 -69.856659
v 200.000000 20.000011 -69.856659
v 200.000000 20.000032 -200.000000
v 114.133156 20.000032 -200.000000
v 114.133156 -0.000033 200.000000
v 200.000000 -0.000033 200.000000
v 200.000000 19.999968 200.000000
v 114.133156 19.999968 200.000000
v -200.000000 -0.000015 91.889824
v -200.000000 -0.000033 200.000000
v -200.000000 19.999968 200.000000
v -200.000000 19.999985 91.889824
v -79.229637 0.000033 -200.000000
v -200.000000 0.000033 -200.000000
v -200.000000 20.000032 -200.000000
v -79.229637 20.000032 -200.000000
v -200.000000 -0.000001 7.522020
v -200.000000 19.999998 7.522023
v 200.000000 -0.000015 91.889824
v 200.000000 19.999985 91.889824
v 114.133156 19.999985 91.889824
v 114.133156 -0.000015 91.889824
v -200.000000 0.000011 -69.856659
v -200.000000 20.000011 -69.856659
v 200.000000 -0.000001 7.522013
v 200.000000 19.999998 7.522017
v 114.133156 19.999998 7.522017
v 114.133156 -0.000001 7.522020
v 14.017360 -0.000001 7.522020
v 14.017361 0.000011 -69.856659
v 14.017359 -0.000033 200.000000
v 14.017359 -0.000015 91.889824
v 14.017359 35.921486 200.000000
v 14.017366 0.000033 -200.000000
v -79.229645 0.000011 -69.856659
v -79.229637 20.000011 -69.856659
v -79.229645 -0.000033 200.000000
v -79.229645 19.999968 200.000000
v -79.229637 19.999985 91.889824
v -79.229645 -0.000015 91.889824
v -200.000000 20.000006 -31.167316
v -79.229637 20.000006 -31.167318
v -79.229645 -0.000001 7.522020
v 14.017366 35.921555 -200.000000
v 14.017366 35.921505 91.889832
v 14.017366 35.921532 -69.856651
v -79.229637 19.999998 7.522017
v 114.133156 120.000008 -69.856636
v -79.229637 120.000008 -69.856636
v -79.229637 120.000000 7.522033
v 114.133156 120.000000 7.522033
v -79.229637 119.999985 91.889847
v 114.133156 119.999985 91.889847
vt 0.999928 1.004367
vt 0.000072 1.004367
vt 0.000072 0.000072
vt 0.999928 0.000072
vt 0.478398 0.000079
vt 0.478398 1.004367
vt 0.532787 0.000000
vt 0.000000 0.000000
vt 0.000000 1.004367
vt 0.532787 1.004367
vt 0.532787 0.004367
vt 0.239238 0.000079
vt 1.000000 0.478397
vt 0.000055 0.478397
vt 1.000000 0.000055
vt 1.000000 0.000000
vt 0.000000 0.370370
vt 1.000000 0.370370
vt 1.000000 0.740741
vt 0.000000 0.740741
vt 1.000000 0.999945
vt 0.000055 0.999945
vt 1.000000 1.000000
vt 0.000000 1.000000
vt 1.000000 0.324074
vt 0.000000 0.323269
vt 1.000000 0.277778
vt 0.000000 0.277778
vt 1.000000 0.555556
vt 0.000000 0.555556
vt 0.510226 0.394037
vt 0.471032 0.626816
vt 0.365060 0.649102
vt 0.379030 0.355818
vt 0.221714 0.611270
vt 0.259815 0.371387
vn 0.000000 0.000000 -1.000000
vn -1.000000 0.000000 0.000000
vn 1.000000 0.000000 0.000000
vn 0.000000 -0.000000 1.000000
vn 0.000000 1.000000 0.000000
vn 0.157100 0.987600 0.000000
vn -0.168300 0.985700 0.000000
vn 0.000000 -1.000000 -0.000000
usemtl Material.010
s 1
f 5/1/1 40/2/1 53/3/1 52/4/1
f 51/5/2 43/4/2 56/1/2 54/6/2
f 31/7/3 5/8/3 52/9/3 55/10/3
f 43/3/4 25/4/4 57/1/4 56/2/4
f 25/11/3 31/8/3 55/9/3 57/10/3
f 40/3/2 46/12/2 51/5/2 54/6/2 53/2/2
usemtl Material.010_asphalt_texture409.jpg.001
f 31/13/5 30/14/5 6/3/5 5/15/5
f 40/16/5 28/3/5 45/17/5 46/18/5
f 16/8/5 43/16/5 51/19/5 22/20/5
f 25/21/5 24/22/5 30/14/5 31/13/5
f 45/17/5 22/20/5 51/19/5 46/18/5
usemtl Material.010_Terrain-Road.jpg.001
f 5/19/5 6/23/5 7/24/5 8/20/5
f 12/19/5 11/23/5 24/24/5 25/20/5
f 28/15/5 40/25/5 20/26/5 19/8/5
f 15/16/5 42/27/5 43/28/5 16/8/5
f 50/29/6 5/19/6 8/20/6 48/30/6
f 40/25/7 50/29/7 48/30/7 20/26/7
f 37/29/6 12/19/6 25/20/6 49/30/6
f 42/27/7 37/29/7 49/30/7 43/28/7
usemtl Material.010_NONE
f 1/8/8 2/8/8 3/8/8 4/8/8
f 9/8/4 10/8/4 11/8/4 12/8/4
f 4/8/3 3/8/3 7/8/3 6/8/3
f 13/8/2 14/8/2 15/8/2 16/8/2
f 17/8/1 18/8/1 19/8/1 20/8/1
f 21/8/2 13/8/2 16/8/2 22/8/2
f 10/8/3 23/8/3 24/8/3 11/8/3
f 9/8/8 26/8/8 23/8/8 10/8/8
f 18/8/2 27/8/2 28/8/2 19/8/2
f 29/8/3 4/8/3 6/8/3 30/8/3
f 32/8/8 1/8/8 4/8/8 29/8/8
f 33/8/8 34/8/8 1/8/8 32/8/8
f 35/8/8 36/8/8 26/8/8 9/8/8
f 3/8/1 2/8/1 8/8/1 7/8/1
f 35/8/4 9/8/4 12/8/4 37/8/4
f 34/8/8 38/8/8 2/8/8 1/8/8
f 27/8/8 18/8/8 17/8/8 39/8/8
f 14/8/4 41/8/4 42/8/4 15/8/4
f 14/8/8 13/8/8 44/8/8 41/8/8
f 21/8/8 27/8/8 39/8/8 47/8/8
f 38/8/1 17/8/1 20/8/1 48/8/1
f 2/8/1 38/8/1 48/8/1 8/8/1
f 39/8/8 17/8/8 38/8/8 34/8/8
f 41/8/4 35/8/4 37/8/4 42/8/4
f 41/8/8 44/8/8 36/8/8 35/8/8
f 47/8/8 39/8/8 34/8/8 33/8/8
f 49/8/1 25/8/1 43/8/1
f 50/8/4 40/8/4 5/8/4
f 44/8/8 47/8/8 33/8/8 36/8/8
f 13/8/8 21/8/8 47/8/8 44/8/8
f 36/8/8 33/8/8 32/8/8 26/8/8
f 26/8/8 32/8/8 29/8/8 23/8/8
f 23/8/3 29/8/3 30/8/3 24/8/3
f 27/8/2 21/8/2 22/8/2 45/8/2 28/8/2
f 52/31/5 53/32/5 54/33/5 55/34/5
f 55/34/5 54/33/5 56/35/5 57/36/5
