# Blender v2.76 (sub 0) OBJ File: 'trackv2seperated.blend'
# www.blender.org
mtllib trackv2walls.mtl
o Grid.002
v 27.513546 -143.610031 1050.000000
v -16.666672 -143.610031 1050.000000
v -50.000000 -143.610031 1550.000000
v -500.021973 -143.610031 1550.000000
v -500.021973 -143.610031 1451.005005
v -600.021973 -143.610031 1550.000000
v -523.263367 -143.610031 1049.898682
v -500.021973 -143.610031 -200.000000
v -500.021973 -143.610031 -160.000000
v -20.000000 -143.610031 -160.000000
v 20.000000 -143.610031 -200.000000
v 20.000000 -143.610031 155.589478
v -20.000000 -143.610031 155.589478
v -140.004395 -143.610031 -160.000000
v -410.017578 -143.610031 -160.000000
v -140.004395 -143.610031 -200.000000
v -410.017578 -143.610031 -200.000000
v -230.008789 -143.610031 -210.000000
v -320.013184 -143.610031 -210.000000
v -230.008789 -143.610031 -150.000000
v -320.013184 -143.610031 -150.000000
v -500.021973 -143.610031 1094.444458
v -600.021973 -143.610031 1138.888916
v -557.990173 -143.610031 1049.797363
v -465.000000 -143.610031 873.692871
v -465.000000 -143.610031 543.000000
v -465.000000 -143.610031 947.000000
v -465.000000 -143.610031 435.000000
v -568.000000 -143.610031 -184.000000
v -568.125000 -143.610031 435.000000
v -568.125000 -143.610031 340.209229
v -568.125000 -143.610031 -80.375122
v -500.390289 -143.610031 947.161560
v 47.222229 -143.610031 1450.000122
v 56.381561 -143.610031 293.993652
v 119.413879 -143.610031 394.794464
v 149.093414 -143.610031 495.595306
v 4.215897 -143.610031 697.197021
v -54.380676 -143.610031 797.997925
v 2.817917 -143.610031 949.199158
v -59.535751 -143.610031 999.599609
v 18.782700 -143.610031 999.599609
v 47.222229 -143.610031 243.593231
v 77.740753 -143.610031 344.394043
v 141.641754 -143.610031 445.194885
v 127.721069 -143.610031 545.995728
v 58.565491 -143.610031 646.796631
v -31.926880 -143.610031 747.597473
v -54.380676 -143.610031 848.398315
v -31.333664 -143.610031 898.798706
v 29.154587 -143.610031 1261.887207
v -87.679733 -143.610031 1450.284058
v -615.000000 -143.610031 435.000000
v -47.222229 -143.610031 243.593231
v -38.062881 -143.610031 293.993652
v -16.703690 -143.610031 344.394073
v 24.969437 -143.610031 394.794495
v 47.197311 -143.610031 445.194916
v 54.648987 -143.610031 495.595337
v 33.276642 -143.610031 545.995789
v -2.181244 -143.610031 596.396240
v -35.878937 -143.610031 646.796631
v -90.228531 -143.610031 697.197021
v -126.371315 -143.610031 747.597473
v -148.825104 -143.610031 848.398315
v -125.778107 -143.610031 898.798706
v -91.626511 -143.610031 949.199158
v -47.222229 -143.610031 1411.321167
v -26.742706 -143.610031 1261.887207
v -615.000000 -143.610031 -183.711060
v -415.000000 -143.610031 947.300171
v -2.777771 -143.610031 1500.000000
v -415.000000 -143.610031 431.289124
v 45.001572 -143.610031 1392.028809
v -44.444443 -143.610031 1392.028809
v 27.513546 175.091736 1050.000000
v -16.666672 175.091736 1050.000000
v -500.021973 175.091736 1550.000000
v -500.021973 175.091736 1451.005005
v -600.021973 175.091736 1550.000000
v -523.263367 175.091736 1049.898682
v -500.021973 175.091736 -200.000000
v -500.021973 175.091736 -160.000000
v -20.000000 175.091736 -160.000000
v 20.000000 175.091736 -200.000000
v 20.000000 175.091736 155.589478
v -20.000000 175.091736 155.589478
v -140.004395 175.091736 -160.000000
v -410.017578 175.091736 -160.000000
v -140.004395 175.091736 -200.000000
v -410.017578 175.091736 -200.000000
v -230.008789 175.091736 -210.000000
v -320.013184 175.091736 -210.000000
v -230.008789 175.091736 -150.000000
v -320.013184 175.091736 -150.000000
v -500.021973 175.091736 1094.444458
v -600.021973 175.091736 1138.888916
v -557.990173 175.091736 1049.797363
v -465.000000 175.091736 873.692871
v -465.000000 175.091736 543.000000
v -465.000000 175.091736 947.000000
v -465.000000 175.091736 435.000000
v -568.000000 175.091736 -184.000000
v -568.125000 175.091736 435.000000
v -568.125000 175.091736 340.209229
v -568.125000 175.091736 -80.375122
v -500.390289 175.091736 947.161560
v 56.381561 175.091736 293.993652
v 119.413879 175.091736 394.794464
v 149.093414 175.091736 495.595306
v 4.215897 175.091736 697.197021
v -54.380676 175.091736 797.997925
v 2.817917 175.091736 949.199158
v -59.535751 175.091736 999.599609
v 18.782700 175.091736 999.599609
v 47.222229 175.091736 243.593231
v 77.740753 175.091736 344.394043
v 141.641754 175.091736 445.194885
v 127.721069 175.091736 545.995728
v 58.565491 175.091736 646.796631
v -31.926880 175.091736 747.597473
v -54.380676 175.091736 848.398315
v -31.333664 175.091736 898.798706
v -87.679733 175.091736 1450.284058
v -615.000000 175.091736 435.000000
v -47.222229 175.091736 243.593231
v -38.062881 175.091736 293.993652
v -16.703690 175.091736 344.394073
v 24.969437 175.091736 394.794495
v 47.197311 175.091736 445.194916
v 54.648987 175.091736 495.595337
v 33.276642 175.091736 545.995789
v -2.181244 175.091736 596.396240
v -35.878937 175.091736 646.796631
v -90.228531 175.091736 697.197021
v -126.371315 175.091736 747.597473
v -148.825104 175.091736 848.398315
v -125.778107 175.091736 898.798706
v -91.626511 175.091736 949.199158
v -47.222229 175.091736 1411.321167
v -26.742706 175.091736 1261.887207
v -615.000000 175.091736 -183.711060
v -415.000000 175.091736 947.300171
v -415.000000 175.091736 431.289124
v -44.444443 175.091736 1392.028809
v 29.154587 278.872131 1261.887207
v -50.000000 238.815414 1550.000000
v 47.222229 238.815414 1450.000122
v -2.777771 238.815414 1500.000000
v 45.001572 238.815414 1392.028809
v 27.513546 -143.610031 1050.000000
v 20.000000 -143.610031 -200.000000
v 20.000000 -143.610031 155.589478
v 47.222229 -143.610031 1450.000122
v 56.381561 -143.610031 293.993652
v 119.413879 -143.610031 394.794464
v 149.093414 -143.610031 495.595306
v 4.215897 -143.610031 697.197021
v -54.380676 -143.610031 797.997925
v 2.817917 -143.610031 949.199158
v 18.782700 -143.610031 999.599609
v 47.222229 -143.610031 243.593231
v 77.740753 -143.610031 344.394043
v 141.641754 -143.610031 445.194885
v 127.721069 -143.610031 545.995728
v 58.565491 -143.610031 646.796631
v -31.926880 -143.610031 747.597473
v -54.380676 -143.610031 848.398315
v -31.333664 -143.610031 898.798706
v 29.154587 -143.610031 1261.887207
v 45.001572 -143.610031 1392.028809
v 27.513546 175.091736 1050.000000
v 20.000000 175.091736 -200.000000
v 20.000000 175.091736 155.589478
v 56.381561 175.091736 293.993652
v 119.413879 175.091736 394.794464
v 149.093414 175.091736 495.595306
v 4.215897 175.091736 697.197021
v -54.380676 175.091736 797.997925
v 2.817917 175.091736 949.199158
v 18.782700 175.091736 999.599609
v 47.222229 175.091736 243.593231
v 77.740753 175.091736 344.394043
v 141.641754 175.091736 445.194885
v 127.721069 175.091736 545.995728
v 58.565491 175.091736 646.796631
v -31.926880 175.091736 747.597473
v -54.380676 175.091736 848.398315
v -31.333664 175.091736 898.798706
v 29.154587 278.872131 1261.887207
v 47.222229 238.815414 1450.000122
v 45.001572 238.815414 1392.028809
v 135.969772 -143.610031 341.258423
v 135.969772 175.091736 341.258423
v 199.870773 -143.610031 442.059265
v 199.870773 175.091736 442.059265
v 114.610580 -143.610031 290.858032
v 114.610580 175.091736 290.858032
v 185.950089 -143.610031 542.860107
v 185.950089 175.091736 542.860107
v 177.642899 -143.610031 391.658844
v 177.642899 175.091736 391.658844
v 116.794510 -143.610031 643.661011
v 116.794510 175.091736 643.661011
v 207.322433 -143.610031 492.459686
v 207.322433 175.091736 492.459686
v 26.302143 -143.610031 744.461853
v 26.302143 175.091736 744.461853
v 3.848347 -143.610031 845.262695
v 3.848347 175.091736 845.262695
v 62.444920 -143.610031 694.061401
v 62.444920 175.091736 694.061401
v 26.895359 -143.610031 895.663086
v 26.895359 175.091736 895.663086
v 3.848347 -143.610031 794.862305
v 3.848347 175.091736 794.862305
v 61.046940 -143.610031 946.063538
v 61.046940 175.091736 946.063538
v 85.742569 -143.610031 1046.864380
v 85.742569 175.091736 1046.864380
v 78.229019 -143.610031 152.453857
v 78.229019 175.091736 152.453857
v 77.011719 -143.610031 996.463989
v 77.011719 175.091736 996.463989
v 78.229019 -143.610031 -203.135620
v 78.229019 175.091736 -203.135620
v 105.451248 -143.610031 240.457611
v 105.451248 175.091736 240.457611
v 87.383606 -143.610031 1258.751587
v 87.383606 278.872131 1258.751587
v 105.451248 -143.610031 1446.864502
v 105.451248 238.815414 1446.864502
v 103.230591 -143.610031 1388.893188
v 103.230591 238.815414 1388.893188
v -50.000000 -143.610031 1550.000000
v 47.222229 -143.610031 1450.000122
v -2.777771 -143.610031 1500.000000
v -50.000000 238.815414 1550.000000
v 47.222229 238.815414 1450.000122
v -2.777771 238.815414 1500.000000
v -6.776237 -143.610031 1592.004272
v -6.776237 238.815414 1592.004272
v 90.445992 -143.610031 1492.004395
v 90.445992 238.815414 1492.004395
v 40.445992 -143.610031 1542.004272
v 40.445992 238.815414 1542.004272
v -500.021973 -143.610031 1613.887329
v -600.021973 -143.610031 1613.887329
v -500.021973 175.091736 1613.887329
v -600.021973 175.091736 1613.887329
v -50.000000 -143.610031 1613.887329
v -50.000000 238.815414 1613.887329
v -717.416504 -143.610031 1537.906250
v -717.416504 175.091736 1537.906250
v -685.519531 -143.610031 422.906189
v -685.519531 175.091736 422.906189
v -617.784790 -143.610031 935.067749
v -617.784790 175.091736 935.067749
v -717.416504 -143.610031 1126.795166
v -717.416504 175.091736 1126.795166
v -732.394531 -143.610031 -195.804871
v -732.394531 175.091736 -195.804871
v -675.384705 -143.610031 1037.703613
v -675.384705 175.091736 1037.703613
v -582.394531 -143.610031 861.599060
v -582.394531 175.091736 861.599060
v -582.394531 -143.610031 530.906189
v -582.394531 175.091736 530.906189
v -732.394531 -143.610031 422.906189
v -732.394531 175.091736 422.906189
v -618.853271 -143.610031 -297.705811
v -618.853271 175.091736 -297.705811
v -143.857635 -143.610031 -313.994751
v -143.857635 175.091736 -313.994751
v -413.870819 -143.610031 -313.994751
v -413.870819 175.091736 -313.994751
v 16.146759 -143.610031 -313.994751
v 16.146759 175.091736 -313.994751
v -233.862030 -143.610031 -323.994751
v -233.862030 175.091736 -323.994751
v -571.853271 -143.610031 -297.994751
v -571.853271 175.091736 -297.994751
v -323.866425 -143.610031 -323.994751
v -323.866425 175.091736 -323.994751
v -503.875214 -143.610031 -313.994751
v -503.875214 175.091736 -313.994751
vn 0.000000 -1.000000 0.000000
vn 0.000000 1.000000 0.000000
vn 0.102500 0.000000 -0.994700
vn 0.000000 0.000000 -1.000000
vn -0.110400 0.000000 -0.993900
vn 0.110400 0.000000 -0.993900
vn -0.759900 0.000000 -0.650000
vn -1.000000 0.000000 0.000000
vn -0.676700 0.000000 0.736200
vn 0.074000 0.000000 0.997300
vn 0.006000 0.000000 -1.000000
vn -0.870200 0.000000 -0.492700
vn -0.886600 0.000000 0.462600
vn 1.000000 0.000000 0.000000
vn 0.001700 0.000000 1.000000
vn 0.693700 0.000000 0.720300
vn 0.990900 0.000000 0.134800
vn 0.998900 0.000000 0.047500
vn 0.761700 0.000000 -0.647900
vn 0.843500 0.000000 -0.537100
vn 0.827800 0.000000 -0.561000
vn 0.909400 0.000000 -0.415900
vn 0.976100 0.000000 0.217400
vn 0.812600 0.000000 0.582800
vn 0.680000 0.000000 0.733200
vn 0.831300 0.000000 0.555800
vn 0.817900 0.000000 0.575400
vn 0.920600 0.000000 0.390400
vn 0.989200 0.000000 -0.146300
vn 0.915000 0.000000 -0.403500
vn 0.770700 0.000000 -0.637200
vn 0.920700 0.000000 -0.390200
vn 0.983900 0.000000 -0.178800
vn 0.955300 0.000000 0.295500
vn 0.140200 -0.990100 0.000000
vn 0.723200 0.000000 -0.690600
vn -0.102500 0.000000 0.994700
vn 0.006100 0.000000 1.000000
vn 0.229100 0.000000 0.973400
vn 0.000000 0.000000 1.000000
vn 0.110400 0.000000 0.993900
vn -0.110400 0.000000 0.993900
vn 0.999400 0.000000 -0.033800
vn 0.989800 0.000000 0.142500
vn -0.955300 0.000000 0.295500
vn -0.983900 0.000000 0.178800
vn -0.920700 0.000000 0.390200
vn -0.770700 0.000000 0.637200
vn -0.915000 0.000000 0.403500
vn -0.989200 0.000000 0.146300
vn -0.920600 0.000000 -0.390400
vn -0.824600 0.000000 -0.565700
vn -0.680000 0.000000 -0.733200
vn -0.812600 0.000000 -0.582800
vn -0.913500 0.000000 -0.406900
vn -0.909400 0.000000 0.415900
vn -0.827800 0.000000 0.561000
vn -0.953300 0.000000 0.302000
vn -0.985300 0.000000 0.170700
vn -1.000000 0.000000 0.007700
vn -0.992700 0.000000 0.120900
vn -0.999300 0.000000 0.038300
vn -0.707100 0.000000 -0.707100
vn -0.727000 0.000000 -0.686600
vn 0.023700 -0.897900 0.439600
vn -0.053800 0.000000 -0.998600
vn 0.053800 0.000000 0.998600
vn -0.015700 -0.956200 -0.292400
vn -0.696900 0.000000 0.717200
vn 0.696900 0.000000 -0.717200
vn 0.904400 0.000000 0.426700
vn 0.872100 0.000000 0.489400
vn 0.900900 0.000000 0.434000
vn -0.999400 0.000000 0.033800
usemtl Material
s off
f 80//1 78//1 249//1 250//1
f 3//2 4//2 247//2 251//2
f 97//1 80//1 254//1 260//1
f 25//2 26//2 267//2 265//2
f 142//1 125//1 270//1 262//1
f 6//2 23//2 259//2 253//2
f 99//1 107//1 258//1 266//1
f 125//3 53//3 269//3 270//3
f 104//4 30//4 53//4 125//4
f 53//2 70//2 261//2 269//2
f 92//1 93//1 284//1 280//1
f 103//1 142//1 272//1 282//1
f 19//2 18//2 279//2 283//2
f 70//2 29//2 281//2 271//2
f 93//1 91//1 276//1 284//1
f 17//2 19//2 283//2 275//2
f 85//1 90//1 274//1 278//1
f 84//4 10//4 14//4 88//4
f 88//5 14//5 20//5 94//5
f 94//4 20//4 21//4 95//4
f 89//6 95//6 21//6 15//6
f 89//4 15//4 9//4 83//4
f 106//7 83//7 9//7 32//7
f 105//8 106//8 32//8 31//8
f 105//9 31//9 28//9 102//9
f 144//10 102//10 28//10 73//10
f 144//8 73//8 71//8 143//8
f 143//11 71//11 27//11 101//11
f 101//12 27//12 7//12 81//12
f 96//13 81//13 7//13 22//13
f 96//14 79//14 5//14 22//14
f 79//15 5//15 52//15 124//15
f 140//16 124//16 52//16 68//16
f 145//17 75//17 69//17 141//17
f 77//18 141//18 69//18 2//18
f 114//19 77//19 2//19 41//19
f 139//20 114//20 41//20 67//20
f 138//21 139//21 67//21 66//21
f 137//22 138//22 66//22 65//22
f 136//23 137//23 65//23 64//23
f 135//24 136//24 64//24 63//24
f 134//25 135//25 63//25 62//25
f 133//26 134//26 62//26 61//26
f 132//27 133//27 61//27 60//27
f 131//28 132//28 60//28 59//28
f 130//29 131//29 59//29 58//29
f 129//30 130//30 58//30 57//30
f 128//31 129//31 57//31 56//31
f 127//32 128//32 56//32 55//32
f 127//33 55//33 54//33 126//33
f 126//34 54//34 13//34 87//34
f 84//14 87//14 13//14 10//14
f 4//2 6//2 248//2 247//2
f 78//35 147//35 252//35 249//35
f 4//4 78//4 147//4 3//4
f 80//4 78//4 4//4 6//4
f 256//36 268//36 267//36 255//36
f 262//14 270//14 269//14 261//14
f 100//1 99//1 266//1 268//1
f 23//2 24//2 263//2 259//2
f 30//37 104//37 256//37 255//37
f 26//2 30//2 255//2 267//2
f 98//1 97//1 260//1 264//1
f 104//1 100//1 268//1 256//1
f 24//2 33//2 257//2 263//2
f 70//37 142//37 262//37 261//37
f 107//1 98//1 264//1 258//1
f 33//2 25//2 265//2 257//2
f 272//38 271//38 281//38 282//38
f 282//39 281//39 285//39 286//39
f 276//40 286//40 285//40 275//40
f 276//41 275//41 283//41 284//41
f 280//40 284//40 283//40 279//40
f 274//42 280//42 279//42 273//42
f 274//40 273//40 277//40 278//40
f 29//2 8//2 285//2 281//2
f 18//2 16//2 273//2 279//2
f 82//1 103//1 282//1 286//1
f 90//1 92//1 280//1 274//1
f 142//43 70//43 271//43 272//43
f 8//2 17//2 275//2 285//2
f 16//2 11//2 277//2 273//2
f 91//1 82//1 286//1 276//1
usemtl Material.002
f 68//44 75//44 145//44 140//44
f 86//8 85//8 11//8 12//8
f 86//45 12//45 43//45 116//45
f 108//46 116//46 43//46 35//46
f 117//47 108//47 35//47 44//47
f 117//48 44//48 36//48 109//48
f 118//49 109//49 36//49 45//49
f 118//50 45//50 37//50 110//50
f 119//51 110//51 37//51 46//51
f 119//52 46//52 47//52 120//52
f 120//53 47//53 38//53 111//53
f 121//54 111//54 38//54 48//54
f 121//55 48//55 39//55 112//55
f 122//8 112//8 39//8 49//8
f 122//56 49//56 50//56 123//56
f 123//57 50//57 40//57 113//57
f 113//58 40//58 42//58 115//58
f 76//59 115//59 42//59 1//59
f 76//60 1//60 51//60 146//60
f 146//61 51//61 74//61 150//61
f 148//62 150//62 74//62 34//62
f 148//63 34//63 72//63 149//63
f 147//64 149//64 72//64 3//64
f 174//8 173//8 152//8 153//8
f 174//45 153//45 162//45 182//45
f 175//46 182//46 162//46 155//46
f 183//47 175//47 155//47 163//47
f 183//48 163//48 156//48 176//48
f 184//49 176//49 156//49 164//49
f 184//50 164//50 157//50 177//50
f 185//51 177//51 157//51 165//51
f 185//52 165//52 166//52 186//52
f 186//53 166//53 158//53 178//53
f 187//54 178//54 158//54 167//54
f 187//55 167//55 159//55 179//55
f 188//8 179//8 159//8 168//8
f 188//56 168//56 169//56 189//56
f 189//57 169//57 160//57 180//57
f 180//58 160//58 161//58 181//58
f 172//59 181//59 161//59 151//59
f 172//60 151//60 170//60 190//60
f 190//61 170//61 171//61 192//61
f 191//62 192//62 171//62 154//62
f 222//8 226//8 225//8 221//8
f 222//45 221//45 227//45 228//45
f 198//46 228//46 227//46 197//46
f 194//47 198//47 197//47 193//47
f 194//48 193//48 201//48 202//48
f 196//49 202//49 201//49 195//49
f 196//50 195//50 205//50 206//50
f 200//51 206//51 205//51 199//51
f 200//52 199//52 203//52 204//52
f 204//53 203//53 211//53 212//53
f 208//54 212//54 211//54 207//54
f 208//55 207//55 215//55 216//55
f 210//8 216//8 215//8 209//8
f 210//56 209//56 213//56 214//56
f 214//57 213//57 217//57 218//57
f 218//58 217//58 223//58 224//58
f 220//59 224//59 223//59 219//59
f 220//60 219//60 229//60 230//60
f 230//61 229//61 233//61 234//61
f 232//62 234//62 233//62 231//62
f 180//1 189//1 214//1 218//1
f 165//2 166//2 203//2 199//2
f 182//1 174//1 222//1 228//1
f 160//2 161//2 223//2 217//2
f 186//1 185//1 200//1 204//1
f 162//2 155//2 197//2 227//2
f 181//1 180//1 218//1 224//1
f 166//2 158//2 211//2 203//2
f 175//1 182//1 228//1 198//1
f 161//2 151//2 219//2 223//2
f 178//1 186//1 204//1 212//1
f 155//2 163//2 193//2 197//2
f 172//1 181//1 224//1 220//1
f 158//2 167//2 207//2 211//2
f 183//1 175//1 198//1 194//1
f 187//1 178//1 212//1 208//1
f 163//2 156//2 201//2 193//2
f 151//2 170//2 229//2 219//2
f 167//2 159//2 215//2 207//2
f 176//1 183//1 194//1 202//1
f 190//65 172//65 220//65 230//65
f 179//1 187//1 208//1 216//1
f 156//2 164//2 195//2 201//2
f 154//66 191//66 232//66 231//66
f 159//2 168//2 209//2 215//2
f 184//1 176//1 202//1 196//1
f 173//67 152//67 225//67 226//67
f 188//1 179//1 216//1 210//1
f 164//2 157//2 205//2 195//2
f 170//2 171//2 233//2 229//2
f 168//2 169//2 213//2 209//2
f 177//1 184//1 196//1 206//1
f 192//68 190//68 230//68 234//68
f 152//2 153//2 221//2 225//2
f 189//1 188//1 210//1 214//1
f 157//2 165//2 199//2 205//2
f 171//2 154//2 231//2 233//2
f 174//1 173//1 226//1 222//1
f 169//2 160//2 217//2 213//2
f 185//1 177//1 206//1 200//1
f 191//1 192//1 234//1 232//1
f 153//2 162//2 227//2 221//2
f 239//63 236//63 237//63 240//63
f 238//64 240//64 237//64 235//64
f 244//63 243//63 245//63 246//63
f 242//64 246//64 245//64 241//64
f 237//2 235//2 241//2 245//2
f 236//2 237//2 245//2 243//2
f 239//69 236//69 243//69 244//69
f 238//1 240//1 246//1 242//1
f 240//1 239//1 244//1 246//1
f 235//70 238//70 242//70 241//70
f 247//4 248//4 250//4 249//4
f 249//4 252//4 251//4 247//4
f 147//8 3//8 251//8 252//8
f 6//14 80//14 250//14 248//14
f 254//14 253//14 259//14 260//14
f 260//71 259//71 263//71 264//71
f 258//72 264//72 263//72 257//72
f 258//73 257//73 265//73 266//73
f 266//14 265//14 267//14 268//14
f 80//3 6//3 253//3 254//3
f 97//14 80//14 6//14 23//14
f 24//71 98//71 97//71 23//71
f 24//72 33//72 107//72 98//72
f 25//73 99//73 107//73 33//73
f 26//14 100//14 99//14 25//14
f 104//36 100//36 26//36 30//36
f 142//14 125//14 53//14 70//14
f 11//74 85//74 278//74 277//74
f 142//38 70//38 29//38 103//38
f 8//39 82//39 103//39 29//39
f 8//40 17//40 91//40 82//40
f 19//41 93//41 91//41 17//41
f 19//40 18//40 92//40 93//40
f 18//42 16//42 90//42 92//42
f 16//40 11//40 85//40 90//40
