# Blender v2.76 (sub 0) OBJ File: 'trackv3.blend'
# www.blender.org
mtllib trackv3enviro.mtl
o Plane
v 40.000000 0.000000 0.000000
v -40.000000 0.000000 0.000000
v 40.000000 0.000000 50.000000
v -40.000000 0.000000 50.000000
v 40.000000 0.000000 100.000000
v -40.000000 0.000000 100.000000
v -50.000000 0.000000 150.000000
v 50.000000 0.000000 150.000000
v 10.000000 0.000000 450.000000
v -60.000000 0.000000 450.000000
v 10.000000 20.000000 700.000000
v 50.000000 20.000000 700.000000
v 50.000000 20.000000 500.000000
v 10.000000 20.000000 500.000000
v -20.000000 0.000000 350.000000
v 50.000000 0.000000 350.000000
v -60.000000 20.000000 400.000000
v -20.000000 20.000000 400.000000
v -20.000000 20.000000 250.000000
v -60.000000 20.000000 250.000000
v -20.000000 0.000000 150.000000
v 10.000000 0.000000 700.000000
v -60.000000 0.000000 700.000000
v 25.000000 0.000000 800.000000
v -60.000000 0.000000 800.000000
v 50.000000 0.000000 900.000000
v -50.000000 0.000000 900.000000
v 20.000000 20.000000 800.000000
v 50.000000 20.000000 800.000000
v 30.000000 20.000000 900.000000
v 50.000000 20.000000 900.000000
v 50.000000 -10.000000 250.000000
v -20.000000 -10.000000 250.000000
v 50.000000 5.000000 200.000000
v -20.000000 5.000000 300.000000
v 50.000000 5.000000 300.000000
v -20.000000 5.000000 200.000000
v 10.000000 -10.000000 575.000000
v -60.000000 -10.000000 575.000000
v 10.000000 5.000000 512.500000
v -60.000000 5.000000 637.500000
v 10.000000 5.000000 637.500000
v -60.000000 5.000000 512.500000
v 50.000000 0.000000 1000.000000
v -50.000000 0.000000 1000.000000
v 50.000000 0.000000 1300.000000
v -50.000000 0.000000 1300.000000
v 50.000000 0.000000 1400.000000
v -50.000000 0.000000 1400.000000
v -250.000000 0.000000 1300.000000
v -250.000000 0.000000 1400.000000
v -350.000000 0.000000 1250.000000
v -350.000000 0.000000 1450.000000
v -350.000000 0.000000 1350.000000
v -350.000000 0.000000 1400.000000
v -350.000000 0.000000 1300.000000
v -550.000000 0.000000 1250.000000
v -550.000000 10.000000 1450.000000
v -550.000000 10.000000 1400.000000
v -550.000000 0.000000 1300.000000
v -675.000000 10.000000 1250.000000
v -675.000000 10.000000 1300.000000
v -550.000000 -30.000000 1450.000000
v -550.000000 -30.000000 1400.000000
v -675.000000 -30.000000 1250.000000
v -675.000000 -30.000000 1300.000000
v -675.000000 -30.000000 1450.000000
v -675.000000 -30.000000 1400.000000
v -825.000000 -30.000000 1250.000000
v -825.000000 -30.000000 1300.000000
v -825.000000 -30.000000 1450.000000
v -825.000000 -30.000000 1400.000000
v -450.000000 0.000000 1450.000000
v -450.000000 0.000000 1400.000000
v -612.500000 0.000000 1300.000000
v -612.500000 0.000000 1250.000000
v -925.000000 -30.000000 1250.000000
v -925.000000 -30.000000 1450.000000
v -975.000000 -30.000000 1450.000000
v -1025.000000 -30.000000 1250.000000
v -1025.000000 -30.000000 1300.000000
v -1025.000000 -30.000000 1450.000000
v -1025.000000 -30.000000 1400.000000
v -925.000000 -30.000000 850.000000
v -1025.000000 -30.000000 850.000000
v -925.000000 -30.000000 700.000000
v -1025.000000 -30.000000 700.000000
v -925.000000 -30.000000 550.000000
v -975.000000 -30.000000 550.000000
v -1025.000000 -30.000000 550.000000
v -825.000000 -30.000000 600.000000
v -825.000000 -30.000000 450.000000
v -725.000000 -30.000000 600.000000
v -725.000000 -30.000000 450.000000
v -825.000000 -30.000000 0.000000
v -725.000000 -30.000000 0.000000
v -775.000000 -30.000000 0.000000
v -725.000000 0.000000 -150.000000
v -775.000000 0.000000 -150.000000
v -725.000000 0.000000 -250.000000
v -775.000000 0.000000 -250.000000
v -725.000000 0.000000 -350.000000
v -775.000000 0.000000 -350.000000
v -525.000000 0.000000 -250.000000
v -525.000000 0.000000 -350.000000
v -225.000000 0.000000 -250.000000
v -225.000000 0.000000 -350.000000
v -40.000000 0.000000 -250.000000
v -40.000000 0.000000 -350.000000
v 40.000000 0.000000 -250.000000
v 40.000000 0.000000 -350.000000
v -525.000000 0.000000 -150.000000
v -225.000000 0.000000 -150.000000
v -525.000000 0.000000 -450.000000
v -225.000000 0.000000 -450.000000
v -325.000000 0.000000 -250.000000
v -325.000000 0.000000 -350.000000
v -425.000000 0.000000 -350.000000
v -425.000000 0.000000 -250.000000
v -425.000000 40.000000 -250.000000
v -325.000000 40.000000 -250.000000
v -325.000000 40.000000 -350.000000
v -425.000000 40.000000 -350.000000
v 40.000000 15.000000 0.000000
v 40.000000 15.000000 50.000000
v 40.000000 15.000000 100.000000
v 50.000000 15.000000 150.000000
v 10.000000 15.000000 450.000000
v 50.000000 15.000000 350.000000
v 10.000000 15.000000 700.000000
v 25.000000 15.000000 800.000000
v 50.000000 15.000000 900.000000
v 50.000000 5.000000 250.000000
v 50.000000 20.000000 200.000000
v 50.000000 20.000000 300.000000
v 10.000000 5.000000 575.000000
v 10.000000 20.000000 512.500000
v 10.000000 20.000000 637.500000
v 50.000000 15.000000 1000.000000
v 50.000000 15.000000 1300.000000
v 50.000000 15.000000 1400.000000
v 40.000000 15.000000 -250.000000
v 40.000000 15.000000 -350.000000
v -60.000000 0.000000 450.000000
v 50.000000 20.000000 700.000000
v 50.000000 20.000000 500.000000
v -20.000000 0.000000 350.000000
v -20.000000 20.000000 400.000000
v -20.000000 20.000000 250.000000
v -20.000000 0.000000 150.000000
v -60.000000 0.000000 700.000000
v -60.000000 0.000000 800.000000
v -50.000000 0.000000 900.000000
v 50.000000 20.000000 800.000000
v 50.000000 20.000000 900.000000
v -20.000000 -10.000000 250.000000
v -20.000000 5.000000 300.000000
v -20.000000 5.000000 200.000000
v -60.000000 -10.000000 575.000000
v -60.000000 5.000000 637.500000
v -60.000000 5.000000 512.500000
v -50.000000 0.000000 1000.000000
v -50.000000 0.000000 1300.000000
v -250.000000 0.000000 1300.000000
v -350.000000 0.000000 1250.000000
v -550.000000 0.000000 1250.000000
v -675.000000 10.000000 1250.000000
v -675.000000 -30.000000 1250.000000
v -825.000000 -30.000000 1250.000000
v -612.500000 0.000000 1250.000000
v -925.000000 -30.000000 1250.000000
v -925.000000 -30.000000 850.000000
v -925.000000 -30.000000 700.000000
v -825.000000 -30.000000 600.000000
v -725.000000 -30.000000 600.000000
v -40.000000 10.000000 0.000000
v -40.000000 10.000000 50.000000
v -40.000000 10.000000 100.000000
v -50.000000 10.000000 150.000000
v 10.000000 30.000000 700.000000
v 10.000000 30.000000 500.000000
v -60.000000 30.000000 400.000000
v -60.000000 30.000000 250.000000
v -20.000000 10.000000 150.000000
v 20.000000 30.000000 800.000000
v 30.000000 30.000000 900.000000
v -20.000000 15.000000 200.000000
v -225.000000 10.000000 -250.000000
v -40.000000 10.000000 -250.000000
v -60.000000 10.000000 450.000000
v 50.000000 30.000000 700.000000
v 50.000000 30.000000 500.000000
v -20.000000 10.000000 350.000000
v -20.000000 30.000000 400.000000
v -20.000000 30.000000 250.000000
v -20.000000 10.000000 150.000000
v -60.000000 10.000000 700.000000
v -60.000000 10.000000 800.000000
v -50.000000 10.000000 900.000000
v 50.000000 30.000000 800.000000
v 50.000000 30.000000 900.000000
v -20.000000 0.000000 250.000000
v -20.000000 15.000000 300.000000
v -20.000000 15.000000 200.000000
v -60.000000 0.000000 575.000000
v -60.000000 15.000000 637.500000
v -60.000000 15.000000 512.500000
v -50.000000 10.000000 1000.000000
v -50.000000 10.000000 1300.000000
v -250.000000 10.000000 1300.000000
v -350.000000 10.000000 1250.000000
v -550.000000 10.000000 1250.000000
v -675.000000 20.000000 1250.000000
v -675.000000 -20.000000 1250.000000
v -825.000000 -20.000000 1250.000000
v -612.500000 10.000000 1250.000000
v -925.000000 -20.000000 1250.000000
v -925.000000 -20.000000 850.000000
v -925.000000 -20.000000 700.000000
v -825.000000 -20.000000 600.000000
v -725.000000 -20.000000 600.000000
v 50.000000 20.000000 1000.000000
v 50.000000 30.000000 1000.000000
v 50.000000 10.000000 1400.000000
v -50.000000 10.000000 1400.000000
v -250.000000 10.000000 1400.000000
v -350.000000 10.000000 1450.000000
v -550.000000 20.000000 1450.000000
v -550.000000 -20.000000 1450.000000
v -675.000000 -20.000000 1450.000000
v -825.000000 -20.000000 1450.000000
v -450.000000 10.000000 1450.000000
v -925.000000 -20.000000 1450.000000
v -975.000000 -20.000000 1450.000000
v -1025.000000 -20.000000 1250.000000
v -1025.000000 -20.000000 1300.000000
v -1025.000000 -20.000000 1450.000000
v -1025.000000 -20.000000 1400.000000
v -1025.000000 -20.000000 850.000000
v -1025.000000 -20.000000 700.000000
v -925.000000 -20.000000 550.000000
v -975.000000 -20.000000 550.000000
v -1025.000000 -20.000000 550.000000
v -825.000000 -20.000000 450.000000
v -725.000000 -20.000000 600.000000
v -725.000000 -20.000000 450.000000
v -825.000000 -20.000000 0.000000
v -725.000000 -20.000000 0.000000
v -775.000000 -20.000000 0.000000
v -725.000000 10.000000 -150.000000
v -775.000000 10.000000 -150.000000
v -725.000000 10.000000 -250.000000
v -775.000000 10.000000 -250.000000
v -725.000000 10.000000 -350.000000
v -775.000000 10.000000 -350.000000
v -525.000000 10.000000 -250.000000
v -525.000000 10.000000 -350.000000
v -225.000000 10.000000 -250.000000
v -225.000000 10.000000 -350.000000
v -40.000000 10.000000 -350.000000
v 40.000000 10.000000 -350.000000
v -525.000000 10.000000 -150.000000
v -225.000000 10.000000 -150.000000
v -525.000000 10.000000 -450.000000
v -225.000000 10.000000 -450.000000
v 50.000000 25.000000 1400.000000
v -725.000000 -20.000000 600.000000
v -350.000000 10.000000 1350.000000
v -350.000000 10.000000 1400.000000
v -350.000000 10.000000 1300.000000
v -550.000000 20.000000 1400.000000
v -550.000000 10.000000 1300.000000
v -675.000000 20.000000 1300.000000
v -550.000000 -20.000000 1400.000000
v -675.000000 -20.000000 1300.000000
v -675.000000 -20.000000 1400.000000
v -825.000000 -20.000000 1300.000000
v -825.000000 -20.000000 1400.000000
v -450.000000 10.000000 1400.000000
v -612.500000 10.000000 1300.000000
vt 0.000110 0.413359
vt 0.000110 0.551108
vt 0.000110 0.000110
vt 0.999891 0.344484
vt 0.912702 0.344485
vt 0.344632 0.620203
vt 0.206823 0.620203
vt 0.551109 0.344485
vt 0.413359 0.413359
vt 0.826608 0.344485
vt 0.137859 0.413359
vt 0.137860 0.000110
vt 0.413359 0.551109
vt 0.551108 0.619984
vt 0.688858 0.619984
vt 0.827295 0.619984
vt 0.551108 0.413359
vt 0.826608 0.413359
vt 0.137859 0.551109
vt 0.206823 0.895821
vt 0.344632 0.895821
vt 0.000110 0.895821
vt 0.688858 0.551109
vt 0.551108 0.551109
vt 0.912702 0.413360
vt 0.999891 0.413360
vt 0.553512 0.551089
vt 0.827295 0.551109
vt 0.206823 0.826917
vt 0.000110 0.826917
vt 0.206823 0.689108
vt 0.258637 0.432433
vt 0.258637 0.555114
vt 0.258637 0.861817
vt 0.310185 0.555114
vt 0.429390 0.555114
vt 0.310185 0.861817
vt 0.622696 0.677796
vt 0.622696 0.555114
vt 0.622696 0.309752
vt 0.429390 0.309752
vt 0.622696 0.432433
vt 0.429390 0.432433
vt 0.751567 0.555114
vt 0.310185 0.432433
vt 0.783785 0.677795
vt 0.783785 0.555114
vt 0.751567 0.677795
vt 0.783785 0.432433
vt 0.751567 0.432433
vt 0.429390 0.677796
vt 0.000033 0.099847
vt 0.049940 0.099847
vt 0.450192 0.069903
vt 0.512775 0.069903
vt 0.575359 0.069903
vt 0.637942 0.069903
vt 0.350378 0.109829
vt 0.199910 0.109829
vt 0.250066 0.109829
vt 0.149754 0.109829
vt 0.700525 0.069903
vt 0.800339 0.084875
vt 0.900153 0.109829
vt 0.999967 0.109829
vt 0.300222 0.109829
vt 0.099847 0.099847
vt 0.350378 0.039959
vt 0.300222 0.039959
vt 0.800339 0.000033
vt 0.700525 0.000033
vt 0.250066 0.039959
vt 0.251545 0.039959
vt 0.401266 0.039959
vt 0.900153 0.010015
vt 0.999967 0.010015
vt 0.450192 0.000033
vt 0.501080 0.109829
vt 0.700708 0.109829
vt 0.800522 0.109829
vt 0.575359 0.000033
vt 0.512775 0.000033
vt 0.149754 0.039959
vt 0.900336 0.109829
vt 0.637942 0.000033
vt 0.199910 0.039959
vt 0.149754 0.010015
vt 0.099847 0.019996
vt 0.251545 0.000033
vt 0.401266 0.000033
vt 0.800522 0.079885
vt 0.700708 0.069903
vt 0.501080 0.069903
vt 0.049940 0.019996
vt 0.000033 0.019996
vt 0.900336 0.089866
vt 1.318610 0.214700
vt 1.255962 0.627168
vt -0.611274 0.041110
vt 1.088901 1.727085
vt -2.582922 0.142497
vt -0.548627 -0.371357
vt -0.360685 -1.608758
vt -2.332335 -1.507371
vt -2.520274 -0.269971
vt 2.367081 -0.248460
vt 1.381258 -0.197767
vt 3.352902 -0.299154
vt 1.991202 2.226349
vt 2.977029 2.175654
vt 3.290257 0.113313
vt -1.346150 -1.560464
vt -1.334907 -1.978391
vt -2.321091 -1.925298
vt 3.060558 1.625696
vt 3.227614 0.525781
vt 1.005373 2.277042
vt 3.039676 1.763186
vt 2.997910 2.038165
vt 0.000000 0.000000
vn -1.000000 0.000000 0.000000
vn 0.000000 0.000000 1.000000
vn 1.000000 0.000000 0.000000
vn -0.447200 0.000000 0.894400
vn -0.447200 0.000000 -0.894400
vn 0.000000 0.000000 -1.000000
vn -0.928500 0.000000 -0.371400
vn -0.988900 0.000000 0.148300
vn -0.970100 0.000000 0.242500
vn -0.980600 0.000000 0.196100
vn 0.980600 0.000000 0.196100
vn 0.995000 0.000000 0.099500
vn 0.928500 0.000000 0.371400
vn -0.819200 0.000000 0.573500
vn 0.995000 0.000000 -0.099500
vn 0.819200 0.000000 -0.573500
vn -0.707100 0.000000 -0.707100
vn 0.707100 0.000000 0.707100
vn 0.000000 1.000000 0.000000
usemtl None
s off
f 46/1/1 48/2/1 141/2/1 140/1/1
f 44/3/1 46/1/1 140/1/1 139/3/1
f 61/4/2 76/5/2 170/5/2 167/4/2
f 77/6/2 69/7/2 169/7/2 171/6/2
f 52/8/2 50/9/2 164/9/2 165/8/2
f 76/5/2 57/10/2 166/10/2 170/5/2
f 47/11/2 45/12/2 162/12/2 163/11/2
f 57/10/2 52/8/2 165/8/2 166/10/2
f 50/9/2 47/11/2 163/11/2 164/9/2
f 170/5/2 166/10/2 212/10/2 216/5/2
f 171/6/2 169/7/2 215/7/2 217/6/2
f 163/11/3 162/12/3 208/12/3 209/11/3
f 164/9/2 163/11/2 209/11/2 210/9/2
f 165/8/4 164/9/4 210/9/4 211/8/4
f 166/10/2 165/8/2 211/8/2 212/10/2
f 167/4/2 170/5/2 216/5/2 213/4/2
f 51/13/5 53/14/5 227/14/5 226/13/5
f 73/15/6 58/16/6 228/16/6 232/15/6
f 141/2/2 48/2/2 224/2/2 266/2/2
f 56/17/6 60/18/6 272/18/6 270/17/6
f 48/2/6 49/19/6 225/19/6 224/2/6
f 53/14/6 73/15/6 232/15/6 227/14/6
f 71/20/6 78/21/6 233/21/6 231/20/6
f 49/19/6 51/13/6 226/13/6 225/19/6
f 67/22/6 71/20/6 231/20/6 230/22/6
f 74/23/2 55/24/2 269/24/2 279/23/2
f 75/25/6 62/26/6 273/26/6 280/25/6
f 54/27/3 56/17/3 270/17/3 268/27/3
f 59/28/2 74/23/2 279/23/2 271/28/2
f 55/24/3 54/27/3 268/27/3 269/24/3
f 72/29/2 68/30/2 276/30/2 278/29/2
f 70/31/1 72/29/1 278/29/1 277/31/1
f 60/18/6 75/25/6 280/25/6 272/18/6
usemtl None_asphalt_texture441.jpg
f 111/32/1 110/33/1 142/33/1 143/32/1
f 110/33/1 1/34/1 124/34/1 142/33/1
f 108/35/6 106/36/6 188/36/6 189/35/6
f 2/37/3 108/35/3 189/35/3 176/37/3
f 112/38/3 104/39/3 256/39/3 262/38/3
f 114/40/2 115/41/2 265/41/2 264/40/2
f 105/42/3 114/40/3 264/40/3 257/42/3
f 115/41/1 107/43/1 259/43/1 265/41/1
f 104/39/6 100/44/6 252/44/6 256/39/6
f 107/43/2 109/45/2 260/45/2 259/43/2
f 99/46/3 101/47/3 253/47/3 251/46/3
f 109/45/2 111/32/2 261/32/2 260/45/2
f 100/44/1 98/48/1 250/48/1 252/44/1
f 103/49/2 102/50/2 254/50/2 255/49/2
f 101/47/3 103/49/3 255/49/3 253/47/3
f 113/51/6 112/38/6 262/38/6 263/51/6
f 106/36/1 113/51/1 263/51/1 258/36/1
f 102/50/2 105/42/2 257/42/2 254/50/2
usemtl None_desert_ground3.jpg
f 1/52/1 3/53/1 125/53/1 124/52/1
f 9/54/1 40/55/1 137/55/1 128/54/1
f 38/56/1 42/57/1 138/57/1 136/56/1
f 16/58/7 9/54/7 128/54/7 129/58/7
f 34/59/1 32/60/1 133/60/1 134/59/1
f 8/61/1 34/59/1 134/59/1 127/61/1
f 22/62/8 24/63/8 131/63/8 130/62/8
f 26/64/1 44/65/1 139/65/1 132/64/1
f 40/55/1 38/56/1 136/56/1 137/55/1
f 36/66/1 16/58/1 129/58/1 135/66/1
f 3/53/1 5/67/1 126/67/1 125/53/1
f 42/57/1 22/62/1 130/62/1 138/57/1
f 24/63/9 26/64/9 132/64/9 131/63/9
f 5/67/10 8/61/10 127/61/10 126/67/10
f 32/60/1 36/66/1 135/66/1 133/60/1
f 15/68/2 35/69/2 157/69/2 147/68/2
f 25/70/2 23/71/2 151/71/2 152/70/2
f 35/69/2 33/72/2 156/72/2 157/69/2
f 19/73/2 18/74/2 148/74/2 149/73/2
f 27/75/2 25/70/2 152/70/2 153/75/2
f 45/76/2 27/75/2 153/75/2 162/76/2
f 10/77/2 15/68/2 147/68/2 144/77/2
f 13/78/2 12/79/2 145/79/2 146/78/2
f 12/79/2 29/80/2 154/80/2 145/79/2
f 39/81/2 43/82/2 161/82/2 159/81/2
f 21/83/2 19/73/2 149/73/2 150/83/2
f 18/74/2 13/78/2 146/78/2 148/74/2
f 29/80/2 31/84/2 155/84/2 154/80/2
f 41/85/2 39/81/2 159/81/2 160/85/2
f 23/71/2 41/85/2 160/85/2 151/71/2
f 33/72/2 37/86/2 158/86/2 156/72/2
f 43/82/2 10/77/2 144/77/2 161/82/2
f 145/79/1 154/80/1 200/80/1 191/79/1
f 154/80/1 155/84/1 201/84/1 200/80/1
f 156/72/3 158/86/3 204/86/3 202/72/3
f 7/87/11 6/88/11 178/88/11 179/87/11
f 20/89/12 7/87/12 179/87/12 183/89/12
f 157/69/3 156/72/3 202/72/3 203/69/3
f 37/86/3 21/83/3 184/83/3 187/86/3
f 17/90/3 20/89/3 183/89/3 182/90/3
f 159/81/3 161/82/3 207/82/3 205/81/3
f 144/77/13 147/68/13 193/68/13 190/77/13
f 160/85/3 159/81/3 205/81/3 206/85/3
f 146/78/1 145/79/1 191/79/1 192/78/1
f 161/82/3 144/77/3 190/77/3 207/82/3
f 148/74/14 146/78/14 192/78/14 194/74/14
f 28/91/15 11/92/15 180/92/15 185/91/15
f 162/76/3 153/75/3 199/75/3 208/76/3
f 11/92/3 14/93/3 181/93/3 180/92/3
f 147/68/3 157/69/3 203/69/3 193/68/3
f 149/73/1 148/74/1 194/74/1 195/73/1
f 4/94/3 2/95/3 176/95/3 177/94/3
f 150/83/1 149/73/1 195/73/1 196/83/1
f 30/96/15 28/91/15 185/91/15 186/96/15
f 14/93/16 17/90/16 182/90/16 181/93/16
f 151/71/3 160/85/3 206/85/3 197/71/3
f 152/70/3 151/71/3 197/71/3 198/70/3
f 153/75/15 152/70/15 198/70/15 199/75/15
f 6/88/3 4/94/3 177/94/3 178/88/3
f 201/84/1 155/84/1 222/84/1 223/84/1
usemtl None_rail_road_tracks.png
f 86/97/2 84/98/2 172/98/2 173/97/2
f 91/99/2 86/97/2 173/97/2 174/99/2
f 84/98/2 77/100/2 171/100/2 172/98/2
f 93/101/2 91/99/2 174/99/2 175/101/2
f 172/98/1 171/100/1 217/100/1 218/98/1
f 173/97/1 172/98/1 218/98/1 219/97/1
f 174/99/17 173/97/17 219/97/17 220/99/17
f 175/101/6 174/99/6 220/99/6 221/101/6
f 92/102/3 95/103/3 247/103/3 244/102/3
f 96/104/1 94/105/1 246/105/1 248/104/1
f 89/106/2 88/107/2 241/107/2 242/106/2
f 90/108/2 89/106/2 242/106/2 243/108/2
f 79/109/6 82/110/6 237/110/6 234/109/6
f 87/111/3 90/108/3 243/108/3 240/111/3
f 97/112/3 99/113/3 251/113/3 249/112/3
f 98/114/1 96/104/1 248/104/1 250/114/1
f 80/115/3 85/116/3 239/116/3 235/115/3
f 88/107/18 92/102/18 244/102/18 241/107/18
f 78/117/6 79/109/6 234/109/6 233/117/6
f 94/105/1 93/101/1 245/101/1 246/105/1
f 93/101/2 175/101/2 267/101/2 245/101/2
f 81/118/3 80/115/3 235/115/3 236/118/3
f 85/116/3 87/111/3 240/111/3 239/116/3
f 82/110/3 83/119/3 238/119/3 237/110/3
f 95/103/2 97/112/2 249/112/2 247/103/2
f 83/119/3 81/118/3 236/118/3 238/119/3
usemtl None_NONE
f 62/120/1 61/120/1 65/120/1 66/120/1
f 58/120/1 59/120/1 64/120/1 63/120/1
f 119/120/2 116/120/2 121/120/2 120/120/2
f 123/120/19 120/120/19 121/120/19 122/120/19
f 118/120/1 119/120/1 120/120/1 123/120/1
f 117/120/6 118/120/6 123/120/6 122/120/6
f 116/120/3 117/120/3 122/120/3 121/120/3
f 69/120/2 65/120/2 168/120/2 169/120/2
f 65/120/2 61/120/2 167/120/2 168/120/2
f 169/120/2 168/120/2 214/120/2 215/120/2
f 168/120/2 167/120/2 213/120/2 214/120/2
f 58/120/2 63/120/2 229/120/2 228/120/2
f 63/120/6 67/120/6 230/120/6 229/120/6
f 68/120/2 64/120/2 274/120/2 276/120/2
f 62/120/2 66/120/2 275/120/2 273/120/2
f 64/120/2 59/120/2 271/120/2 274/120/2
f 66/120/6 70/120/6 277/120/6 275/120/6
