# Blender v2.76 (sub 0) OBJ File: 'trackv2ground.blend'
# www.blender.org
mtllib trackv2walls.mtl
o Grid.002
v -600.021973 175.091476 1550.000000
v -500.021973 175.091476 1550.000000
v -500.021973 175.091476 1613.887329
v -600.021973 175.091476 1613.887329
v -50.000000 -143.610291 1550.000000
v -500.021973 -143.610291 1550.000000
v -500.021973 -143.610291 1613.887329
v -50.000000 -143.610291 1613.887329
v -600.021973 175.091553 1138.888916
v -717.416504 175.091492 1537.906250
v -717.416504 175.091553 1126.795166
v -465.000000 -143.610168 873.692871
v -465.000000 -143.610123 543.000000
v -582.394531 -143.610123 530.906189
v -582.394531 -143.610168 861.599060
v -615.000000 175.091766 -183.711029
v -615.000000 175.091660 435.000031
v -732.394531 175.091660 422.906219
v -732.394531 175.091766 -195.804840
v -600.021973 -143.610291 1550.000000
v -600.021973 -143.610214 1138.888916
v -717.416504 -143.610214 1126.795166
v -717.416504 -143.610275 1537.906250
v -465.000000 175.091599 873.692871
v -500.390289 175.091583 947.161560
v -617.784790 175.091583 935.067749
v -582.394531 175.091599 861.599060
v -615.000000 -143.610107 434.999969
v -732.394531 -143.610107 422.906158
v -568.125000 175.091660 435.000031
v -568.125000 -143.610107 434.999969
v -615.000000 -143.610001 -183.711090
v -732.394531 -143.610001 -195.804901
v -230.008789 175.091766 -209.999969
v -320.013184 175.091766 -209.999969
v -323.866425 175.091782 -323.994720
v -233.862030 175.091782 -323.994720
v -568.000000 175.091766 -183.999969
v -618.853271 175.091782 -297.705780
v -571.853271 175.091782 -297.994720
v -320.013184 -143.610001 -210.000031
v -230.008789 -143.610001 -210.000031
v -233.862030 -143.609985 -323.994781
v -323.866425 -143.609985 -323.994781
v -568.000000 -143.610001 -184.000031
v -571.853271 -143.609985 -297.994781
v -618.853271 -143.609985 -297.705841
v -410.017578 175.091766 -199.999969
v -413.870819 175.091782 -313.994720
v -410.017578 -143.610001 -200.000031
v -413.870819 -143.609985 -313.994781
v 20.000000 175.091766 -199.999969
v -140.004395 175.091766 -199.999969
v -143.857635 175.091782 -313.994720
v 16.146759 175.091782 -313.994720
v -20.000000 175.091766 -159.999969
v -20.000000 -143.610001 -160.000031
v -140.004395 -143.610001 -160.000031
v -140.004395 175.091766 -159.999969
v -230.008789 -143.610001 -150.000031
v -230.008789 175.091766 -149.999969
v -320.013184 -143.610001 -150.000031
v -320.013184 175.091766 -149.999969
v -410.017578 175.091766 -159.999969
v -410.017578 -143.610001 -160.000031
v -500.021973 -143.610001 -160.000031
v -500.021973 175.091766 -159.999969
v -568.125000 175.091751 -80.375092
v -568.125000 -143.610016 -80.375145
v -568.125000 175.091675 340.209259
v -568.125000 -143.610092 340.209198
v -465.000000 -143.610107 434.999969
v -465.000000 175.091660 435.000031
v -415.000000 175.091660 431.289154
v -415.000000 -143.610107 431.289093
v -415.000000 -143.610184 947.300171
v -415.000000 175.091583 947.300171
v -425.217499 -143.610184 947.000000
v -425.217499 175.091583 947.000000
v -480.478271 -143.610199 1049.898682
v -480.478271 175.091568 1049.898682
v -499.409149 175.091553 1094.444458
v -499.409149 -143.610214 1094.444458
v -500.021973 175.091507 1451.005005
v -500.021973 -143.610260 1451.005005
v -87.679733 -143.610260 1450.284058
v -87.679733 175.091507 1450.284058
v -47.222229 175.091507 1411.321167
v -47.222229 -143.610260 1411.321167
v -44.444443 175.091507 1392.028809
v -44.444443 -143.610260 1392.028809
v -26.742706 -143.610229 1261.887207
v -26.742706 175.091537 1261.887207
v -16.666672 175.091568 1050.000000
v -16.666672 -143.610199 1050.000000
v -59.535751 175.091568 999.599609
v -59.535751 -143.610199 999.599609
v -91.626511 175.091583 949.199158
v -91.626511 -143.610184 949.199158
v -125.778107 175.091583 898.798706
v -125.778107 -143.610184 898.798706
v -148.825104 175.091599 848.398315
v -148.825104 -143.610168 848.398315
v -126.371315 175.091614 747.597473
v -126.371315 -143.610153 747.597473
v -90.228531 175.091629 697.197021
v -90.228531 -143.610138 697.197021
v -35.878937 175.091629 646.796631
v -35.878937 -143.610138 646.796631
v -2.181244 175.091644 596.396240
v -2.181244 -143.610123 596.396240
v 33.276642 175.091644 545.995789
v 33.276642 -143.610123 545.995789
v 54.648987 175.091660 495.595367
v 54.648987 -143.610107 495.595306
v 47.197311 175.091660 445.194946
v 47.197311 -143.610107 445.194885
v 24.969437 175.091675 394.794525
v 24.969437 -143.610092 394.794464
v -16.703690 175.091675 344.394104
v -16.703690 -143.610092 344.394043
v -38.062881 175.091690 293.993683
v -38.062881 -143.610077 293.993622
v -47.222229 -143.610077 243.593201
v -47.222229 175.091690 243.593262
v -20.000000 -143.610062 155.589447
v -20.000000 175.091705 155.589508
v -600.021973 -143.610291 1613.887329
v -50.000000 238.815155 1550.000000
v -50.000000 238.815155 1613.887329
v -685.519531 175.091660 422.906219
v -582.394531 175.091644 530.906189
v -685.519531 -143.610107 422.906158
v -465.000000 175.091644 543.000000
v -557.990173 -143.610199 1049.797363
v -675.384705 -143.610199 1037.703613
v -557.990173 175.091568 1049.797363
v -675.384705 175.091568 1037.703613
v -500.390289 -143.610184 947.161560
v -617.784790 -143.610184 935.067749
v -503.875214 -143.609985 -313.994781
v -503.875214 175.091782 -313.994720
v -143.857635 -143.609985 -313.994781
v 16.146759 -143.609985 -313.994781
v -500.021973 -143.610001 -200.000031
v -140.004395 -143.610001 -200.000031
v -500.021973 175.091766 -199.999969
v 20.000000 -143.610001 -200.000031
v 20.000000 175.091705 155.589508
v 20.000000 -143.610062 155.589447
v 47.222229 -143.610077 243.593201
v 47.222229 175.091690 243.593262
v 56.381561 175.091690 293.993683
v 56.381561 -143.610077 293.993622
v 77.740753 175.091675 344.394073
v 77.740753 -143.610092 344.394012
v 119.413879 -143.610092 394.794434
v 119.413879 175.091675 394.794495
v 141.641754 175.091660 445.194916
v 141.641754 -143.610107 445.194855
v 149.093414 -143.610107 495.595276
v 149.093414 175.091660 495.595337
v 127.721069 175.091644 545.995728
v 127.721069 -143.610123 545.995728
v 58.565491 -143.610138 646.796631
v 58.565491 175.091629 646.796631
v 4.215897 -143.610138 697.197021
v 4.215897 175.091629 697.197021
v -31.926880 175.091614 747.597473
v -31.926880 -143.610153 747.597473
v -54.380676 -143.610168 797.997925
v -54.380676 175.091599 797.997925
v -54.380676 175.091599 848.398315
v -54.380676 -143.610168 848.398315
v -31.333664 -143.610184 898.798706
v -31.333664 175.091583 898.798706
v 2.817917 -143.610184 949.199158
v 2.817917 175.091583 949.199158
v 18.782700 -143.610199 999.599609
v 18.782700 175.091568 999.599609
v 27.513546 175.091568 1050.000000
v 27.513546 -143.610199 1050.000000
v 29.154587 -143.610229 1261.887207
v 29.154587 278.871918 1261.887207
v 45.001572 -143.610260 1392.028809
v 45.001572 238.815186 1392.028809
v 47.222229 238.815186 1450.000122
v 47.222229 -143.610260 1450.000122
v -2.777771 -143.610275 1500.000000
v -2.777771 238.815170 1500.000000
v 20.000000 175.091705 155.589508
v 20.000000 175.091766 -199.999969
v 20.000000 -143.610001 -200.000031
v 20.000000 -143.610062 155.589447
v 47.222229 -143.610077 243.593201
v 47.222229 175.091690 243.593262
v 56.381561 175.091690 293.993683
v 56.381561 -143.610077 293.993622
v 77.740753 175.091675 344.394073
v 77.740753 -143.610092 344.394012
v 119.413879 -143.610092 394.794434
v 119.413879 175.091675 394.794495
v 141.641754 175.091660 445.194916
v 141.641754 -143.610107 445.194855
v 149.093414 -143.610107 495.595276
v 149.093414 175.091660 495.595337
v 127.721069 175.091644 545.995728
v 127.721069 -143.610123 545.995728
v 58.565491 -143.610138 646.796631
v 58.565491 175.091629 646.796631
v 4.215897 -143.610138 697.197021
v 4.215897 175.091629 697.197021
v -31.926880 175.091614 747.597473
v -31.926880 -143.610153 747.597473
v -54.380676 -143.610168 797.997925
v -54.380676 175.091599 797.997925
v -54.380676 175.091599 848.398315
v -54.380676 -143.610168 848.398315
v -31.333664 -143.610184 898.798706
v -31.333664 175.091583 898.798706
v 2.817917 -143.610184 949.199158
v 2.817917 175.091583 949.199158
v 18.782700 -143.610199 999.599609
v 18.782700 175.091568 999.599609
v 27.513546 175.091568 1050.000000
v 27.513546 -143.610199 1050.000000
v 29.154587 -143.610229 1261.887207
v 29.154587 278.871918 1261.887207
v 45.001572 -143.610260 1392.028809
v 45.001572 238.815186 1392.028809
v 47.222229 238.815186 1450.000122
v 47.222229 -143.610260 1450.000122
v 78.229019 175.091705 152.453888
v 78.229019 175.091766 -203.135590
v 78.229019 -143.610001 -203.135651
v 78.229019 -143.610062 152.453827
v 105.451248 -143.610077 240.457581
v 105.451248 175.091690 240.457642
v 114.610580 175.091690 290.858063
v 114.610580 -143.610077 290.858002
v 135.969772 175.091675 341.258453
v 135.969772 -143.610092 341.258392
v 177.642899 -143.610092 391.658813
v 177.642899 175.091675 391.658875
v 199.870773 175.091660 442.059296
v 199.870773 -143.610107 442.059235
v 207.322433 -143.610107 492.459656
v 207.322433 175.091660 492.459717
v 185.950089 175.091644 542.860107
v 185.950089 -143.610123 542.860107
v 116.794510 -143.610138 643.661011
v 116.794510 175.091629 643.661011
v 62.444920 -143.610138 694.061401
v 62.444920 175.091629 694.061401
v 26.302143 175.091614 744.461853
v 26.302143 -143.610153 744.461853
v 3.848347 -143.610153 794.862305
v 3.848347 175.091614 794.862305
v 3.848347 175.091599 845.262695
v 3.848347 -143.610168 845.262695
v 26.895359 -143.610184 895.663086
v 26.895359 175.091583 895.663086
v 61.046940 -143.610184 946.063538
v 61.046940 175.091583 946.063538
v 77.011719 -143.610199 996.463989
v 77.011719 175.091568 996.463989
v 85.742569 175.091568 1046.864380
v 85.742569 -143.610199 1046.864380
v 87.383606 -143.610229 1258.751587
v 87.383606 278.871918 1258.751587
v 103.230591 -143.610260 1388.893188
v 103.230591 238.815186 1388.893188
v 105.451248 238.815186 1446.864502
v 105.451248 -143.610260 1446.864502
v 47.222229 238.815186 1450.000122
v 47.222229 -143.610260 1450.000122
v -2.777771 -143.610275 1500.000000
v -2.777771 238.815170 1500.000000
v -50.000000 238.815155 1550.000000
v -50.000000 -143.610291 1550.000000
v 90.445992 238.815170 1492.004395
v 90.445992 -143.610275 1492.004395
v 40.445992 -143.610275 1542.004272
v 40.445992 238.815170 1542.004272
v -6.776237 238.815155 1592.004272
v -6.776237 -143.610291 1592.004272
vn 0.000000 -1.000000 0.000000
vn 0.000000 1.000000 0.000000
vn 0.102500 0.000000 -0.994700
vn 0.000000 0.000000 -1.000000
vn -0.110400 0.000000 -0.993900
vn 0.110400 0.000000 -0.993900
vn -0.759900 0.000000 -0.650000
vn -1.000000 0.000000 0.000000
vn -0.676700 -0.000000 0.736200
vn 0.074000 -0.000000 0.997300
vn 0.029400 0.000000 -0.999600
vn -0.881000 0.000000 -0.473100
vn -0.920300 0.000000 -0.391100
vn 1.000000 0.000000 0.001700
vn 0.001700 0.000000 1.000000
vn 0.693700 0.000000 0.720300
vn 0.990900 0.000000 0.134800
vn 0.998900 0.000000 0.047500
vn 0.761700 0.000000 -0.647900
vn 0.843500 0.000000 -0.537100
vn 0.827800 0.000000 -0.561000
vn 0.909400 0.000000 -0.415900
vn 0.976100 0.000000 0.217400
vn 0.812600 0.000000 0.582800
vn 0.680000 0.000000 0.733200
vn 0.831300 0.000000 0.555800
vn 0.817900 0.000000 0.575400
vn 0.920600 -0.000000 0.390400
vn 0.989200 0.000000 -0.146300
vn 0.915000 0.000000 -0.403500
vn 0.770700 0.000000 -0.637200
vn 0.920700 0.000000 -0.390200
vn 0.983900 0.000000 -0.178800
vn 0.955300 -0.000000 0.295500
vn 1.000000 0.000000 0.000000
vn 0.140200 -0.990100 0.000000
vn 0.723200 0.000000 -0.690600
vn -0.102500 -0.000000 0.994700
vn 0.006100 -0.000000 1.000000
vn 0.229100 -0.000000 0.973400
vn 0.000000 -0.000000 1.000000
vn 0.110400 -0.000000 0.993900
vn -0.110400 -0.000000 0.993900
vn 0.999400 -0.000000 -0.033800
vn 0.989800 0.000000 0.142500
vn -0.955300 -0.000000 0.295500
vn -0.983900 -0.000000 0.178800
vn -0.920700 -0.000000 0.390200
vn -0.770700 -0.000000 0.637200
vn -0.915000 -0.000000 0.403500
vn -0.989200 -0.000000 0.146300
vn -0.920600 0.000000 -0.390400
vn -0.824600 0.000000 -0.565700
vn -0.680000 0.000000 -0.733200
vn -0.812600 0.000000 -0.582800
vn -0.913500 0.000000 -0.406900
vn -0.909400 0.000000 0.415900
vn -0.827800 0.000000 0.561000
vn -0.953300 0.000000 0.302000
vn -0.985300 0.000000 0.170700
vn -1.000000 0.000000 0.007700
vn -0.992700 0.000000 0.120900
vn -0.999300 0.000000 0.038300
vn -0.707100 0.000000 -0.707100
vn -0.727000 0.000000 -0.686600
vn 0.023700 -0.897900 0.439600
vn -0.053800 0.000000 -0.998600
vn 0.053800 -0.000000 0.998600
vn -0.015700 -0.956200 -0.292400
vn -0.696900 0.000000 0.717200
vn 0.696900 0.000000 -0.717200
vn 0.904400 0.000000 0.426700
vn 0.872100 0.000000 0.489400
vn 0.900900 0.000000 0.434000
vn -0.999400 -0.000000 0.033800
usemtl Material
s 1
f 1//1 2//1 3//1 4//1
f 5//2 6//2 7//2 8//2
f 9//1 1//1 10//1 11//1
f 12//2 13//2 14//2 15//2
f 16//1 17//1 18//1 19//1
f 20//2 21//2 22//2 23//2
f 24//1 25//1 26//1 27//1
f 17//3 28//3 29//3 18//3
f 30//4 31//4 28//4 17//4
f 28//2 32//2 33//2 29//2
f 34//1 35//1 36//1 37//1
f 38//1 16//1 39//1 40//1
f 41//2 42//2 43//2 44//2
f 32//2 45//2 46//2 47//2
f 35//1 48//1 49//1 36//1
f 50//2 41//2 44//2 51//2
f 52//1 53//1 54//1 55//1
f 56//4 57//4 58//4 59//4
f 59//5 58//5 60//5 61//5
f 61//4 60//4 62//4 63//4
f 64//6 63//6 62//6 65//6
f 64//4 65//4 66//4 67//4
f 68//7 67//7 66//7 69//7
f 70//8 68//8 69//8 71//8
f 70//9 71//9 72//9 73//9
f 74//10 73//10 72//10 75//10
f 74//8 75//8 76//8 77//8
f 77//11 76//11 78//11 79//11
f 79//12 78//12 80//12 81//12
f 82//13 81//13 80//13 83//13
f 82//14 84//14 85//14 83//14
f 84//15 85//15 86//15 87//15
f 88//16 87//16 86//16 89//16
f 90//17 91//17 92//17 93//17
f 94//18 93//18 92//18 95//18
f 96//19 94//19 95//19 97//19
f 98//20 96//20 97//20 99//20
f 100//21 98//21 99//21 101//21
f 102//22 100//22 101//22 103//22
f 104//23 102//23 103//23 105//23
f 106//24 104//24 105//24 107//24
f 108//25 106//25 107//25 109//25
f 110//26 108//26 109//26 111//26
f 112//27 110//27 111//27 113//27
f 114//28 112//28 113//28 115//28
f 116//29 114//29 115//29 117//29
f 118//30 116//30 117//30 119//30
f 120//31 118//31 119//31 121//31
f 122//32 120//32 121//32 123//32
f 122//33 123//33 124//33 125//33
f 125//34 124//34 126//34 127//34
f 56//35 127//35 126//35 57//35
f 6//2 20//2 128//2 7//2
f 2//36 129//36 130//36 3//36
f 6//4 2//4 129//4 5//4
f 1//4 2//4 6//4 20//4
f 131//37 132//37 14//37 133//37
f 19//35 18//35 29//35 33//35
f 134//1 24//1 27//1 132//1
f 21//2 135//2 136//2 22//2
f 31//38 30//38 131//38 133//38
f 13//2 31//2 133//2 14//2
f 137//1 9//1 11//1 138//1
f 30//1 134//1 132//1 131//1
f 135//2 139//2 140//2 136//2
f 32//38 16//38 19//38 33//38
f 25//1 137//1 138//1 26//1
f 139//2 12//2 15//2 140//2
f 39//39 47//39 46//39 40//39
f 40//40 46//40 141//40 142//40
f 49//41 142//41 141//41 51//41
f 49//42 51//42 44//42 36//42
f 37//41 36//41 44//41 43//41
f 54//43 37//43 43//43 143//43
f 54//41 143//41 144//41 55//41
f 45//2 145//2 141//2 46//2
f 42//2 146//2 143//2 43//2
f 147//1 38//1 40//1 142//1
f 53//1 34//1 37//1 54//1
f 16//44 32//44 47//44 39//44
f 145//2 50//2 51//2 141//2
f 146//2 148//2 144//2 143//2
f 48//1 147//1 142//1 49//1
usemtl Material.007
f 89//45 91//45 90//45 88//45
f 149//8 52//8 148//8 150//8
f 149//46 150//46 151//46 152//46
f 153//47 152//47 151//47 154//47
f 155//48 153//48 154//48 156//48
f 155//49 156//49 157//49 158//49
f 159//50 158//50 157//50 160//50
f 159//51 160//51 161//51 162//51
f 163//52 162//52 161//52 164//52
f 163//53 164//53 165//53 166//53
f 166//54 165//54 167//54 168//54
f 169//55 168//55 167//55 170//55
f 169//56 170//56 171//56 172//56
f 173//8 172//8 171//8 174//8
f 173//57 174//57 175//57 176//57
f 176//58 175//58 177//58 178//58
f 178//59 177//59 179//59 180//59
f 181//60 180//60 179//60 182//60
f 181//61 182//61 183//61 184//61
f 184//62 183//62 185//62 186//62
f 187//63 186//63 185//63 188//63
f 187//64 188//64 189//64 190//64
f 129//65 190//65 189//65 5//65
f 191//8 192//8 193//8 194//8
f 191//46 194//46 195//46 196//46
f 197//47 196//47 195//47 198//47
f 199//48 197//48 198//48 200//48
f 199//49 200//49 201//49 202//49
f 203//50 202//50 201//50 204//50
f 203//51 204//51 205//51 206//51
f 207//52 206//52 205//52 208//52
f 207//53 208//53 209//53 210//53
f 210//54 209//54 211//54 212//54
f 213//55 212//55 211//55 214//55
f 213//56 214//56 215//56 216//56
f 217//8 216//8 215//8 218//8
f 217//57 218//57 219//57 220//57
f 220//58 219//58 221//58 222//58
f 222//59 221//59 223//59 224//59
f 225//60 224//60 223//60 226//60
f 225//61 226//61 227//61 228//61
f 228//62 227//62 229//62 230//62
f 231//63 230//63 229//63 232//63
f 233//8 234//8 235//8 236//8
f 233//46 236//46 237//46 238//46
f 239//47 238//47 237//47 240//47
f 241//48 239//48 240//48 242//48
f 241//49 242//49 243//49 244//49
f 245//50 244//50 243//50 246//50
f 245//51 246//51 247//51 248//51
f 249//52 248//52 247//52 250//52
f 249//53 250//53 251//53 252//53
f 252//54 251//54 253//54 254//54
f 255//55 254//55 253//55 256//55
f 255//56 256//56 257//56 258//56
f 259//8 258//8 257//8 260//8
f 259//57 260//57 261//57 262//57
f 262//58 261//58 263//58 264//58
f 264//59 263//59 265//59 266//59
f 267//60 266//60 265//60 268//60
f 267//61 268//61 269//61 270//61
f 270//62 269//62 271//62 272//62
f 273//63 272//63 271//63 274//63
f 222//1 220//1 262//1 264//1
f 208//2 209//2 251//2 250//2
f 196//1 191//1 233//1 238//1
f 221//2 223//2 265//2 263//2
f 210//1 207//1 249//1 252//1
f 195//2 198//2 240//2 237//2
f 224//1 222//1 264//1 266//1
f 209//2 211//2 253//2 251//2
f 197//1 196//1 238//1 239//1
f 223//2 226//2 268//2 265//2
f 212//1 210//1 252//1 254//1
f 198//2 200//2 242//2 240//2
f 225//1 224//1 266//1 267//1
f 211//2 214//2 256//2 253//2
f 199//1 197//1 239//1 241//1
f 213//1 212//1 254//1 255//1
f 200//2 201//2 243//2 242//2
f 226//2 227//2 269//2 268//2
f 214//2 215//2 257//2 256//2
f 202//1 199//1 241//1 244//1
f 228//66 225//66 267//66 270//66
f 216//1 213//1 255//1 258//1
f 201//2 204//2 246//2 243//2
f 232//67 231//67 273//67 274//67
f 215//2 218//2 260//2 257//2
f 203//1 202//1 244//1 245//1
f 192//68 193//68 235//68 234//68
f 217//1 216//1 258//1 259//1
f 204//2 205//2 247//2 246//2
f 227//2 229//2 271//2 269//2
f 218//2 219//2 261//2 260//2
f 206//1 203//1 245//1 248//1
f 230//69 228//69 270//69 272//69
f 193//2 194//2 236//2 235//2
f 220//1 217//1 259//1 262//1
f 205//2 208//2 250//2 247//2
f 229//2 232//2 274//2 271//2
f 191//1 192//1 234//1 233//1
f 219//2 221//2 263//2 261//2
f 207//1 206//1 248//1 249//1
f 231//1 230//1 272//1 273//1
f 194//2 195//2 237//2 236//2
f 275//64 276//64 277//64 278//64
f 279//65 278//65 277//65 280//65
f 281//64 282//64 283//64 284//64
f 285//65 284//65 283//65 286//65
f 277//2 280//2 286//2 283//2
f 276//2 277//2 283//2 282//2
f 275//70 276//70 282//70 281//70
f 279//1 278//1 284//1 285//1
f 278//1 275//1 281//1 284//1
f 280//71 279//71 285//71 286//71
f 7//4 128//4 4//4 3//4
f 3//4 130//4 8//4 7//4
f 129//8 5//8 8//8 130//8
f 20//35 1//35 4//35 128//35
f 10//35 23//35 22//35 11//35
f 11//72 22//72 136//72 138//72
f 26//73 138//73 136//73 140//73
f 26//74 140//74 15//74 27//74
f 27//35 15//35 14//35 132//35
f 1//3 20//3 23//3 10//3
f 9//35 1//35 20//35 21//35
f 135//72 137//72 9//72 21//72
f 135//73 139//73 25//73 137//73
f 12//74 24//74 25//74 139//74
f 13//35 134//35 24//35 12//35
f 30//37 134//37 13//37 31//37
f 16//35 17//35 28//35 32//35
f 148//75 52//75 55//75 144//75
f 16//39 32//39 45//39 38//39
f 145//40 147//40 38//40 45//40
f 145//41 50//41 48//41 147//41
f 41//42 35//42 48//42 50//42
f 41//41 42//41 34//41 35//41
f 42//43 146//43 53//43 34//43
f 146//41 148//41 52//41 53//41
