# Blender v2.76 (sub 0) OBJ File: 'trackv3ground.blend'
# www.blender.org
mtllib trackv3ground.mtl
o Plane.002_Plane.003
v 55.604717 0.000000 132.500000
v -40.000000 0.000000 200.000000
v 40.000000 0.000000 250.000000
v -40.000000 0.000000 250.000000
v 40.000000 0.000000 300.000000
v -40.000000 0.000000 300.000000
v -20.000000 0.000000 350.000000
v 50.000000 0.000000 350.000000
v 10.000000 0.000000 650.000000
v -60.000000 0.000000 650.000000
v 10.000000 24.999998 817.500000
v 10.000000 24.999998 712.500000
v -20.000000 0.000000 530.000000
v 50.000000 0.000000 550.000000
v -20.000000 24.999998 400.000000
v -20.000000 24.999998 490.000000
v 50.000000 24.999998 1100.000000
v 25.000000 24.999998 1000.000000
v -40.000000 24.999998 300.000000
v 10.000000 0.000000 900.000000
v -60.000000 0.000000 900.000000
v 25.000000 0.000000 1000.000000
v -60.000000 0.000000 1000.000000
v 50.000000 0.000000 1100.000000
v -50.000000 0.000000 1100.000000
v 10.000000 24.999998 900.000000
v 50.000000 24.999998 550.000000
v -20.000000 24.999998 530.000000
v -60.000000 31.857836 650.000000
v 50.000000 7.000000 400.000000
v -20.000000 0.000000 490.000000
v 50.000000 0.000000 490.000000
v -20.000000 1.000000 400.000000
v 10.000000 1.000000 712.500000
v -60.000000 0.000000 808.500000
v 10.000000 0.000000 808.500000
v -60.000000 7.000000 712.500000
v 25.000000 0.000000 1200.000000
v -25.000000 0.000000 1200.000000
v 31.250000 0.000000 1500.000000
v -36.250000 0.000000 1510.000000
v -50.000000 0.000000 1600.000000
v -250.000000 0.000000 1519.019287
v -250.000000 0.000000 1580.980713
v -355.289276 0.000000 1453.346069
v -352.956177 0.000000 1643.838989
v -350.000000 0.000000 1550.000000
v -350.000000 0.000000 1585.000000
v -350.000000 0.000000 1515.000000
v -510.000000 13.000000 1590.703735
v -520.000000 0.000000 1511.578857
v -610.000000 5.000000 1512.251099
v -795.000000 -30.000000 1450.000000
v -795.000000 -30.000000 1500.000000
v -795.000000 -30.000000 1650.000000
v -795.000000 -30.000000 1600.000000
v -420.000000 3.000000 1592.633057
v -572.500000 2.500000 1515.000000
v -945.000000 -30.000000 1450.000000
v -945.000000 -30.000000 1500.000000
v -945.000000 -30.000000 1650.000000
v -945.000000 -30.000000 1600.000000
v -975.000000 -30.000000 1450.000000
v -975.000000 -30.000000 1500.000000
v -975.000000 -30.000000 1650.000000
v -975.000000 -30.000000 1600.000000
v -1005.000000 -30.000000 1450.000000
v -1005.000000 -30.000000 1500.000000
v -1005.000000 -30.000000 1650.000000
v -1005.000000 -30.000000 1600.000000
v -945.000000 -30.000000 1050.000000
v -975.000000 -30.000000 1050.000000
v -1005.000000 -30.000000 1050.000000
v -945.000000 -30.000000 850.000000
v -975.000000 -30.000000 850.000000
v -1005.000000 -30.000000 850.000000
v -945.000000 -30.000000 750.000000
v -975.000000 -30.000000 750.000000
v -1005.000000 -30.000000 750.000000
v -780.000000 -30.000000 750.000000
v -780.000000 -30.000000 650.000000
v -720.000000 -30.000000 750.000000
v -720.000000 -30.000000 650.000000
v -780.000000 -30.000000 200.000000
v -750.000000 -30.000000 650.000000
v -700.000000 0.000000 -70.000000
v -775.000000 0.000000 -70.000000
v -700.000000 0.000000 -140.000000
v -775.000000 0.000000 -140.000000
v -543.507446 0.000000 -70.000000
v -543.507568 0.000000 -140.000000
v -212.492508 0.000000 -70.000000
v -212.492508 0.000000 -140.000000
v -46.903412 0.000000 -70.000000
v -46.903412 0.000000 -140.000000
v 55.604717 0.000000 -70.000000
v 55.604717 0.000000 -140.000000
v -700.000000 -5.000000 160.000000
v -775.000000 -5.000000 160.000000
v 10.000000 24.999998 650.000000
v -20.000000 24.999998 350.000000
v -35.000000 24.999998 580.000000
v 30.000000 24.999998 600.000000
v 40.000000 0.000000 225.000000
v -13.761344 0.000000 200.000000
v -40.000000 0.000000 225.000000
v -40.000000 15.000000 250.000000
v -13.761344 15.000000 250.000000
v -351.352417 0.000000 1625.000000
v -510.000000 13.000000 1612.563354
v -420.000000 3.000000 1621.391113
v -353.236206 0.000000 1475.000000
v -520.000000 0.000000 1475.000000
v -610.000000 5.000000 1486.998291
v -572.500000 2.500000 1478.481567
v -695.000000 -30.000000 1650.000000
v -695.000000 -30.000000 1600.000000
v -450.000000 0.000000 1515.000000
v -450.000000 0.000000 1475.000000
v -435.547852 0.000000 1518.364990
v -401.708618 0.000000 1467.868896
v -400.000000 0.000000 1585.000000
v -400.000000 0.000000 1625.000000
v -26.880672 0.000000 200.000000
v -26.880672 15.000000 250.000000
v -750.000000 -30.000000 200.000000
v -720.000000 -30.000000 270.000000
v -750.000000 -30.000000 270.000000
v -378.000031 0.000000 63.749954
v -345.078522 0.000000 60.507462
v -313.422211 0.000000 50.904602
v -284.247498 0.000000 35.310471
v -258.675720 0.000000 14.324249
v -237.689484 0.000000 -11.247604
v -222.095367 0.000000 -40.422226
v -209.250015 0.000000 -105.000076
v -222.095367 0.000000 -169.577820
v -237.689484 0.000000 -198.752472
v -258.675720 0.000000 -224.324341
v -284.247559 0.000000 -245.310547
v -313.422241 0.000000 -260.904724
v -342.000000 0.000000 -270.507599
v -378.000061 0.000000 -273.750092
v -412.000000 0.000000 -270.507599
v -442.577881 0.000000 -260.904694
v -471.752594 0.000000 -245.310486
v -497.324371 0.000000 -224.324219
v -518.310669 0.000000 -198.752441
v -533.904785 0.000000 -169.577759
v -543.507507 0.000000 -105.000000
v -533.904663 0.000000 -40.422073
v -518.310425 0.000000 -11.247391
v -497.324066 0.000000 14.324356
v -471.752289 0.000000 35.310562
v -442.577667 0.000000 50.904709
v -410.921234 0.000000 60.507507
v -378.000000 0.000000 -20.625023
v -361.539246 0.000000 -22.246269
v -345.711121 0.000000 -27.047707
v -331.123749 0.000000 -34.844765
v -318.337860 0.000000 -45.337879
v -307.844727 0.000000 -58.123806
v -300.047668 0.000000 -72.711121
v -295.246246 0.000000 -88.539291
v -293.625000 0.000000 -105.000046
v -295.246246 0.000000 -121.460770
v -300.047668 0.000000 -137.288910
v -307.844727 0.000000 -151.876236
v -318.337860 0.000000 -164.662170
v -331.123779 0.000000 -175.155273
v -345.711121 0.000000 -182.952362
v -361.539307 0.000000 -187.753815
v -378.000031 0.000000 -189.375061
v -394.460754 0.000000 -187.753815
v -410.288940 0.000000 -182.952362
v -424.876282 0.000000 -175.155243
v -437.662170 0.000000 -164.662109
v -448.155334 0.000000 -151.876221
v -455.952393 0.000000 -137.288879
v -460.753784 0.000000 -121.460693
v -462.375000 0.000000 -104.999954
v -460.753723 0.000000 -88.539215
v -455.952332 0.000000 -72.711044
v -448.155212 0.000000 -58.123699
v -437.662048 0.000000 -45.337826
v -424.876160 0.000000 -34.844719
v -410.288818 0.000000 -27.047646
v -394.460632 0.000000 -22.246254
v -700.000000 -2.500000 44.052734
v -700.000000 0.000000 -105.000000
v -46.000000 0.000000 -105.000000
v -700.000000 -3.750000 101.079102
v -46.903412 0.000000 132.500000
v -700.000000 -1.250000 -12.973633
v 40.000000 0.000000 200.000000
v -750.000000 -30.000000 750.000000
v -737.500000 -5.000000 160.000000
v -720.276367 -5.000000 160.000000
v -56.838001 25.000000 580.000000
v 15.000000 5.000000 400.000000
v 15.000000 0.000000 350.000000
v -25.000000 0.000000 650.000000
v -25.000000 5.000000 712.500000
v 47.802361 0.000000 166.250000
v 37.500000 0.000000 1150.000000
v 50.000000 24.999998 825.000000
v 40.000000 0.000000 237.500000
v -48.418999 25.000000 440.000000
v 40.000000 0.000000 212.500000
v -58.418999 28.428917 615.000000
v -37.500000 0.000000 1150.000000
v -31.250000 0.000000 1175.000000
v -43.750000 0.000000 1125.000000
v 0.000000 0.000000 1200.000000
v 12.500000 0.000000 1200.000000
v -12.500000 0.000000 1200.000000
v 28.125000 0.000000 1350.000000
v -30.625000 0.000000 1355.000000
v -24.000000 0.000000 1590.000000
v 16.625000 0.000000 1540.000000
v -150.000000 0.000000 1590.490356
v -143.125000 0.000000 1514.509644
v -300.000000 0.000000 1615.490356
v -300.000000 0.000000 1484.509644
v -2.500000 0.000000 1505.000000
v 26.562500 0.000000 1275.000000
v -33.437500 0.000000 1432.500000
v 23.937500 0.000000 1520.000000
v -43.125000 0.000000 1555.000000
v -250.000000 0.000000 1550.000000
v -100.000000 0.000000 1595.245117
v -196.562500 0.000000 1516.764404
v -275.000000 0.000000 1598.235596
v -325.000000 0.000000 1467.254883
v 29.687500 0.000000 1425.000000
v -27.812500 0.000000 1277.500000
v -37.000000 0.000000 1595.000000
v -200.000000 0.000000 1585.735596
v -89.687500 0.000000 1512.254883
v -325.000000 0.000000 1632.745117
v -275.000000 0.000000 1501.764404
v -300.000000 0.000000 1550.000000
v -146.562500 0.000000 1552.500000
v -3.687500 0.000000 1565.000000
v -1.250000 0.000000 1352.500000
v -94.843750 0.000000 1553.750000
v -275.000000 0.000000 1550.000000
v -198.281250 0.000000 1551.250000
v -1.875000 0.000000 1428.750000
v 25.781250 0.000000 1237.500000
v -34.843750 0.000000 1471.250000
v 28.906250 0.000000 1387.500000
v -29.218750 0.000000 1316.250000
v 27.343750 0.000000 1312.500000
v -32.031250 0.000000 1393.750000
v 30.468750 0.000000 1462.500000
v -26.406250 0.000000 1238.750000
v 25.390625 0.000000 1218.750000
v -35.546875 0.000000 1490.625000
v 28.515625 0.000000 1368.750000
v -29.921875 0.000000 1335.625000
v 26.953125 0.000000 1293.750000
v -32.734375 0.000000 1413.125000
v 30.078125 0.000000 1443.750000
v -27.109375 0.000000 1258.125000
v 26.171875 0.000000 1256.250000
v -34.140625 0.000000 1451.875000
v 29.296875 0.000000 1406.250000
v -28.515625 0.000000 1296.875000
v 27.734375 0.000000 1331.250000
v -31.328125 0.000000 1374.375000
v 30.859375 0.000000 1481.250000
v -25.703125 0.000000 1219.375000
v -337.500000 0.000000 1458.627441
v -287.500000 0.000000 1493.136963
v -312.500000 0.000000 1475.882324
v -720.000000 -8.343658 200.473236
v -750.000000 -8.343658 200.473236
v -862.500000 -30.000000 700.000000
v -917.939880 -30.000000 733.691895
v -821.250000 -30.000000 675.000000
vt 0.181834 0.000028
vt 0.295464 0.000027
vt 0.486363 0.000027
vt 0.636355 0.000027
vt 0.818164 0.027298
vt 0.999973 0.072751
vt 0.500000 0.072751
vt 0.000027 0.072751
vt 0.090929 0.036390
vt 1.205582 0.219519
vt 1.215258 0.071152
vt 1.454887 0.075993
vt 1.694515 0.080834
vt -0.363677 0.219519
vt -0.694515 0.061485
vt 0.260372 0.066318
vt 0.535248 0.219702
vt 0.187524 0.293205
vt -0.083871 0.270589
vt -0.694515 0.219702
vt 0.313835 0.388563
vt 0.170015 0.379915
vt 0.834172 0.376548
vt 0.068985 0.310047
vt 0.137859 0.310047
vt 0.137859 0.335875
vt 0.137859 0.361703
vt 0.137859 0.387531
vt 0.137859 0.413359
vt 0.068984 0.413359
vt 0.282367 0.235575
vt 0.279372 0.155362
vt 0.372474 0.160606
vt 0.372474 0.232667
vt 0.459586 0.384997
vt 0.459586 0.232667
vt 0.459586 0.080337
vt 0.481364 0.060270
vt 0.503142 0.040203
vt 0.524921 0.020135
vt 0.546699 0.000068
vt 0.546699 0.151258
vt 0.546699 0.232667
vt 0.546699 0.314077
vt 0.546699 0.465267
vt 0.503142 0.425132
vt 0.398097 0.874115
vt 0.398097 0.687057
vt 0.818434 0.687057
vt 0.818434 0.874115
vt 0.398097 0.312942
vt 0.398097 0.125885
vt 0.818434 0.125885
vt 0.818434 0.312942
vt 0.615471 0.314077
vt 0.632458 0.407117
vt 0.546699 0.407117
vt 0.826689 0.326872
vt 0.826759 0.377717
vt 0.669020 0.398634
vt 0.668929 0.331743
vt 0.934452 0.151258
vt 0.934452 0.066316
vt 0.999932 0.086126
vt 0.999932 0.144864
vt 0.842881 0.143300
vt 0.842881 0.058218
vt 0.720923 0.151258
vt 0.720923 0.058218
vt 0.117871 0.874115
vt 0.117871 0.687057
vt 0.695744 0.159085
vt 0.636788 0.041631
vt 0.546699 0.058218
vt 0.416030 0.232667
vt 0.416030 0.120472
vt 0.437808 0.100405
vt 0.102153 0.241390
vt 0.093170 0.144872
vt 0.186271 0.150117
vt 0.192260 0.238482
vt 0.000110 0.413359
vt 0.137859 0.482234
vt 0.137859 0.551109
vt 0.103422 0.551109
vt 0.068984 0.551108
vt 0.034547 0.516671
vt 0.000110 0.482234
vt 0.000110 0.447796
vt 0.000110 0.000110
vt 0.034547 0.000110
vt 0.068985 0.000110
vt 0.103422 0.000110
vt 0.137860 0.000110
vt 0.137860 0.025938
vt 0.137860 0.051766
vt 0.137860 0.077594
vt 0.137860 0.103422
vt 0.137860 0.129250
vt 0.137860 0.155078
vt 0.137860 0.180906
vt 0.137860 0.206734
vt 0.068985 0.206734
vt 0.000110 0.206734
vt 0.000110 0.180906
vt 0.000110 0.155078
vt 0.000110 0.129250
vt 0.000110 0.103422
vt 0.000110 0.077594
vt 0.000110 0.051766
vt 0.000110 0.025938
vt 0.111136 0.337907
vt 0.198249 0.326847
vt 0.024024 0.348967
vt 0.012046 0.244297
vt 0.000068 0.139628
vt 0.416030 0.344863
vt 0.372474 0.304728
vt 0.285361 0.315788
vt 0.000110 0.310046
vt 0.000110 0.387531
vt 0.000110 0.361703
vt 0.000110 0.335874
vt 0.000110 0.284218
vt 0.000110 0.258390
vt 0.000110 0.232562
vt 0.137860 0.232562
vt 0.137859 0.258390
vt 0.137859 0.284219
vt 0.010656 0.762723
vt 0.066204 -0.439698
vt 1.002572 -0.196435
vt 0.905364 0.343112
vt 0.808157 0.882660
vt 0.076971 1.129640
vt 0.232689 -0.397604
vt 0.692916 -0.314182
vt 0.767311 1.254773
vt -0.035014 0.563923
vt -0.014043 0.067215
vt 0.200358 0.038233
vt 0.179387 0.534942
vt 0.460239 0.003104
vt 0.434774 0.606250
vt 0.717123 0.038934
vt 0.687164 0.748517
vt 1.002266 0.337862
vt 1.000389 0.841494
vt 0.511959 0.837505
vt 0.511959 0.333402
vt 0.996753 -0.301232
vt 0.874431 1.071542
vt 0.402389 0.884634
vt 0.455905 0.284046
vt 0.509421 -0.316543
vt 0.129062 0.128419
vt 0.129062 -0.537514
vt 0.836544 -0.217720
vt 0.835138 0.448820
vt 0.780221 0.074501
vt 0.843318 0.110067
vt 0.906416 0.145634
vt 0.969513 0.181201
vt 0.965768 0.269899
vt 0.962023 0.358596
vt 0.958279 0.447294
vt 0.954534 0.535992
vt 0.820849 0.642255
vt 0.998818 -0.444570
vt 0.998818 0.229161
vt 0.749409 0.557981
vt 0.749409 -0.444569
vt 0.874114 -0.444569
vt 0.500000 -0.444570
vt 0.500000 0.557981
vt -0.001464 0.649698
vt -0.001464 -0.352853
vt 0.624705 -0.444569
vt 1.004143 -0.165771
vt 0.511959 -0.170700
vt 0.129062 0.794353
vt 0.833731 1.115361
vt 0.008488 1.266370
vt 0.008488 0.655167
vt 0.008488 0.043965
vt 1.008311 0.043965
vt 1.008311 0.655167
vt 1.008311 1.266369
vt 1.381258 -0.197767
vt 1.318610 0.214700
vt -0.611274 0.041110
vt -0.548627 -0.371357
vt -0.066155 -0.327960
vt 0.416316 -0.284562
vt 0.898787 -0.241164
vt 0.064287 -4.909946
vt 0.927475 -4.909948
vt 0.943588 -2.469220
vt 0.927474 -2.468874
vt 0.064287 -2.468874
vt 0.075417 -0.759552
vt 0.075417 -1.250360
vt 0.075417 -1.741168
vt 0.924583 -1.741168
vt 0.924583 -0.759552
vt -0.005596 4.138395
vt -0.005595 -3.812309
vt 0.500000 -3.812309
vt 0.752798 -3.812309
vt 1.005596 -3.812309
vt 1.005596 -1.775539
vt 1.005595 0.195772
vt 1.005595 2.167091
vt 1.005595 4.138395
vt -0.001872 -0.837705
vt 0.498144 -0.837705
vt 0.998158 -0.837705
vt 0.998160 2.541793
vt 0.498144 2.541793
vt -0.001872 2.541795
vt -0.010199 1.400663
vt 0.493802 1.400663
vt 0.997806 1.400663
vt 0.997806 -1.345996
vt 0.493802 -1.345996
vt -0.010199 -1.345996
vt 0.989062 1.337805
vt 0.989062 -1.694990
vt 0.010937 -1.694990
vt 0.010938 1.337805
vt 1.048896 -1.746416
vt 1.048893 -1.193170
vt -0.048896 -1.193170
vt -0.048895 -1.746416
vt 1.048896 -2.023039
vt -0.048894 -2.023039
vt 1.048893 -0.916547
vt -0.048896 -0.916547
vt 1.051658 -2.783020
vt 1.051657 -2.074416
vt -0.051659 -2.074416
vt -0.051658 -2.783020
vt 1.051658 -3.137323
vt -0.051657 -3.137323
vt 1.051656 -1.720114
vt -0.051660 -1.720114
vt 1.051653 1.114303
vt -0.051664 1.114303
vt 1.048891 1.296436
vt -0.048902 1.296436
vt 1.051660 2.531514
vt -0.051661 2.531514
vt 1.048896 2.402930
vt -0.048898 2.402930
vt 1.051662 3.240121
vt -0.051658 3.240121
vt 1.048898 2.956178
vt -0.048896 2.956178
vt 1.065533 -0.677307
vt -0.065541 -0.677307
vt -0.065541 -1.312975
vt 1.065533 -1.312975
vt -0.017101 -1.298512
vt 1.017102 -1.298513
vt 1.017102 1.554065
vt 1.017100 2.079548
vt -0.017102 2.079548
vt -0.073199 -0.784493
vt 1.073199 -0.784493
vt 1.073198 1.596165
vt -0.073195 1.596165
vt -0.012040 0.416121
vt -0.012040 -0.139482
vt 1.012040 -0.139482
vt 1.012040 0.416121
vt 1.064857 2.194294
vt -0.008357 1.305063
vt -0.037799 -1.388381
vt 0.940989 -0.406295
vt 0.294043 1.002272
vt 0.294043 0.002400
vt 0.705957 0.002400
vt 0.705957 1.002272
vt 0.012498 0.194112
vt 0.987502 0.194112
vt 0.989618 0.936427
vt 0.013399 0.936427
vt 0.012949 0.565269
vt 0.410636 1.407335
vt 0.245245 1.377760
vt 0.367670 0.936233
vt 0.455318 0.953667
vt -0.088295 1.199479
vt -0.204772 1.078393
vt 0.147614 0.789197
vt 0.210804 0.852387
vt 0.235341 -0.372465
vt 0.410635 -0.407334
vt 0.455318 0.046332
vt 0.367670 0.063767
vt 0.070216 1.304070
vt 0.285108 0.902035
vt 0.589365 -0.407334
vt 0.544682 0.046333
vt 1.088295 -0.199479
vt 1.204772 -0.078392
vt 0.852386 0.210804
vt 0.789196 0.147614
vt 0.921525 -0.288619
vt 0.714892 0.097965
vt -0.304069 0.929785
vt 0.097965 0.714893
vt -0.372466 0.764660
vt 0.063767 0.632331
vt -0.407334 0.589365
vt 0.046333 0.544683
vt 1.304069 0.070216
vt 0.902034 0.285108
vt -0.407334 0.410636
vt 0.046333 0.455318
vt 1.304069 0.929783
vt 1.204772 1.078391
vt 0.852386 0.789196
vt 0.902034 0.714892
vt 1.372465 0.235341
vt 0.936233 0.367671
vt -0.380306 0.250010
vt 0.063767 0.367670
vt 1.078392 1.204772
vt 0.789196 0.852386
vt 1.407333 0.410636
vt 0.953667 0.455318
vt -0.304069 0.070216
vt 0.097965 0.285108
vt 0.929784 1.304069
vt 0.714892 0.902035
vt 1.407333 0.589365
vt 0.953667 0.544683
vt -0.202026 -0.083530
vt 0.147614 0.210804
vt 0.764660 1.372466
vt 0.632330 0.936233
vt 1.372465 0.764660
vt 0.936232 0.632330
vt -0.078392 -0.204772
vt 0.210804 0.147614
vt 0.589365 1.407334
vt 0.544682 0.953667
vt 0.070217 -0.304069
vt 0.285108 0.097965
vt 0.754755 -0.377759
vt 0.632330 0.063767
vn 0.000000 1.000000 0.000000
vn 0.000000 0.995200 -0.097500
vn 0.110400 0.993900 0.000000
vn 0.066500 0.997800 0.000000
vn 0.047600 0.998900 0.000000
vn 0.148300 0.988900 0.000000
vn -0.056900 0.996600 -0.059800
vn 0.028400 0.995000 -0.095500
vn -0.028400 0.992500 -0.119100
vn 0.057000 0.997200 -0.047900
vn 0.000000 0.957800 -0.287300
vn 0.000200 0.999800 0.021700
vn 0.000000 0.954800 0.297400
usemtl Material
s off
f 100/1/1 12/2/1 11/3/1 26/4/1 18/5/1 17/6/1 206/7/1 27/8/1 103/9/1
f 102/10/2 199/11/2 210/12/2 29/13/2
f 199/11/1 102/10/1 101/14/1 19/15/1 208/16/1
f 102/17/1 28/18/1 16/19/1 15/20/1
f 15/21/1 101/22/1 102/23/1
usemtl Material_desert_groun2.jpg
f 249/24/1 227/25/1 267/26/1 251/27/1 259/28/1 41/29/1 225/30/1
f 248/31/1 232/32/1 43/33/1 230/34/1
f 223/35/1 242/36/1 224/37/1 276/38/1 234/39/1 274/40/1 45/41/1 49/42/1 47/43/1 48/44/1 46/45/1 240/46/1
f 55/47/1 56/48/1 62/49/1 61/50/1
f 54/51/1 53/52/1 59/53/1 60/54/1
f 56/48/1 54/51/1 60/54/1 62/49/1
f 122/55/1 123/56/1 109/57/1 48/44/1
f 50/58/3 110/59/3 111/60/3 57/61/3
f 58/62/4 115/63/4 114/64/4 52/65/4
f 51/66/5 113/67/5 115/63/5 58/62/5
f 118/68/1 119/69/1 113/67/1 51/66/1
f 56/48/1 55/47/1 116/70/1 117/71/1
f 120/72/1 121/73/1 119/69/1 118/68/1
f 49/42/1 112/74/1 121/73/1 120/72/1
f 57/61/6 111/60/6 123/56/6 122/55/6
f 49/42/1 120/72/1 47/43/1
f 48/44/1 47/43/1 122/55/1
f 123/56/1 46/45/1 109/57/1
f 121/73/1 112/74/1 45/41/1
f 54/51/1 56/48/1 117/71/1 53/52/1
f 247/75/1 241/76/1 275/77/1 224/37/1 242/36/1
f 246/78/1 239/79/1 222/80/1 243/81/1
f 40/82/1 225/30/1 41/29/1 229/83/1 42/84/1 237/85/1 219/86/1 244/87/1 220/88/1 228/89/1
f 38/90/1 215/91/1 214/92/1 216/93/1 39/94/1 273/95/1 257/96/1 265/97/1 236/98/1 269/99/1 253/100/1 261/101/1 218/102/1 245/103/1 217/104/1 270/105/1 254/106/1 262/107/1 226/108/1 266/109/1 250/110/1 258/111/1
f 231/112/1 246/78/1 243/81/1 221/113/1
f 42/114/1 229/115/1 246/78/1 231/112/1
f 229/115/1 41/116/1 239/79/1 246/78/1
f 233/117/1 247/75/1 242/36/1 223/35/1
f 44/118/1 230/34/1 247/75/1 233/117/1
f 230/34/1 43/33/1 241/76/1 247/75/1
f 238/119/1 248/31/1 230/34/1 44/118/1
f 221/113/1 243/81/1 248/31/1 238/119/1
f 243/81/1 222/80/1 232/32/1 248/31/1
f 235/120/1 249/24/1 225/30/1 40/82/1 272/121/1 256/122/1 264/123/1
f 217/104/1 245/103/1 249/24/1 235/120/1 268/124/1 252/125/1 260/126/1
f 245/103/1 218/102/1 271/127/1 255/128/1 263/129/1 227/25/1 249/24/1
usemtl Material_dirt_road_1.jpg
f 14/130/1 13/131/1 10/132/1 202/133/1 9/134/1
f 32/135/1 31/136/1 13/137/1 14/138/1
f 36/139/1 35/140/1 21/141/1 20/142/1
f 20/142/1 21/141/1 23/143/1 22/144/1
f 22/144/1 23/143/1 25/145/1 24/146/1
f 201/147/7 7/148/7 33/149/7 200/150/7
f 5/151/1 6/152/1 7/153/1 201/154/1 8/155/1
f 202/156/8 10/157/8 37/158/8 203/159/8
f 24/146/1 25/145/1 213/160/1 211/161/1 212/162/1 39/163/1 216/164/1 214/165/1 215/166/1 38/167/1 205/168/1
f 195/169/1 105/170/1 106/171/1 104/172/1 209/173/1
f 3/174/1 4/175/1 6/176/1 5/177/1
f 104/172/1 106/171/1 4/175/1 3/174/1 207/178/1
f 8/179/9 201/147/9 200/150/9 30/180/9
f 9/181/10 202/156/10 203/159/10 34/182/10
usemtl Material_dirt_road_2.jpg
f 105/183/11 124/184/11 2/185/11 107/186/11 125/187/11 108/188/11
usemtl Material_road3.jpg
f 77/189/1 74/190/1 80/191/1 81/192/1 281/193/1 279/194/1 280/195/1
usemtl Material_road_3.jpg
f 87/196/1 86/197/1 190/198/1 88/199/1 89/200/1
f 95/201/1 191/202/1 94/203/1 96/204/1 97/205/1
f 87/206/12 99/207/12 197/208/12 198/209/12 98/210/12 192/211/12 189/212/12 194/213/12 86/214/12
f 88/215/1 190/216/1 86/217/1 90/218/1 150/219/1 91/220/1
f 93/221/1 136/222/1 92/223/1 94/224/1 191/225/1 95/226/1
f 94/227/1 193/228/1 1/229/1 96/230/1
usemtl Material_rail_road_tracks.png
f 62/231/1 60/232/1 64/233/1 66/234/1
f 61/235/1 62/231/1 66/234/1 65/236/1
f 60/232/1 59/237/1 63/238/1 64/233/1
f 66/239/1 64/240/1 68/241/1 70/242/1
f 65/243/1 66/239/1 70/242/1 69/244/1
f 64/240/1 63/245/1 67/246/1 68/241/1
f 67/246/1 63/245/1 72/247/1 73/248/1
f 63/238/1 59/237/1 71/249/1 72/250/1
f 73/248/1 72/247/1 75/251/1 76/252/1
f 72/250/1 71/249/1 74/253/1 75/254/1
f 76/252/1 75/251/1 78/255/1 79/256/1
f 75/254/1 74/253/1 77/257/1 78/258/1
f 83/259/1 85/260/1 196/261/1 82/262/1
f 81/263/1 85/264/1 128/265/1 126/266/1 84/267/1
f 85/268/1 83/269/1 127/270/1 128/271/1
f 81/272/1 80/273/1 196/274/1 85/275/1
usemtl Material_wooden_board.jpg
f 100/276/1 103/277/1 28/278/1 102/279/1
usemtl Material_road_1.jpg
f 278/280/13 128/281/13 127/282/13 277/283/13
usemtl Material_road_5.jpg
f 1/284/1 193/285/1 2/286/1 195/287/1 204/288/1
usemtl Material_road_7.jpg
f 135/289/1 92/290/1 164/291/1 163/292/1
f 93/293/1 137/294/1 167/295/1 166/296/1
f 147/297/1 148/298/1 178/299/1 177/300/1
f 136/301/1 93/293/1 166/296/1 165/302/1
f 148/298/1 149/303/1 179/304/1 178/299/1
f 90/305/1 151/306/1 183/307/1 182/308/1
f 150/309/1 90/305/1 182/308/1 181/310/1
f 137/294/1 138/311/1 168/312/1 167/295/1
f 138/311/1 139/313/1 169/314/1 168/312/1
f 139/313/1 140/315/1 170/316/1 169/314/1
f 151/306/1 152/317/1 184/318/1 183/307/1
f 140/315/1 141/319/1 171/320/1 170/316/1
f 129/321/1 130/322/1 158/323/1 157/324/1
f 152/317/1 153/325/1 185/326/1 184/318/1
f 141/319/1 142/327/1 172/328/1 171/320/1
f 130/322/1 131/329/1 159/330/1 158/323/1
f 153/325/1 154/331/1 186/332/1 185/326/1
f 142/327/1 143/333/1 173/334/1 172/328/1
f 131/329/1 132/335/1 160/336/1 159/330/1
f 154/331/1 155/337/1 187/338/1 186/332/1
f 143/333/1 144/339/1 174/340/1 173/334/1
f 132/335/1 133/341/1 161/342/1 160/336/1
f 155/337/1 156/343/1 188/344/1 187/338/1
f 144/339/1 145/345/1 175/346/1 174/340/1
f 133/341/1 134/347/1 162/348/1 161/342/1
f 156/343/1 129/321/1 157/324/1 188/344/1
f 145/345/1 146/349/1 176/350/1 175/346/1
f 134/347/1 135/289/1 163/292/1 162/348/1
f 146/349/1 147/297/1 177/300/1 176/350/1
f 91/351/1 150/309/1 181/310/1 180/352/1
f 149/303/1 91/351/1 180/352/1 179/304/1
f 92/290/1 136/301/1 165/302/1 164/291/1
