# Blender v2.76 (sub 0) OBJ File: ''
# www.blender.org
mtllib train_car.mtl
o Cube
v 1.000000 0.000000 -5.000000
v -0.054687 0.750000 -4.864020
v 0.043058 1.500000 -4.864020
v -1.000000 0.000000 -5.000002
v 1.000000 2.000000 -4.999998
v 0.043058 1.250000 -4.864020
v 0.500000 1.000000 -4.864020
v -1.000000 2.000000 -5.000000
v 1.000000 0.000000 0.000000
v 0.043058 0.000000 -5.000001
v 1.000000 1.000000 -4.999999
v 0.750000 1.000000 -4.864019
v -0.500000 1.000000 -4.864021
v -1.000000 0.000000 -0.000001
v -0.250000 1.000000 -4.864020
v -1.000000 1.000000 -5.000001
v 1.000000 2.000000 0.000002
v 0.043058 2.000000 -4.999999
v 0.043058 0.750000 -4.864020
v -1.000000 2.000000 -0.000001
v 0.043058 1.000000 -5.000000
v -1.000000 1.000000 -0.000001
v 0.043058 1.000000 -4.864020
v 1.000000 1.000000 0.000001
v 0.043058 2.000000 0.000001
v 0.043058 0.000000 -0.000001
v 1.000000 0.000000 2.500000
v -0.500000 0.000000 -5.000001
v 1.000000 1.500000 -4.999998
v 0.250000 1.000000 -4.864020
v -0.054687 0.000000 -3.750001
v -1.000000 0.000000 -2.500002
v -0.054687 0.000000 -1.250001
v -1.000000 1.500000 -5.000000
v 1.000000 2.000000 2.500003
v -0.500000 2.000000 -5.000000
v -0.054688 2.000000 -1.249999
v -1.000000 2.000000 -2.500000
v 1.000000 0.000000 -2.500000
v 0.500000 0.000000 -5.000000
v 1.000000 0.500000 -5.000000
v -0.054687 2.000000 -3.749999
v -0.054687 1.750000 -4.999999
v -1.000000 0.000000 2.499999
v -0.054687 1.250000 -5.000000
v -1.000000 0.500000 -5.000001
v 1.000000 2.000000 -2.499998
v 0.500000 2.000000 -4.999998
v -0.054687 0.750000 -5.000000
v -1.000000 2.000000 2.499999
v 0.043058 1.500000 -5.000000
v 0.043058 0.500000 -5.000000
v -0.054688 0.000000 3.750000
v -1.000000 1.000000 2.499999
v -1.000000 0.500000 -0.000001
v -1.000000 1.500000 -0.000001
v -0.054687 0.250000 -5.000001
v -0.054688 2.000000 3.750000
v -0.054688 2.000000 1.250001
v -0.054687 0.000000 1.249999
v 1.000000 1.000000 2.500001
v -0.054688 0.000000 2.500000
v 1.000000 0.500000 0.000000
v 1.000000 1.500000 0.000002
v 0.043058 2.000000 2.500001
v 0.043058 2.000000 -2.499999
v 0.500000 2.000000 0.000002
v -0.500000 2.000000 0.000000
v -0.500000 0.000000 -0.000001
v 0.500000 0.000000 -0.000000
v 0.043058 0.000000 -2.500001
v 0.043058 0.000000 2.500000
v 0.500000 0.000000 2.500000
v 0.500000 0.000000 -2.500000
v -0.500000 0.000000 -2.500001
v -0.500000 2.000000 -2.500000
v 0.500000 2.000000 -2.499998
v 0.500000 2.000000 2.500002
v -0.054687 0.500000 -5.000000
v 1.000000 0.500000 -2.500000
v 1.000000 0.500000 2.500001
v -0.806629 1.750000 -3.750000
v -0.806629 0.750000 -3.750001
v -0.806629 0.750000 1.249999
v -1.000000 1.500000 2.499999
v -1.000000 0.500000 2.499999
v -1.000000 0.500000 -2.500001
v 0.500000 0.500000 -5.000000
v -0.500000 0.500000 -5.000001
v -0.054687 1.500000 -5.000000
v -0.806629 1.750000 1.249999
v 1.000000 1.500000 2.500002
v -0.500000 2.000000 2.500000
v -0.500000 0.000000 2.499999
v 1.000000 0.000000 3.750000
v -0.750000 0.000000 -5.000002
v 1.000000 1.750000 -4.999998
v 0.806629 0.750000 -1.249999
v 0.806629 1.750000 -1.249998
v -1.000000 0.000000 -3.750002
v 0.806629 1.250000 -1.249999
v -1.000000 1.750000 -5.000000
v 1.000000 2.000000 3.750003
v -0.750000 2.000000 -5.000000
v 0.806629 1.250000 -3.749999
v -1.000000 2.000000 -3.750000
v 1.000000 0.000000 -1.250000
v 0.250000 0.000000 -5.000001
v 1.000000 0.750000 -4.999999
v 0.806629 1.750000 -3.749998
v 0.806629 0.750000 -3.749999
v -1.000000 0.000000 1.249999
v 0.806629 0.750000 1.250001
v -1.000000 0.750000 -5.000001
v 1.000000 2.000000 -1.249998
v 0.250000 2.000000 -4.999999
v -0.806629 1.250000 1.249999
v -1.000000 2.000000 1.249999
v -0.750000 1.000000 -5.000001
v -0.750000 0.250000 -4.917552
v 0.043058 1.750000 -4.999999
v 0.043058 0.750000 -5.000000
v -1.000000 1.000000 -3.750001
v -0.054687 0.000000 -2.500001
v -1.000000 0.250000 -0.000001
v -1.000000 1.250000 -0.000001
v -0.806629 0.750000 -1.250001
v -0.806629 1.250000 -3.750001
v -0.806629 1.250000 -1.250001
v -0.806629 1.750000 -1.250001
v 1.000000 1.000000 3.750001
v 1.000000 1.000000 -1.249999
v 1.000000 0.250000 0.000000
v 1.000000 1.250000 0.000001
v 0.043057 2.000000 3.750000
v 0.043058 2.000000 -1.249999
v 0.750000 2.000000 0.000002
v -0.250000 2.000000 0.000000
v -0.750000 0.000000 -0.000001
v 0.250000 0.000000 -0.000001
v 0.043058 0.000000 -3.750001
v 0.043058 0.000000 1.249999
v 1.000000 0.000000 1.250000
v -0.250000 0.000000 -5.000001
v 1.000000 1.250000 -4.999999
v 0.806629 1.250000 1.250001
v 0.806629 1.750000 1.250002
v -1.000000 0.000000 -1.250002
v -0.806629 1.500000 -3.750000
v -1.000000 1.250000 -5.000001
v 1.000000 2.000000 1.250003
v -0.250000 2.000000 -4.999999
v -0.806629 0.750000 -2.500001
v -1.000000 2.000000 -1.250001
v 1.000000 0.000000 -3.750000
v 0.750000 0.000000 -5.000000
v 1.000000 0.250000 -5.000000
v -0.806629 0.750000 2.499999
v 0.806629 0.750000 2.500001
v -1.000000 0.000000 3.749999
v 0.806629 0.750000 -2.499999
v -1.000000 0.250000 -5.000002
v 1.000000 2.000000 -3.749998
v 0.750000 2.000000 -4.999998
v 0.806629 1.500000 -1.249998
v -1.000000 2.000000 3.749998
v 0.750000 0.250000 -4.917550
v 0.750000 1.000000 -4.999999
v 0.043058 1.250000 -5.000000
v 0.043058 0.250000 -5.000001
v -1.000000 1.000000 -1.250001
v -1.000000 1.000000 3.749999
v -1.000000 0.750000 -0.000001
v -1.000000 1.750000 -0.000001
v 0.806629 0.750000 0.000001
v -0.806629 0.750000 -0.000001
v 0.806629 1.000000 -1.249999
v -0.806629 1.000000 -3.750001
v -0.054687 0.000000 -0.000001
v 1.000000 1.000000 -3.749999
v 1.000000 0.750000 0.000001
v 1.000000 1.750000 0.000002
v 0.043058 2.000000 1.250001
v 0.043058 2.000000 -3.749999
v 0.250000 2.000000 0.000001
v -0.750000 2.000000 -0.000000
v -0.250000 0.000000 -0.000001
v 0.750000 0.000000 -0.000000
v 0.043058 0.000000 -1.250001
v 0.043058 0.000000 3.750000
v 0.250000 0.000000 2.500000
v 0.750000 0.000000 2.500000
v 0.500000 0.000000 1.250000
v 0.500000 0.000000 3.750000
v 0.250000 0.000000 -2.500000
v 0.750000 0.000000 -2.500000
v 0.500000 0.000000 -3.750000
v 0.500000 0.000000 -1.250000
v -0.750000 0.000000 -2.500001
v -0.250000 0.000000 -2.500001
v -0.500000 0.000000 -3.750001
v -0.500000 0.000000 -1.250001
v -0.500000 2.000000 -1.250000
v -0.500000 2.000000 -3.750000
v -0.250000 2.000000 -2.500000
v -0.750000 2.000000 -2.500000
v 0.500000 2.000000 -1.249998
v 0.500000 2.000000 -3.749998
v 0.750000 2.000000 -2.499998
v 0.250000 2.000000 -2.499999
v 0.500000 2.000000 3.750002
v 0.500000 2.000000 1.250002
v 0.750000 2.000000 2.500002
v 0.250000 2.000000 2.500001
v 1.000000 1.500000 -1.249998
v 1.000000 1.500000 -3.749998
v -0.054687 1.000000 -5.000000
v 1.000000 1.750000 -2.499998
v 1.000000 0.500000 -1.250000
v 1.000000 0.500000 -3.750000
v 1.000000 0.250000 -2.500000
v 1.000000 0.750000 -2.499999
v 1.000000 0.500000 3.750001
v 1.000000 0.500000 1.250001
v 1.000000 0.250000 2.500000
v 1.000000 0.750000 2.500001
v 0.806628 1.750000 2.500002
v 0.806629 1.250000 2.500001
v 0.806628 1.500000 2.500002
v 0.806629 1.500000 1.250002
v -0.806629 1.750000 -2.500000
v -0.806629 1.250000 -2.500001
v -0.806629 1.500000 -2.500001
v -0.806629 1.500000 -1.250001
v -0.806629 1.500000 2.499999
v -0.806629 1.750000 2.499999
v -0.806629 1.000000 2.499999
v -0.806629 1.250000 2.499999
v -0.054687 2.000000 -4.999999
v -1.000000 1.500000 3.749998
v -1.000000 1.250000 2.499999
v -1.000000 1.750000 2.499999
v -1.000000 0.500000 1.249999
v -1.000000 0.500000 3.749999
v -1.000000 0.250000 2.499999
v -1.000000 0.750000 2.499999
v -1.000000 0.500000 -3.750001
v -1.000000 0.500000 -1.250001
v -1.000000 0.250000 -2.500001
v -1.000000 0.750000 -2.500001
v 0.250000 0.500000 -5.000000
v 0.750000 0.500000 -5.000000
v 0.500000 0.750000 -5.000000
v 0.500000 0.250000 -5.000000
v -0.750000 0.500000 -4.917551
v 0.750000 1.500000 -4.999999
v 0.500000 1.750000 -4.999999
v -0.500000 0.500000 -4.917551
v -0.750000 1.500000 -5.000000
v -0.500000 0.250000 -4.917551
v -0.500000 1.750000 -5.000000
v 0.500000 0.250000 -4.917550
v -0.750000 0.500000 -5.000001
v -0.250000 0.500000 -5.000001
v -0.500000 0.750000 -5.000001
v -0.500000 0.250000 -5.000001
v -1.000000 1.500000 -3.750000
v -1.000000 1.500000 -1.250001
v -0.054687 0.000000 -5.000001
v -1.000000 1.750000 -2.500000
v -0.806629 1.500000 1.249999
v 0.806629 1.750000 -2.499998
v 0.806629 1.250000 -2.499999
v 0.806629 1.500000 -2.499998
v 1.000000 1.500000 3.750002
v -0.054688 2.000000 2.500001
v 1.000000 1.250000 2.500001
v 1.000000 1.750000 2.500002
v -0.500000 2.000000 3.749999
v -0.500000 2.000000 1.250000
v -0.250000 2.000000 2.500000
v -0.750000 2.000000 2.499999
v -0.750000 0.000000 2.499999
v -0.250000 0.000000 2.499999
v -0.500000 0.000000 1.249999
v -0.500000 0.000000 3.749999
v -0.250000 0.000000 3.749999
v -0.250000 0.000000 1.249999
v -0.750000 0.000000 1.249999
v -0.750000 2.000000 1.249999
v -0.250000 2.000000 1.250000
v -0.250000 2.000000 3.750000
v 1.000000 1.750000 1.250002
v -0.054687 2.000000 -2.499999
v 1.000000 1.250000 3.750002
v 0.806629 1.500000 -3.749998
v 0.806629 1.500000 0.000002
v 0.806629 1.750000 0.000002
v -1.000000 1.750000 -1.250001
v -1.000000 1.250000 -1.250001
v -1.000000 1.250000 -3.750001
v -0.250000 0.250000 -5.000001
v -0.250000 0.750000 -5.000000
v -0.750000 0.750000 -5.000001
v 0.500000 0.500000 -4.917550
v -0.250000 1.750000 -5.000000
v -0.750000 1.750000 -5.000000
v 0.750000 1.250000 -4.999999
v 0.750000 1.750000 -4.999998
v 0.250000 1.750000 -4.999999
v 0.750000 0.250000 -5.000000
v 0.750000 0.750000 -5.000000
v 0.250000 0.750000 -5.000000
v -1.000000 0.750000 -1.250001
v -1.000000 0.250000 -1.250001
v -1.000000 0.250000 -3.750002
v -1.000000 0.750000 3.749999
v -1.000000 0.250000 3.749999
v -1.000000 0.250000 1.249999
v -1.000000 1.750000 3.749998
v -1.000000 1.250000 3.749998
v -0.054688 2.000000 0.000001
v 0.806629 1.000000 -2.499999
v 0.806629 1.000000 -3.749999
v 0.806629 1.000000 2.500001
v 0.806629 1.000000 1.250001
v -0.806629 1.500000 -0.000001
v -0.806629 1.750000 -0.000001
v -0.806629 1.000000 -2.500001
v -0.806629 1.000000 -1.250001
v 0.806629 1.000000 0.000001
v 1.000000 0.750000 1.250001
v 1.000000 0.250000 1.250000
v 1.000000 0.250000 3.750000
v 1.000000 0.750000 -3.749999
v 1.000000 0.250000 -3.750000
v 1.000000 0.250000 -1.250000
v 1.000000 1.750000 -3.749998
v 1.000000 1.250000 -3.749999
v 1.000000 1.250000 -1.249999
v 0.250000 2.000000 1.250001
v 0.750000 2.000000 1.250002
v 0.750000 2.000000 3.750002
v 0.250000 2.000000 -3.749999
v 0.750000 2.000000 -3.749998
v 0.750000 2.000000 -1.249998
v -0.750000 2.000000 -3.750000
v -0.250000 2.000000 -3.749999
v -0.250000 2.000000 -1.250000
v -0.250000 0.000000 -1.250001
v -0.250000 0.000000 -3.750001
v -0.750000 0.000000 -3.750002
v 0.750000 0.000000 -1.250000
v 0.750000 0.000000 -3.750000
v 0.250000 0.000000 -3.750001
v 0.750000 0.000000 3.750000
v 0.750000 0.000000 1.250000
v 0.250000 0.000000 1.250000
v 0.250000 0.000000 3.750000
v 0.250000 0.000000 -1.250000
v -0.750000 0.000000 -1.250001
v -0.750000 2.000000 -1.250000
v 0.250000 2.000000 -1.249999
v 0.250000 2.000000 3.750001
v 1.000000 1.750000 -1.249998
v 1.000000 0.750000 -1.249999
v 1.000000 0.750000 3.750001
v 0.806629 1.250000 0.000001
v -0.806629 1.250000 -0.000001
v -0.806629 1.000000 -0.000001
v -1.000000 1.750000 1.249999
v -1.000000 0.750000 1.249999
v -1.000000 0.750000 -3.750001
v 0.250000 0.250000 -5.000000
v 0.750000 0.500000 -4.917550
v -0.750000 1.250000 -5.000000
v -0.750000 0.250000 -5.000001
v -1.000000 1.750000 -3.750000
v -0.806629 1.000000 1.249999
v 1.000000 1.750000 3.750002
v -0.750000 2.000000 3.749999
v -0.750000 0.000000 3.749999
v -0.054687 1.000000 -4.864020
v -0.054687 1.250000 -4.864020
v -0.054687 1.500000 -4.864020
v -0.054687 1.750000 -4.864019
v 0.500000 0.750000 -4.864020
v 0.250000 1.500000 -4.864019
v 0.750000 1.500000 -4.864019
v 0.500000 1.500000 -4.864019
v 0.500000 1.250000 -4.864019
v -0.250000 1.500000 -4.864020
v -0.500000 1.500000 -4.864020
v -0.500000 1.250000 -4.864020
v -0.500000 0.750000 -4.864021
v -0.750000 1.000000 -4.864021
v 0.043058 1.750000 -4.864019
v 0.500000 1.750000 -4.864019
v -0.750000 1.500000 -4.864020
v -0.500000 1.750000 -4.864020
v -0.250000 0.750000 -4.864021
v -0.750000 0.750000 -4.864021
v -0.250000 1.250000 -4.864020
v -0.250000 1.750000 -4.864020
v -0.750000 1.750000 -4.864020
v 0.750000 1.250000 -4.864019
v 0.750000 1.750000 -4.864018
v 0.250000 1.750000 -4.864019
v 0.750000 0.750000 -4.864020
v 0.250000 0.750000 -4.864020
v 0.250000 1.250000 -4.864020
v -0.750000 1.250000 -4.864021
vn -1.000000 -0.000000 -0.000000
vn 0.000000 0.000000 -1.000000
vn 1.000000 0.000000 0.000000
vn 0.000000 -0.000000 1.000000
vn 0.000000 1.000000 0.000000
vn 0.000000 -1.000000 0.000000
usemtl Material
s off
f 378//1 106//1 8//1 102//1
f 377//2 96//2 4//2 162//2
f 376//2 119//2 16//2 150//2
f 21//3 169//3 6//3 23//3
f 374//2 108//2 10//2 170//2
f 373//1 123//1 16//1 114//1
f 181//4 24//4 331//4 175//4
f 371//1 118//1 20//1 174//1
f 366//3 132//3 24//3 181//3
f 365//3 115//3 17//3 182//3
f 363//5 136//5 25//5 185//5
f 362//5 154//5 20//5 186//5
f 361//6 139//6 14//6 148//6
f 360//6 140//6 26//6 189//6
f 358//6 191//6 72//6 142//6
f 357//6 192//6 73//6 193//6
f 72//6 190//6 53//6 62//6
f 355//6 195//6 71//6 141//6
f 354//6 196//6 74//6 197//6
f 353//6 188//6 70//6 198//6
f 352//6 199//6 32//6 100//6
f 351//6 200//6 75//6 201//6
f 350//6 187//6 69//6 202//6
f 349//5 203//5 68//5 138//5
f 348//5 204//5 76//5 205//5
f 347//5 106//5 38//5 206//5
f 346//5 207//5 67//5 137//5
f 345//5 208//5 77//5 209//5
f 344//5 184//5 66//5 210//5
f 342//5 212//5 78//5 213//5
f 341//5 183//5 65//5 214//5
f 340//3 215//3 64//3 134//3
f 371//6 174//6 328//6 91//6
f 338//3 163//3 47//3 218//3
f 337//3 219//3 63//3 133//3
f 336//3 220//3 80//3 221//3
f 250//5 314//5 127//5 153//5
f 26//6 142//6 60//6 179//6
f 333//3 224//3 81//3 225//3
f 215//2 340//2 101//2 165//2
f 142//6 72//6 62//6 60//6
f 183//5 59//5 276//5 65//5
f 25//5 322//5 59//5 183//5
f 65//5 276//5 58//5 135//5
f 52//2 170//2 57//2 79//2
f 170//2 10//2 269//2 57//2
f 21//2 122//2 49//2 217//2
f 122//2 52//2 79//2 49//2
f 51//2 169//2 45//2 90//2
f 171//2 300//2 129//2 330//2
f 321//1 240//1 85//1 241//1
f 320//1 166//1 50//1 242//1
f 319//1 243//1 55//1 125//1
f 318//1 244//1 86//1 245//1
f 317//1 172//1 54//1 246//1
f 316//1 247//1 46//1 162//1
f 315//1 248//1 87//1 249//1
f 278//2 92//2 229//2 227//2
f 313//2 251//2 52//2 122//2
f 312//2 252//2 88//2 253//2
f 311//2 156//2 40//2 254//2
f 259//3 307//3 405//3 399//3
f 265//5 304//5 402//5 395//5
f 307//6 261//6 400//6 405//6
f 307//2 259//2 34//2 102//2
f 310//6 257//6 398//6 408//6
f 217//1 49//1 2//1 383//1
f 304//2 263//2 46//2 114//2
f 303//2 264//2 89//2 265//2
f 302//2 144//2 28//2 266//2
f 301//1 267//1 34//1 150//1
f 56//4 126//4 369//4 327//4
f 299//1 154//1 38//1 270//1
f 169//2 21//2 217//2 45//2
f 18//2 121//2 43//2 239//2
f 121//2 51//2 90//2 43//2
f 184//5 42//5 294//5 66//5
f 340//2 132//2 177//2 101//2
f 293//3 151//3 35//3 278//3
f 291//5 280//5 93//5 281//5
f 290//5 118//5 50//5 282//5
f 289//6 283//6 44//6 112//6
f 288//6 284//6 94//6 285//6
f 18//5 239//5 42//5 184//5
f 284//6 287//6 286//6 94//6
f 62//6 53//6 287//6 284//6
f 136//5 37//5 322//5 25//5
f 187//6 288//6 285//6 69//6
f 179//6 60//6 288//6 187//6
f 60//6 62//6 284//6 288//6
f 139//6 289//6 112//6 14//6
f 69//6 285//6 289//6 139//6
f 285//6 94//6 283//6 289//6
f 280//5 290//5 282//5 93//5
f 68//5 186//5 290//5 280//5
f 186//5 20//5 118//5 290//5
f 59//5 291//5 281//5 276//5
f 322//5 138//5 291//5 59//5
f 138//5 68//5 280//5 291//5
f 276//5 281//5 292//5 58//5
f 281//5 93//5 279//5 292//5
f 246//2 54//2 237//2 158//2
f 277//2 61//2 325//2 228//2
f 182//3 17//3 151//3 293//3
f 123//4 373//4 83//4 178//4
f 182//6 293//6 147//6 298//6
f 64//4 182//4 298//4 297//4
f 66//5 294//5 37//5 136//5
f 61//3 277//3 295//3 131//3
f 277//3 92//3 275//3 295//3
f 71//6 189//6 33//6 124//6
f 189//6 26//6 179//6 33//6
f 10//6 141//6 31//6 269//6
f 141//6 71//6 124//6 31//6
f 287//4 53//4 58//4 292//4 279//4 381//4 166//4 320//4 240//4 321//4 172//4 317//4 244//4 318//4 160//4 382//4 286//4
f 216//4 338//4 110//4 296//4
f 173//5 372//5 84//5 176//5
f 218//6 365//6 99//6 272//6
f 301//4 123//4 178//4 128//4
f 132//2 366//2 98//2 177//2
f 56//1 174//1 299//1 268//1
f 174//1 20//1 154//1 299//1
f 293//6 278//6 227//6 147//6
f 22//1 126//1 300//1 171//1
f 126//1 56//1 268//1 300//1
f 123//1 301//1 150//1 16//1
f 339//4 216//4 296//4 105//4
f 373//5 250//5 153//5 83//5
f 264//2 302//2 266//2 89//2
f 79//2 57//2 302//2 264//2
f 57//2 269//2 144//2 302//2
f 169//3 51//3 3//3 6//3
f 121//6 310//6 408//6 397//6
f 49//2 79//2 264//2 303//2
f 119//2 304//2 114//2 16//2
f 49//5 303//5 401//5 2//5
f 265//2 89//2 263//2 304//2
f 253//5 313//5 410//5 387//5
f 309//1 256//1 389//1 407//1
f 119//3 376//3 412//3 396//3
f 152//2 306//2 261//2 36//2
f 239//2 43//2 306//2 152//2
f 303//5 265//5 395//5 401//5
f 104//2 307//2 102//2 8//2
f 36//2 261//2 307//2 104//2
f 313//5 122//5 19//5 410//5
f 306//6 43//6 386//6 404//6
f 29//2 145//2 308//2 256//2
f 145//2 11//2 168//2 308//2
f 164//2 309//2 257//2 48//2
f 5//2 97//2 309//2 164//2
f 97//2 29//2 256//2 309//2
f 116//2 310//2 121//2 18//2
f 48//2 257//2 310//2 116//2
f 376//3 259//3 399//3 412//3
f 252//1 311//1 167//1 375//1
f 41//2 157//2 311//2 252//2
f 157//2 1//2 156//2 311//2
f 261//6 306//6 404//6 400//6
f 11//2 109//2 312//2 168//2
f 109//2 41//2 252//2 312//2
f 51//3 121//3 397//3 3//3
f 168//1 312//1 409//1 12//1
f 253//2 88//2 251//2 313//2
f 248//1 314//1 250//1 87//1
f 55//1 173//1 314//1 248//1
f 173//1 22//1 171//1 314//1
f 148//1 315//1 249//1 32//1
f 14//1 125//1 315//1 148//1
f 125//1 55//1 248//1 315//1
f 100//1 316//1 162//1 4//1
f 32//1 249//1 316//1 100//1
f 249//1 87//1 247//1 316//1
f 244//1 317//1 246//1 86//1
f 160//1 318//1 245//1 44//1
f 112//1 319//1 125//1 14//1
f 44//1 245//1 319//1 112//1
f 245//1 86//1 243//1 319//1
f 240//1 320//1 242//1 85//1
f 172//1 321//1 241//1 54//1
f 268//2 299//2 130//2 234//2
f 180//4 339//4 105//4 324//4
f 126//4 22//4 370//4 369//4
f 222//5 335//5 111//5 161//5
f 85//2 242//2 236//2 235//2
f 378//4 267//4 149//4 82//4
f 314//2 171//2 330//2 127//2
f 24//4 134//4 368//4 331//4
f 92//2 277//2 228//2 229//2
f 174//4 56//4 327//4 328//4
f 54//2 241//2 238//2 237//2
f 270//6 378//6 82//6 231//6
f 338//6 218//6 272//6 110//6
f 242//6 371//6 91//6 236//6
f 300//2 268//2 234//2 129//2
f 224//3 332//3 226//3 81//3
f 63//3 181//3 332//3 224//3
f 366//5 222//5 161//5 98//5
f 143//3 333//3 225//3 27//3
f 9//3 133//3 333//3 143//3
f 133//3 63//3 224//3 333//3
f 27//3 225//3 334//3 95//3
f 225//3 81//3 223//3 334//3
f 220//3 335//3 222//3 80//3
f 41//3 109//3 335//3 220//3
f 109//3 11//3 180//3 335//3
f 155//3 336//3 221//3 39//3
f 1//3 157//3 336//3 155//3
f 157//3 41//3 220//3 336//3
f 107//3 337//3 133//3 9//3
f 39//3 221//3 337//3 107//3
f 221//3 80//3 219//3 337//3
f 134//4 64//4 297//4 368//4
f 29//3 97//3 338//3 216//3
f 97//3 5//3 163//3 338//3
f 299//6 270//6 231//6 130//6
f 11//3 145//3 339//3 180//3
f 145//3 29//3 216//3 339//3
f 132//3 340//3 134//3 24//3
f 241//2 85//2 235//2 238//2
f 335//4 180//4 324//4 111//4
f 212//5 341//5 214//5 78//5
f 67//5 185//5 341//5 212//5
f 185//5 25//5 183//5 341//5
f 151//5 342//5 213//5 35//5
f 17//5 137//5 342//5 151//5
f 137//5 67//5 212//5 342//5
f 35//5 213//5 343//5 103//5
f 213//5 78//5 211//5 343//5
f 208//5 344//5 210//5 77//5
f 48//5 116//5 344//5 208//5
f 116//5 18//5 184//5 344//5
f 163//5 345//5 209//5 47//5
f 5//5 164//5 345//5 163//5
f 164//5 48//5 208//5 345//5
f 115//5 346//5 137//5 17//5
f 47//5 209//5 346//5 115//5
f 209//5 77//5 207//5 346//5
f 204//5 347//5 206//5 76//5
f 36//5 104//5 347//5 204//5
f 104//5 8//5 106//5 347//5
f 42//5 348//5 205//5 294//5
f 239//5 152//5 348//5 42//5
f 152//5 36//5 204//5 348//5
f 37//5 349//5 138//5 322//5
f 294//5 205//5 349//5 37//5
f 205//5 76//5 203//5 349//5
f 200//6 350//6 202//6 75//6
f 124//6 33//6 350//6 200//6
f 33//6 179//6 187//6 350//6
f 144//6 351//6 201//6 28//6
f 269//6 31//6 351//6 144//6
f 31//6 124//6 200//6 351//6
f 96//6 352//6 100//6 4//6
f 28//6 201//6 352//6 96//6
f 201//6 75//6 199//6 352//6
f 196//6 353//6 198//6 74//6
f 39//6 107//6 353//6 196//6
f 107//6 9//6 188//6 353//6
f 156//6 354//6 197//6 40//6
f 1//6 155//6 354//6 156//6
f 155//6 39//6 196//6 354//6
f 108//6 355//6 141//6 10//6
f 40//6 197//6 355//6 108//6
f 197//6 74//6 195//6 355//6
f 192//6 356//6 194//6 73//6
f 27//6 95//6 356//6 192//6
f 188//6 357//6 193//6 70//6
f 9//6 143//6 357//6 188//6
f 143//6 27//6 192//6 357//6
f 140//6 358//6 142//6 26//6
f 70//6 193//6 358//6 140//6
f 193//6 73//6 191//6 358//6
f 191//6 359//6 190//6 72//6
f 73//6 194//6 359//6 191//6
f 195//6 360//6 189//6 71//6
f 74//6 198//6 360//6 195//6
f 198//6 70//6 140//6 360//6
f 199//6 361//6 148//6 32//6
f 75//6 202//6 361//6 199//6
f 202//6 69//6 139//6 361//6
f 203//5 362//5 186//5 68//5
f 76//5 206//5 362//5 203//5
f 206//5 38//5 154//5 362//5
f 207//5 363//5 185//5 67//5
f 77//5 210//5 363//5 207//5
f 210//5 66//5 136//5 363//5
f 78//5 214//5 364//5 211//5
f 214//5 65//5 135//5 364//5
f 215//3 365//3 182//3 64//3
f 332//5 181//5 175//5 113//5
f 218//3 47//3 115//3 365//3
f 219//3 366//3 181//3 63//3
f 80//3 222//3 366//3 219//3
f 22//4 173//4 176//4 370//4
f 81//3 226//3 367//3 223//3
f 226//3 61//3 131//3 367//3
f 61//2 226//2 159//2 325//2
f 372//5 246//5 158//5 84//5
f 242//1 50//1 118//1 371//1
f 243//1 372//1 173//1 55//1
f 86//1 246//1 372//1 243//1
f 226//5 332//5 113//5 159//5
f 247//1 373//1 114//1 46//1
f 87//1 250//1 373//1 247//1
f 365//2 215//2 165//2 99//2
f 251//2 374//2 170//2 52//2
f 88//2 254//2 374//2 251//2
f 254//2 40//2 108//2 374//2
f 257//6 309//6 407//6 398//6
f 43//1 90//1 385//1 386//1
f 308//1 168//1 12//1 406//1
f 259//2 376//2 150//2 34//2
f 312//5 253//5 387//5 409//5
f 256//1 308//1 406//1 389//1
f 263//2 377//2 162//2 46//2
f 377//3 263//3 255//3 120//3
f 266//2 28//2 96//2 377//2
f 267//1 378//1 102//1 34//1
f 267//4 301//4 128//4 149//4
f 270//1 38//1 106//1 378//1
f 92//3 278//3 380//3 275//3
f 278//3 35//3 103//3 380//3
f 93//5 282//5 381//5 279//5
f 282//5 50//5 166//5 381//5
f 283//6 382//6 160//6 44//6
f 94//6 286//6 382//6 283//6
f 53//4 190//4 359//4 194//4 356//4 95//4 334//4 223//4 367//4 131//4 295//4 275//4 380//4 103//4 343//4 211//4 364//4 135//4 58//4
f 304//3 119//3 396//3 402//3
f 90//1 45//1 384//1 385//1
f 45//1 217//1 383//1 384//1
f 122//3 21//3 23//3 19//3
f 311//5 254//5 262//5 167//5
f 254//3 88//3 305//3 262//3
f 88//6 252//6 375//6 305//6
f 266//5 377//5 120//5 260//5
f 263//6 89//6 258//6 255//6
f 89//1 266//1 260//1 258//1
usemtl Material.001
f 383//2 2//2 401//2 15//2
f 394//2 13//2 396//2 412//2
f 15//2 401//2 395//2 13//2
f 403//2 15//2 13//2 394//2
f 404//2 392//2 393//2 400//2
f 406//2 12//2 7//2 391//2
f 407//2 389//2 390//2 398//2
f 408//2 388//2 3//2 397//2
f 393//2 394//2 412//2 399//2
f 411//2 30//2 23//2 6//2
f 391//2 7//2 30//2 411//2
f 390//2 391//2 411//2 388//2
f 388//2 411//2 6//2 3//2
f 7//2 387//2 410//2 30//2
f 30//2 410//2 19//2 23//2
f 12//2 409//2 387//2 7//2
f 398//2 390//2 388//2 408//2
f 389//2 406//2 391//2 390//2
f 400//2 393//2 399//2 405//2
f 386//2 385//2 392//2 404//2
f 384//2 383//2 15//2 403//2
f 233//1 231//1 82//1 149//1
f 153//1 329//1 178//1 83//1
f 158//1 237//1 379//1 84//1
f 235//1 236//1 91//1 271//1
f 271//1 91//1 328//1 327//1
f 161//3 323//3 177//3 98//3
f 274//3 272//3 99//3 165//3
f 273//3 274//3 165//3 101//3
f 323//3 273//3 101//3 177//3
f 324//3 105//3 273//3 323//3
f 296//3 110//3 272//3 274//3
f 175//3 331//3 326//3 113//3
f 238//1 235//1 271//1 117//1
f 237//1 238//1 117//1 379//1
f 379//1 117//1 369//1 370//1
f 232//1 233//1 149//1 128//1
f 385//2 384//2 403//2 392//2
f 329//1 232//1 128//1 178//1
f 330//1 129//1 232//1 329//1
f 392//2 403//2 394//2 393//2
f 234//1 130//1 231//1 233//1
f 368//3 297//3 230//3 146//3
f 331//3 368//3 146//3 326//3
f 326//3 146//3 228//3 325//3
f 297//3 298//3 147//3 230//3
f 230//3 147//3 227//3 229//3
f 146//3 230//3 229//3 228//3
f 129//1 234//1 233//1 232//1
f 127//1 330//1 329//1 153//1
f 117//1 271//1 327//1 369//1
f 113//3 326//3 325//3 159//3
f 111//3 324//3 323//3 161//3
f 105//3 296//3 274//3 273//3
f 84//1 379//1 370//1 176//1
f 13//2 395//2 402//2 396//2
usemtl Material.002
f 375//2 167//2 262//2 305//2
f 258//2 260//2 120//2 255//2
