# Blender v2.76 (sub 0) OBJ File: 'TRACK.blend'
# www.blender.org
mtllib TRACK.mtl
o Cube
v -9.999992 -3.400010 9.999998
v -9.999989 -3.400010 -10.000000
v 10.000011 -3.400010 -10.000000
v 10.000003 -3.400010 10.000006
v -9.999997 1.599990 9.999994
v -9.999983 1.599990 -10.000004
v 10.000014 1.599990 -9.999996
v 10.000007 1.599990 10.000002
v -9.999995 1.599990 29.999998
v 10.000000 1.599990 30.000006
v -10.000000 6.599990 29.999994
v 10.000004 6.599990 30.000002
v -10.000003 -3.399991 50.000000
v 9.999993 -3.399991 50.000008
v -10.000009 1.600009 49.999992
v 9.999996 1.600009 50.000000
v -10.000011 -3.399972 70.000000
v 9.999986 -3.399972 70.000000
v -10.000017 1.600028 70.000000
v 9.999989 1.600028 70.000000
vn 0.000000 -1.000000 0.000000
vn 0.000000 1.000000 0.000000
vn -1.000000 0.000000 -0.000000
vn 0.000000 -0.000000 -1.000000
vn 1.000000 -0.000000 0.000000
vn -0.000000 0.970100 0.242500
vn 0.000000 0.970100 -0.242500
vn -0.000000 -0.970100 0.242500
vn 0.000000 -0.970100 -0.242500
vn 0.000000 0.000000 1.000000
usemtl Material
s off
f 1//1 2//1 3//1 4//1
f 5//2 8//2 7//2 6//2
f 1//3 5//3 6//3 2//3
f 2//4 6//4 7//4 3//4
f 3//5 7//5 8//5 4//5
f 5//3 1//3 9//3 11//3
f 12//6 11//6 15//6 16//6
f 8//7 5//7 11//7 12//7
f 4//5 8//5 12//5 10//5
f 1//8 4//8 10//8 9//8
f 14//5 16//5 20//5 18//5
f 11//3 9//3 13//3 15//3
f 10//5 12//5 16//5 14//5
f 9//9 10//9 14//9 13//9
f 19//10 17//10 18//10 20//10
f 13//1 14//1 18//1 17//1
f 16//2 15//2 19//2 20//2
f 15//3 13//3 17//3 19//3
